<?xml version="1.0" encoding="utf-8"?>
<!-- Generator: Adobe Illustrator 16.0.0, SVG Export Plug-In . SVG Version: 6.00 Build 0)  -->
<!DOCTYPE svg PUBLIC "-//W3C//DTD SVG 1.1//EN" "http://www.w3.org/Graphics/SVG/1.1/DTD/svg11.dtd">
<svg version="1.1" xmlns="http://www.w3.org/2000/svg" xmlns:xlink="http://www.w3.org/1999/xlink" x="0px" y="0px"
	 width="727.464px" height="203.102px" viewBox="0 0 727.464 203.102" enable-background="new 0 0 727.464 203.102"
	 xml:space="preserve">
<g id="Livello_1" display="none">
</g>
<g id="Livello_2">
	<rect x="139.097" y="33.32" fill="none" stroke="#010202" stroke-miterlimit="10" width="73.7" height="35"/>
	<rect x="212.797" y="33.32" fill="none" stroke="#010202" stroke-miterlimit="10" width="73.7" height="35"/>
	<rect x="139.097" y="68.32" fill="none" stroke="#010202" stroke-miterlimit="10" width="73.7" height="25"/>
	<rect x="212.797" y="68.32" fill="none" stroke="#010202" stroke-miterlimit="10" width="73.7" height="25"/>
	<rect x="139.097" y="93.32" fill="none" stroke="#010202" stroke-miterlimit="10" width="73.7" height="25"/>
	<rect x="212.797" y="93.32" fill="none" stroke="#010202" stroke-miterlimit="10" width="73.7" height="25"/>
	<rect x="139.097" y="118.32" fill="none" stroke="#010202" stroke-miterlimit="10" width="73.7" height="25"/>
	<rect x="212.797" y="118.32" fill="none" stroke="#010202" stroke-miterlimit="10" width="73.7" height="25"/>
	<rect x="139.097" y="143.32" fill="none" stroke="#010202" stroke-miterlimit="10" width="73.7" height="25"/>
	<rect x="212.797" y="143.32" fill="none" stroke="#010202" stroke-miterlimit="10" width="73.7" height="25"/>
	<text transform="matrix(1 0 0 1 152.4219 53.7188)" fill="#010202" font-family="'MyriadPro-Regular'" font-size="11">Research</text>
	<text transform="matrix(1 0 0 1 229.332 53.7188)" fill="#010202" font-family="'MyriadPro-Regular'" font-size="11">Ideation</text>
	<text transform="matrix(1 0 0 1 292.96 53.7188)" fill="#010202" font-family="'MyriadPro-Regular'" font-size="11">Prototyping</text>
	<text transform="matrix(1.0981 0 0 1 377.0762 53.7188)" fill="#010202" font-family="'MyriadPro-Regular'" font-size="11">Testing</text>
	<text transform="matrix(1.0006 0 0 1 513.5967 54.3203)" fill="#010202" font-family="'MyriadPro-Regular'" font-size="11">Development</text>
	<text transform="matrix(1.0006 0 0 1 453.209 54.3203)" fill="#010202" font-family="'MyriadPro-Regular'" font-size="11">Release</text>
	<text transform="matrix(1.0006 0 0 1 585.6582 55.5381)" fill="#010202" font-family="'MyriadPro-Regular'" font-size="11">User Feedback</text>
	<rect x="286.497" y="33.32" fill="none" stroke="#010202" stroke-miterlimit="10" width="73.701" height="35"/>
	<rect x="360.198" y="33.32" fill="none" stroke="#010202" stroke-miterlimit="10" width="73.701" height="35"/>
	<rect x="286.497" y="68.32" fill="none" stroke="#010202" stroke-miterlimit="10" width="73.701" height="25"/>
	<rect x="360.198" y="68.32" fill="none" stroke="#010202" stroke-miterlimit="10" width="73.701" height="25"/>
	<rect x="286.497" y="93.32" fill="none" stroke="#010202" stroke-miterlimit="10" width="73.701" height="25"/>
	<rect x="360.198" y="93.32" fill="none" stroke="#010202" stroke-miterlimit="10" width="73.701" height="25"/>
	<rect x="286.497" y="118.32" fill="none" stroke="#010202" stroke-miterlimit="10" width="73.701" height="25"/>
	<rect x="360.198" y="118.32" fill="none" stroke="#010202" stroke-miterlimit="10" width="73.701" height="25"/>
	<rect x="286.497" y="143.32" fill="none" stroke="#010202" stroke-miterlimit="10" width="73.701" height="25"/>
	<rect x="360.198" y="143.32" fill="none" stroke="#010202" stroke-miterlimit="10" width="73.701" height="25"/>
	<rect x="433.899" y="33.32" fill="none" stroke="#010202" stroke-miterlimit="10" width="73.699" height="35"/>
	<rect x="507.599" y="33.32" fill="none" stroke="#010202" stroke-miterlimit="10" width="73.701" height="35"/>
	<rect x="433.899" y="68.32" fill="none" stroke="#010202" stroke-miterlimit="10" width="73.699" height="25"/>
	<rect x="507.599" y="68.32" fill="none" stroke="#010202" stroke-miterlimit="10" width="73.701" height="25"/>
	<rect x="433.899" y="93.32" fill="none" stroke="#010202" stroke-miterlimit="10" width="73.699" height="25"/>
	<rect x="507.599" y="93.32" fill="none" stroke="#010202" stroke-miterlimit="10" width="73.701" height="25"/>
	<rect x="433.899" y="118.32" fill="none" stroke="#010202" stroke-miterlimit="10" width="73.699" height="25"/>
	<rect x="507.599" y="118.32" fill="none" stroke="#010202" stroke-miterlimit="10" width="73.701" height="25"/>
	<rect x="433.899" y="143.32" fill="none" stroke="#010202" stroke-miterlimit="10" width="73.699" height="25"/>
	<rect x="507.599" y="143.32" fill="none" stroke="#010202" stroke-miterlimit="10" width="73.701" height="25"/>
	<rect x="581.3" y="33.32" fill="none" stroke="#010202" stroke-miterlimit="10" width="73.7" height="35"/>
	<rect x="581.3" y="68.32" fill="none" stroke="#010202" stroke-miterlimit="10" width="73.7" height="25"/>
	<rect x="581.3" y="93.32" fill="none" stroke="#010202" stroke-miterlimit="10" width="73.7" height="25"/>
	<rect x="581.3" y="118.32" fill="none" stroke="#010202" stroke-miterlimit="10" width="73.7" height="25"/>
	<rect x="581.3" y="143.32" fill="none" stroke="#010202" stroke-miterlimit="10" width="73.7" height="25"/>
	<rect x="27.999" y="73.488" fill="none" width="125.332" height="18"/>
	<text transform="matrix(1 0 0 1 27.999 81.2979)" font-family="'MyriadPro-Regular'" font-size="11">No participation</text>
	<rect x="27.999" y="101.488" fill="none" width="125.332" height="18"/>
	<text transform="matrix(1 0 0 1 27.999 109.2979)" font-family="'MyriadPro-Regular'" font-size="11">Indirect participation</text>
	<rect x="27.999" y="119.488" fill="none" width="125.332" height="26.666"/>
	<text transform="matrix(1 0 0 1 27.999 127.2979)"><tspan x="0" y="0" font-family="'MyriadPro-Regular'" font-size="11">Consultative</tspan><tspan x="0" y="13.2" font-family="'MyriadPro-Regular'" font-size="11">participation</tspan></text>
	<rect x="27.999" y="150.488" fill="none" width="125.332" height="18"/>
	<text transform="matrix(1 0 0 1 27.999 158.2979)" font-family="'MyriadPro-Regular'" font-size="11">Shared Control</text>
	<rect x="27.999" y="175.488" fill="none" width="125.332" height="18"/>
	<text transform="matrix(1 0 0 1 27.999 183.2979)" font-family="'MyriadPro-Regular'" font-size="11">Full Control</text>
	<rect x="139.097" y="168.32" fill="none" stroke="#010202" stroke-miterlimit="10" width="73.7" height="25"/>
	<rect x="212.797" y="168.32" fill="none" stroke="#010202" stroke-miterlimit="10" width="73.7" height="25"/>
	<rect x="286.497" y="168.32" fill="none" stroke="#010202" stroke-miterlimit="10" width="73.701" height="25"/>
	<rect x="360.198" y="168.32" fill="none" stroke="#010202" stroke-miterlimit="10" width="73.701" height="25"/>
	<rect x="433.899" y="168.32" fill="none" stroke="#010202" stroke-miterlimit="10" width="73.699" height="25"/>
	<rect x="507.599" y="168.32" fill="none" stroke="#010202" stroke-miterlimit="10" width="73.701" height="25"/>
	<rect x="581.3" y="168.32" fill="none" stroke="#010202" stroke-miterlimit="10" width="73.7" height="25"/>
	<text transform="matrix(1 0 0 1 139.0967 20.9375)" font-family="'MyriadPro-Regular'" font-size="19.5841">Owner</text>
	<circle cx="175.667" cy="130.82" r="5.75"/>
	<circle cx="249.647" cy="155.57" r="5.75"/>
	<circle cx="323.647" cy="155.57" r="5.75"/>
	<circle cx="397.647" cy="104.104" r="5.75"/>
	<circle cx="471.749" cy="79.57" r="5.75"/>
	<circle cx="545.749" cy="156.57" r="5.75"/>
	<circle cx="620.3" cy="81.57" r="5.75"/>
</g>
</svg>
