<?xml version="1.0" encoding="utf-8"?>
<!-- Generator: Adobe Illustrator 16.0.0, SVG Export Plug-In . SVG Version: 6.00 Build 0)  -->
<!DOCTYPE svg PUBLIC "-//W3C//DTD SVG 1.1//EN" "http://www.w3.org/Graphics/SVG/1.1/DTD/svg11.dtd">
<svg version="1.1" xmlns="http://www.w3.org/2000/svg" xmlns:xlink="http://www.w3.org/1999/xlink" x="0px" y="0px"
	 width="727.464px" height="203.102px" viewBox="0 0 727.464 203.102" enable-background="new 0 0 727.464 203.102"
	 xml:space="preserve">
<g id="Livello_1" display="none">
</g>
<g id="Livello_2">
	<rect x="139.097" y="34.237" fill="none" stroke="#010202" stroke-miterlimit="10" width="73.7" height="35"/>
	<rect x="212.797" y="34.237" fill="none" stroke="#010202" stroke-miterlimit="10" width="73.7" height="35"/>
	<rect x="139.097" y="69.237" fill="none" stroke="#010202" stroke-miterlimit="10" width="73.7" height="25"/>
	<rect x="212.797" y="69.237" fill="none" stroke="#010202" stroke-miterlimit="10" width="73.7" height="25"/>
	<rect x="139.097" y="94.237" fill="none" stroke="#010202" stroke-miterlimit="10" width="73.7" height="25"/>
	<rect x="212.797" y="94.237" fill="none" stroke="#010202" stroke-miterlimit="10" width="73.7" height="25"/>
	<rect x="139.097" y="119.237" fill="none" stroke="#010202" stroke-miterlimit="10" width="73.7" height="25"/>
	<rect x="212.797" y="119.237" fill="none" stroke="#010202" stroke-miterlimit="10" width="73.7" height="25"/>
	<rect x="139.097" y="144.237" fill="none" stroke="#010202" stroke-miterlimit="10" width="73.7" height="25"/>
	<rect x="212.797" y="144.237" fill="none" stroke="#010202" stroke-miterlimit="10" width="73.7" height="25"/>
	<text transform="matrix(1 0 0 1 152.4219 54.6357)" fill="#010202" font-family="'MyriadPro-Regular'" font-size="11">Research</text>
	<text transform="matrix(1 0 0 1 229.332 54.6357)" fill="#010202" font-family="'MyriadPro-Regular'" font-size="11">Ideation</text>
	<text transform="matrix(1 0 0 1 292.96 54.6357)" fill="#010202" font-family="'MyriadPro-Regular'" font-size="11">Prototyping</text>
	<text transform="matrix(1.0981 0 0 1 377.0762 54.6357)" fill="#010202" font-family="'MyriadPro-Regular'" font-size="11">Testing</text>
	<text transform="matrix(1.0006 0 0 1 513.5967 55.2373)" fill="#010202" font-family="'MyriadPro-Regular'" font-size="11">Development</text>
	<text transform="matrix(1.0006 0 0 1 453.209 55.2373)" fill="#010202" font-family="'MyriadPro-Regular'" font-size="11">Release</text>
	<text transform="matrix(1.0006 0 0 1 585.6582 56.4551)" fill="#010202" font-family="'MyriadPro-Regular'" font-size="11">User Feedback</text>
	<rect x="286.497" y="34.237" fill="none" stroke="#010202" stroke-miterlimit="10" width="73.701" height="35"/>
	<rect x="360.198" y="34.237" fill="none" stroke="#010202" stroke-miterlimit="10" width="73.701" height="35"/>
	<rect x="286.497" y="69.237" fill="none" stroke="#010202" stroke-miterlimit="10" width="73.701" height="25"/>
	<rect x="360.198" y="69.237" fill="none" stroke="#010202" stroke-miterlimit="10" width="73.701" height="25"/>
	<rect x="286.497" y="94.237" fill="none" stroke="#010202" stroke-miterlimit="10" width="73.701" height="25"/>
	<rect x="360.198" y="94.237" fill="none" stroke="#010202" stroke-miterlimit="10" width="73.701" height="25"/>
	<rect x="286.497" y="119.237" fill="none" stroke="#010202" stroke-miterlimit="10" width="73.701" height="25"/>
	<rect x="360.198" y="119.237" fill="none" stroke="#010202" stroke-miterlimit="10" width="73.701" height="25"/>
	<rect x="286.497" y="144.237" fill="none" stroke="#010202" stroke-miterlimit="10" width="73.701" height="25"/>
	<rect x="360.198" y="144.237" fill="none" stroke="#010202" stroke-miterlimit="10" width="73.701" height="25"/>
	<rect x="433.899" y="34.237" fill="none" stroke="#010202" stroke-miterlimit="10" width="73.699" height="35"/>
	<rect x="507.599" y="34.237" fill="none" stroke="#010202" stroke-miterlimit="10" width="73.701" height="35"/>
	<rect x="433.899" y="69.237" fill="none" stroke="#010202" stroke-miterlimit="10" width="73.699" height="25"/>
	<rect x="507.599" y="69.237" fill="none" stroke="#010202" stroke-miterlimit="10" width="73.701" height="25"/>
	<rect x="433.899" y="94.237" fill="none" stroke="#010202" stroke-miterlimit="10" width="73.699" height="25"/>
	<rect x="507.599" y="94.237" fill="none" stroke="#010202" stroke-miterlimit="10" width="73.701" height="25"/>
	<rect x="433.899" y="119.237" fill="none" stroke="#010202" stroke-miterlimit="10" width="73.699" height="25"/>
	<rect x="507.599" y="119.237" fill="none" stroke="#010202" stroke-miterlimit="10" width="73.701" height="25"/>
	<rect x="433.899" y="144.237" fill="none" stroke="#010202" stroke-miterlimit="10" width="73.699" height="25"/>
	<rect x="507.599" y="144.237" fill="none" stroke="#010202" stroke-miterlimit="10" width="73.701" height="25"/>
	<rect x="581.3" y="34.237" fill="none" stroke="#010202" stroke-miterlimit="10" width="73.7" height="35"/>
	<rect x="581.3" y="69.237" fill="none" stroke="#010202" stroke-miterlimit="10" width="73.7" height="25"/>
	<rect x="581.3" y="94.237" fill="none" stroke="#010202" stroke-miterlimit="10" width="73.7" height="25"/>
	<rect x="581.3" y="119.237" fill="none" stroke="#010202" stroke-miterlimit="10" width="73.7" height="25"/>
	<rect x="581.3" y="144.237" fill="none" stroke="#010202" stroke-miterlimit="10" width="73.7" height="25"/>
	<rect x="27.999" y="74.405" fill="none" width="125.332" height="18"/>
	<text transform="matrix(1 0 0 1 27.999 82.2148)" font-family="'MyriadPro-Regular'" font-size="11">No participation</text>
	<rect x="27.999" y="102.405" fill="none" width="125.332" height="18"/>
	<text transform="matrix(1 0 0 1 27.999 110.2148)" font-family="'MyriadPro-Regular'" font-size="11">Indirect participation</text>
	<rect x="27.999" y="120.405" fill="none" width="125.332" height="26.666"/>
	<text transform="matrix(1 0 0 1 27.999 128.2148)"><tspan x="0" y="0" font-family="'MyriadPro-Regular'" font-size="11">Consultative</tspan><tspan x="0" y="13.2" font-family="'MyriadPro-Regular'" font-size="11">participation</tspan></text>
	<rect x="27.999" y="151.405" fill="none" width="125.332" height="18"/>
	<text transform="matrix(1 0 0 1 27.999 159.2148)" font-family="'MyriadPro-Regular'" font-size="11">Shared Control</text>
	<rect x="27.999" y="176.405" fill="none" width="125.332" height="18"/>
	<text transform="matrix(1 0 0 1 27.999 184.2148)" font-family="'MyriadPro-Regular'" font-size="11">Full Control</text>
	<rect x="139.097" y="169.237" fill="none" stroke="#010202" stroke-miterlimit="10" width="73.7" height="25"/>
	<rect x="212.797" y="169.237" fill="none" stroke="#010202" stroke-miterlimit="10" width="73.7" height="25"/>
	<rect x="286.497" y="169.237" fill="none" stroke="#010202" stroke-miterlimit="10" width="73.701" height="25"/>
	<rect x="360.198" y="169.237" fill="none" stroke="#010202" stroke-miterlimit="10" width="73.701" height="25"/>
	<rect x="433.899" y="169.237" fill="none" stroke="#010202" stroke-miterlimit="10" width="73.699" height="25"/>
	<rect x="507.599" y="169.237" fill="none" stroke="#010202" stroke-miterlimit="10" width="73.701" height="25"/>
	<rect x="581.3" y="169.237" fill="none" stroke="#010202" stroke-miterlimit="10" width="73.7" height="25"/>
	<text transform="matrix(1 0 0 1 139.0967 21.8545)" font-family="'MyriadPro-Regular'" font-size="19.5841">Designer</text>
	<circle cx="175.667" cy="156.487" r="5.75"/>
	<circle cx="249.647" cy="156.487" r="5.75"/>
	<circle cx="323.647" cy="156.487" r="5.75"/>
	<circle cx="397.647" cy="105.021" r="5.75"/>
	<circle cx="471.749" cy="80.487" r="5.75"/>
	<circle cx="545.749" cy="132.487" r="5.75"/>
	<circle cx="620.3" cy="82.487" r="5.75"/>
</g>
</svg>
