<?xml version="1.0" encoding="utf-8"?>
<!-- Generator: Adobe Illustrator 16.0.0, SVG Export Plug-In . SVG Version: 6.00 Build 0)  -->
<!DOCTYPE svg PUBLIC "-//W3C//DTD SVG 1.1//EN" "http://www.w3.org/Graphics/SVG/1.1/DTD/svg11.dtd">
<svg version="1.1" id="Livello_1" xmlns="http://www.w3.org/2000/svg" xmlns:xlink="http://www.w3.org/1999/xlink" x="0px" y="0px"
	 width="297.232px" height="496.232px" viewBox="734 558 297.232 496.232" enable-background="new 734 558 297.232 496.232"
	 xml:space="preserve">
<text transform="matrix(1 0 0 1 17.6218 21.1875)" font-family="'Helvetica'" font-size="12">name of the activity: Research</text>
<text transform="matrix(1 0 0 1 17.6218 49.9883)" font-family="'Helvetica'" font-size="12">subject:</text>
<text transform="matrix(1 0 0 1 62.6218 49.9883)" font-family="'Helvetica'" font-size="12">Designer and Owner. </text>
<text transform="matrix(1 0 0 1 17.6218 78.7881)" enable-background="new    "><tspan x="0" y="0" font-family="'Helvetica'" font-size="12"> </tspan><tspan x="3.334" y="0" font-family="'Helvetica'" font-size="12" letter-spacing="29">	</tspan></text>
<text transform="matrix(1 0 0 1 17.6218 78.7881)" font-family="'Helvetica'" font-size="12">object:</text>
<text transform="matrix(1 0 0 1 58.6218 78.7881)" enable-background="new    "><tspan x="0" y="0" font-family="'Helvetica'" font-size="12">Investigation, Marketing Research, </tspan><tspan x="0" y="14.4" font-family="'Helvetica'" font-size="12">Sketches, Desgin Research, Tecnology </tspan><tspan x="0" y="28.8" font-family="'Helvetica'" font-size="12">research.  </tspan><tspan x="56.689" y="28.8" font-family="'Helvetica'" font-size="12" letter-spacing="11">	</tspan></text>
<text transform="matrix(1 0 0 1 17.6218 136.3877)" font-family="'Helvetica'" font-size="12">Outome:</text>
<text transform="matrix(1 0 0 1 66.6218 136.3877)" enable-background="new    "><tspan x="0" y="0" font-family="'Helvetica'" font-size="12">Information that would be used for the</tspan><tspan x="0" y="14.4" font-family="'Helvetica'" font-size="12">ideation of the product.  </tspan></text>
<text transform="matrix(1 0 0 1 17.6218 179.5879)" font-family="'Helvetica'" font-size="12">Mediating Artifacts:</text>
<text transform="matrix(1 0 0 1 17.6218 233.1875)" font-family="'Helvetica'" font-size="12">Rules:</text>
<text transform="matrix(1 0 0 1 58.6218 233.1875)" font-family="'Helvetica'" font-size="12">Creative Commons.</text>
<text transform="matrix(1 0 0 1 17.6218 265.9883)" font-family="'Helvetica'" font-size="12">Community:</text>
<text transform="matrix(1 0 0 1 17.6218 294.7881)" font-family="'Helvetica'" font-size="12">Roles:</text>
<text transform="matrix(1 0 0 1 58.6218 294.7881)" font-family="'Helvetica'" font-size="12">Owners and Design Development Team</text>
<text transform="matrix(1 0 0 1 86.9998 265.9883)" font-family="'Helvetica'" font-size="12">Github.</text>
<text transform="matrix(1 0 0 1 17.6218 34.3887)" font-family="'Helvetica'" font-size="11">  </text>
<text transform="matrix(1 0 0 1 379.738 21.1875)" font-family="'Helvetica'" font-size="12">name of the actIvity: Ideation</text>
<text transform="matrix(1 0 0 1 379.738 49.9883)" font-family="'Helvetica'" font-size="12">subject:</text>
<text transform="matrix(1 0 0 1 424.738 49.9883)" font-family="'Helvetica'" font-size="12">Designer and Owner. </text>
<text transform="matrix(1 0 0 1 379.738 78.7881)" enable-background="new    "><tspan x="0" y="0" font-family="'Helvetica'" font-size="12"> </tspan><tspan x="3.334" y="0" font-family="'Helvetica'" font-size="12" letter-spacing="29">	</tspan></text>
<text transform="matrix(1 0 0 1 379.738 78.7881)" font-family="'Helvetica'" font-size="12">Object:</text>
<text transform="matrix(1 0 0 1 420.738 78.7881)" enable-background="new    "><tspan x="0" y="0" font-family="'Helvetica'" font-size="12">Sketches, moodboard.  </tspan><tspan x="126.738" y="0" font-family="'Helvetica'" font-size="12" letter-spacing="13">	</tspan></text>
<text transform="matrix(1 0 0 1 379.738 136.3877)" font-family="'Helvetica'" font-size="12">Outome:</text>
<text transform="matrix(1 0 0 1 428.738 136.3877)" font-family="'Helvetica'" font-size="12">A model, and sketch to be prototyped.  </text>
<text transform="matrix(1 0 0 1 379.738 179.5879)" font-family="'Helvetica'" font-size="12">Mediating Artifacts:</text>
<text transform="matrix(1 0 0 1 379.738 233.1875)" font-family="'Helvetica'" font-size="12">Rules:</text>
<text transform="matrix(1 0 0 1 420.738 233.1875)" font-family="'Helvetica'" font-size="12">Creative Commons.</text>
<text transform="matrix(1 0 0 1 379.738 265.9883)" font-family="'Helvetica'" font-size="12">Community:</text>
<text transform="matrix(1 0 0 1 379.738 294.7881)" font-family="'Helvetica'" font-size="12">Roles:</text>
<text transform="matrix(1 0 0 1 420.738 294.7881)" font-family="'Helvetica'" font-size="12">Owners and Design Development Team</text>
<text transform="matrix(1 0 0 1 449.116 265.9883)" font-family="'Helvetica'" font-size="12">Github.</text>
<text transform="matrix(1 0 0 1 379.738 34.3887)" font-family="'Helvetica'" font-size="11">  </text>
<text transform="matrix(1 0 0 1 121.6218 179.5879)" font-family="'Helvetica'" font-size="12">Reseach materials.  </text>
<text transform="matrix(1 0 0 1 487.738 179.5879)" font-family="'Helvetica'" font-size="12">paper and stationary material.  </text>
<text transform="matrix(1 0 0 1 751.738 21.1875)" font-family="'Helvetica'" font-size="12">name of the actIvity: Prototype</text>
<text transform="matrix(1 0 0 1 751.738 49.9883)" font-family="'Helvetica'" font-size="12">subject:</text>
<text transform="matrix(1 0 0 1 796.738 49.9883)" font-family="'Helvetica'" font-size="12">Designer and Software Engineer </text>
<text transform="matrix(1 0 0 1 751.738 78.7881)" enable-background="new    "><tspan x="0" y="0" font-family="'Helvetica'" font-size="12"> </tspan><tspan x="3.334" y="0" font-family="'Helvetica'" font-size="12" letter-spacing="29">	</tspan></text>
<text transform="matrix(1 0 0 1 751.738 78.7881)" font-family="'Helvetica'" font-size="12">Object:</text>
<text transform="matrix(1 0 0 1 792.738 78.7881)" font-family="'Helvetica'" font-size="12">Prototype, modeling, scketches. </text>
<text transform="matrix(1 0 0 1 751.738 136.3877)" font-family="'Helvetica'" font-size="12">Outome:</text>
<text transform="matrix(1 0 0 1 800.738 136.3877)" enable-background="new    "><tspan x="0" y="0" font-family="'Helvetica'" font-size="12">a prototype that can be tested and used</tspan><tspan x="0" y="14.4" font-family="'Helvetica'" font-size="12">to visualize different parts of the app.  </tspan></text>
<text transform="matrix(1 0 0 1 751.738 179.5879)" font-family="'Helvetica'" font-size="12">Mediating Artifacts:</text>
<text transform="matrix(1 0 0 1 751.738 233.1875)" font-family="'Helvetica'" font-size="12">Rules:</text>
<text transform="matrix(1 0 0 1 792.738 233.1875)" font-family="'Helvetica'" font-size="12">Creative Commons.</text>
<text transform="matrix(1 0 0 1 751.738 265.9883)" font-family="'Helvetica'" font-size="12">Community:</text>
<text transform="matrix(1 0 0 1 751.738 294.7881)" font-family="'Helvetica'" font-size="12">Roles:</text>
<text transform="matrix(1 0 0 1 792.738 294.7881)" font-family="'Helvetica'" font-size="12">Development Team</text>
<text transform="matrix(1 0 0 1 821.116 265.9883)" font-family="'Helvetica'" font-size="12">Github.</text>
<text transform="matrix(1 0 0 1 751.738 34.3887)" font-family="'Helvetica'" font-size="11">  </text>
<text transform="matrix(1 0 0 1 859.738 179.5879)" enable-background="new    "><tspan x="0" y="0" font-family="'Helvetica'" font-size="12">HTML, Jquery, Css and </tspan><tspan x="0" y="14.4" font-family="'Helvetica'" font-size="12">Java Script </tspan></text>
<text transform="matrix(1 0 0 1 1129.738 21.1875)" font-family="'Helvetica'" font-size="12">name of the actIvity: Testing</text>
<text transform="matrix(1 0 0 1 1129.738 49.9883)" font-family="'Helvetica'" font-size="12">subject:</text>
<text transform="matrix(1 0 0 1 1174.738 49.9883)" font-family="'Helvetica'" font-size="12">Designer and Software Engineer </text>
<text transform="matrix(1 0 0 1 1129.738 78.7881)" enable-background="new    "><tspan x="0" y="0" font-family="'Helvetica'" font-size="12"> </tspan><tspan x="3.334" y="0" font-family="'Helvetica'" font-size="12" letter-spacing="29">	</tspan></text>
<text transform="matrix(1 0 0 1 1129.738 78.7881)" font-family="'Helvetica'" font-size="12">Object:</text>
<text transform="matrix(1 0 0 1 1170.738 78.7881)" font-family="'Helvetica'" font-size="12">Testing Method, inquiery, user reaserch</text>
<text transform="matrix(1 0 0 1 1125.738 109.3877)" font-family="'Helvetica'" font-size="12">Outome:</text>
<text transform="matrix(1 0 0 1 1174.738 109.3877)" enable-background="new    "><tspan x="0" y="0" font-family="'Helvetica'" font-size="12">Use the prototype or any iteration to </tspan><tspan x="0" y="14.4" font-family="'Helvetica'" font-size="12">figure out if the app is working. Can be test</tspan><tspan x="0" y="28.8" font-family="'Helvetica'" font-size="12">for user experience or functionality.</tspan></text>
<text transform="matrix(1 0 0 1 1129.738 179.5879)" font-family="'Helvetica'" font-size="12">Mediating Artifacts:</text>
<text transform="matrix(1 0 0 1 1129.738 233.1875)" font-family="'Helvetica'" font-size="12">Rules:</text>
<text transform="matrix(1 0 0 1 1170.738 233.1875)" font-family="'Helvetica'" font-size="12">Creative Commons.</text>
<text transform="matrix(1 0 0 1 1129.738 265.9883)" font-family="'Helvetica'" font-size="12">Community:</text>
<text transform="matrix(1 0 0 1 1129.738 294.7881)" font-family="'Helvetica'" font-size="12">Roles:</text>
<text transform="matrix(1 0 0 1 1170.738 294.7881)" font-family="'Helvetica'" font-size="12">Development Team</text>
<text transform="matrix(1 0 0 1 1199.116 265.9883)" font-family="'Helvetica'" font-size="12">Github.</text>
<text transform="matrix(1 0 0 1 1129.738 34.3887)" font-family="'Helvetica'" font-size="11">  </text>
<text transform="matrix(1 0 0 1 1237.738 179.5879)" enable-background="new    "><tspan x="0" y="0" font-family="'Helvetica'" font-size="12">HTML, Jquery, Css, JavaScript</tspan><tspan x="0" y="14.4" font-family="'Helvetica'" font-size="12">inquiery, user test.  </tspan></text>
<text transform="matrix(1 0 0 1 1129.738 21.1875)" font-family="'Helvetica'" font-size="12">name of the actIvity: Testing</text>
<text transform="matrix(1 0 0 1 1129.738 49.9883)" font-family="'Helvetica'" font-size="12">subject:</text>
<text transform="matrix(1 0 0 1 1174.738 49.9883)" font-family="'Helvetica'" font-size="12">Designer and Software Engineer </text>
<text transform="matrix(1 0 0 1 1129.738 78.7881)" enable-background="new    "><tspan x="0" y="0" font-family="'Helvetica'" font-size="12"> </tspan><tspan x="3.334" y="0" font-family="'Helvetica'" font-size="12" letter-spacing="29">	</tspan></text>
<text transform="matrix(1 0 0 1 1129.738 78.7881)" font-family="'Helvetica'" font-size="12">Object:</text>
<text transform="matrix(1 0 0 1 1170.738 78.7881)" font-family="'Helvetica'" font-size="12">Testing Method, inquiery, user reaserch</text>
<text transform="matrix(1 0 0 1 1125.738 109.3877)" font-family="'Helvetica'" font-size="12">Outome:</text>
<text transform="matrix(1 0 0 1 1174.738 109.3877)" enable-background="new    "><tspan x="0" y="0" font-family="'Helvetica'" font-size="12">Use the prototype or any iteration to </tspan><tspan x="0" y="14.4" font-family="'Helvetica'" font-size="12">figure out if the app is working. Can be test</tspan><tspan x="0" y="28.8" font-family="'Helvetica'" font-size="12">for user experience or functionality.</tspan></text>
<text transform="matrix(1 0 0 1 1129.738 179.5879)" font-family="'Helvetica'" font-size="12">Mediating Artifacts:</text>
<text transform="matrix(1 0 0 1 1129.738 233.1875)" font-family="'Helvetica'" font-size="12">Rules:</text>
<text transform="matrix(1 0 0 1 1170.738 233.1875)" font-family="'Helvetica'" font-size="12">Creative Commons.</text>
<text transform="matrix(1 0 0 1 1129.738 265.9883)" font-family="'Helvetica'" font-size="12">Community:</text>
<text transform="matrix(1 0 0 1 1129.738 294.7881)" font-family="'Helvetica'" font-size="12">Roles:</text>
<text transform="matrix(1 0 0 1 1170.738 294.7881)" font-family="'Helvetica'" font-size="12">Development Team</text>
<text transform="matrix(1 0 0 1 1199.116 265.9883)" font-family="'Helvetica'" font-size="12">Github.</text>
<text transform="matrix(1 0 0 1 1129.738 34.3887)" font-family="'Helvetica'" font-size="11">  </text>
<text transform="matrix(1 0 0 1 1237.738 179.5879)" enable-background="new    "><tspan x="0" y="0" font-family="'Helvetica'" font-size="12">HTML, Jquery, Css, JavaScript</tspan><tspan x="0" y="14.4" font-family="'Helvetica'" font-size="12">inquiery, user test.  </tspan></text>
<text transform="matrix(1 0 0 1 10.738 579.9883)" font-family="'Helvetica'" font-size="12">name of the actIvity: Development</text>
<text transform="matrix(1 0 0 1 10.738 608.7891)" font-family="'Helvetica'" font-size="12">subject:</text>
<text transform="matrix(1 0 0 1 55.738 608.7891)" font-family="'Helvetica'" font-size="12">Designer and Software Engineer </text>
<text transform="matrix(1 0 0 1 10.738 637.5889)" enable-background="new    "><tspan x="0" y="0" font-family="'Helvetica'" font-size="12"> </tspan><tspan x="3.334" y="0" font-family="'Helvetica'" font-size="12" letter-spacing="29">	</tspan></text>
<text transform="matrix(1 0 0 1 10.738 637.5889)" font-family="'Helvetica'" font-size="12">Object:</text>
<text transform="matrix(1 0 0 1 51.738 637.5889)" font-family="'Helvetica'" font-size="12">Development of the application </text>
<text transform="matrix(1 0 0 1 6.738 668.1885)" font-family="'Helvetica'" font-size="12">Outome:</text>
<text transform="matrix(1 0 0 1 55.738 668.1885)" enable-background="new    "><tspan x="0" y="0" font-family="'Helvetica'" font-size="12">A final version of the product ready to be </tspan><tspan x="0" y="14.4" font-family="'Helvetica'" font-size="12">released</tspan></text>
<text transform="matrix(1 0 0 1 10.738 738.3887)" font-family="'Helvetica'" font-size="12">Mediating Artifacts:</text>
<text transform="matrix(1 0 0 1 10.738 791.9883)" font-family="'Helvetica'" font-size="12">Rules:</text>
<text transform="matrix(1 0 0 1 51.738 791.9883)" font-family="'Helvetica'" font-size="12">Creative Commons.</text>
<text transform="matrix(1 0 0 1 10.738 824.7891)" font-family="'Helvetica'" font-size="12">Community:</text>
<text transform="matrix(1 0 0 1 10.738 853.5889)" font-family="'Helvetica'" font-size="12">Roles:</text>
<text transform="matrix(1 0 0 1 51.738 853.5889)" font-family="'Helvetica'" font-size="12">Development Team</text>
<text transform="matrix(1 0 0 1 80.116 824.7891)" font-family="'Helvetica'" font-size="12">Github.</text>
<text transform="matrix(1 0 0 1 10.738 593.1895)" font-family="'Helvetica'" font-size="11">  </text>
<text transform="matrix(1 0 0 1 118.738 738.3887)" font-family="'Helvetica'" font-size="12">HTML, Jquery, Css, JavaScript</text>
<text transform="matrix(1 0 0 1 372.738 579.9883)" font-family="'Helvetica'" font-size="12">name of the actIvity: Release</text>
<text transform="matrix(1 0 0 1 372.738 608.7891)" font-family="'Helvetica'" font-size="12">subject:</text>
<text transform="matrix(1 0 0 1 417.738 608.7891)" font-family="'Helvetica'" font-size="12">Marketing,</text>
<text transform="matrix(1 0 0 1 372.738 637.5889)" enable-background="new    "><tspan x="0" y="0" font-family="'Helvetica'" font-size="12"> </tspan><tspan x="3.334" y="0" font-family="'Helvetica'" font-size="12" letter-spacing="29">	</tspan></text>
<text transform="matrix(1 0 0 1 372.738 637.5889)" font-family="'Helvetica'" font-size="12">Object:</text>
<text transform="matrix(1 0 0 1 413.738 637.5889)" font-family="'Helvetica'" font-size="12">Owner and Managment team  </text>
<text transform="matrix(1 0 0 1 368.738 668.1885)" font-family="'Helvetica'" font-size="12">Outome:</text>
<text transform="matrix(1 0 0 1 417.738 668.1885)" enable-background="new    "><tspan x="0" y="0" font-family="'Helvetica'" font-size="12">A final version  that is sent to the market and </tspan><tspan x="0" y="14.4" font-family="'Helvetica'" font-size="12">it has to be promoted.</tspan></text>
<text transform="matrix(1 0 0 1 372.738 738.3887)" font-family="'Helvetica'" font-size="12">Mediating Artifacts:</text>
<text transform="matrix(1 0 0 1 372.738 791.9883)" font-family="'Helvetica'" font-size="12">Rules:</text>
<text transform="matrix(1 0 0 1 413.738 791.9883)" font-family="'Helvetica'" font-size="12">Creative Commons.</text>
<text transform="matrix(1 0 0 1 372.738 824.7891)" font-family="'Helvetica'" font-size="12">Community:</text>
<text transform="matrix(1 0 0 1 372.738 853.5889)" font-family="'Helvetica'" font-size="12">Roles:</text>
<text transform="matrix(1 0 0 1 413.738 853.5889)" font-family="'Helvetica'" font-size="12">Owner and Managment Team. </text>
<text transform="matrix(1 0 0 1 442.116 824.7891)" font-family="'Helvetica'" font-size="12">Github.</text>
<text transform="matrix(1 0 0 1 372.738 593.1895)" font-family="'Helvetica'" font-size="11">  </text>
<text transform="matrix(1 0 0 1 480.738 738.3887)" font-family="'Helvetica'" font-size="12">Marketing tools, and Publicity</text>
<text transform="matrix(1 0 0 1 744.738 579.9883)" font-family="'Helvetica'" font-size="12">name of the actIvity: User Feedback</text>
<text transform="matrix(1 0 0 1 744.738 608.7891)" font-family="'Helvetica'" font-size="12">subject:</text>
<text transform="matrix(1 0 0 1 789.738 608.7891)" font-family="'Helvetica'" font-size="12">User </text>
<text transform="matrix(1 0 0 1 744.738 637.5889)" enable-background="new    "><tspan x="0" y="0" font-family="'Helvetica'" font-size="12"> </tspan><tspan x="3.334" y="0" font-family="'Helvetica'" font-size="12" letter-spacing="29">	</tspan></text>
<text transform="matrix(1 0 0 1 744.738 637.5889)" font-family="'Helvetica'" font-size="12">Object:</text>
<text transform="matrix(1 0 0 1 785.738 637.5889)" font-family="'Helvetica'" font-size="12">User testing and feedback</text>
<text transform="matrix(1 0 0 1 740.738 668.1885)" font-family="'Helvetica'" font-size="12">Outome:</text>
<text transform="matrix(1 0 0 1 789.738 668.1885)" enable-background="new    "><tspan x="0" y="0" font-family="'Helvetica'" font-size="12">User gives feedback about his experience</tspan><tspan x="0" y="14.4" font-family="'Helvetica'" font-size="12">to creat iterations on the application.</tspan></text>
<text transform="matrix(1 0 0 1 744.738 738.3887)" font-family="'Helvetica'" font-size="12">Mediating Artifacts:</text>
<text transform="matrix(1 0 0 1 744.738 791.9883)" font-family="'Helvetica'" font-size="12">Rules:</text>
<text transform="matrix(1 0 0 1 785.738 791.9883)" font-family="'Helvetica'" font-size="12">Creative Commons.</text>
<text transform="matrix(1 0 0 1 744.738 824.7891)" font-family="'Helvetica'" font-size="12">Community:</text>
<text transform="matrix(1 0 0 1 744.738 853.5889)" font-family="'Helvetica'" font-size="12">Roles:</text>
<text transform="matrix(1 0 0 1 785.738 853.5889)" font-family="'Helvetica'" font-size="12">Owner and Managment Team. </text>
<text transform="matrix(1 0 0 1 814.116 824.7891)" font-family="'Helvetica'" font-size="12">Github.</text>
<text transform="matrix(1 0 0 1 744.738 593.1895)" font-family="'Helvetica'" font-size="11">  </text>
<text transform="matrix(1 0 0 1 852.738 738.3887)" font-family="'Helvetica'" font-size="12">Inquiery and feedback services</text>
</svg>
