<?xml version="1.0" encoding="utf-8"?>
<!-- Generator: Adobe Illustrator 16.0.0, SVG Export Plug-In . SVG Version: 6.00 Build 0)  -->
<!DOCTYPE svg PUBLIC "-//W3C//DTD SVG 1.1//EN" "http://www.w3.org/Graphics/SVG/1.1/DTD/svg11.dtd">
<svg version="1.1" id="Livello_2" xmlns="http://www.w3.org/2000/svg" xmlns:xlink="http://www.w3.org/1999/xlink" x="0px" y="0px"
	 width="1409.93px" height="796.46px" viewBox="0 0 1409.93 796.46" enable-background="new 0 0 1409.93 796.46"
	 xml:space="preserve">
<line fill="none" stroke="#000000" stroke-miterlimit="10" x1="84.507" y1="229.919" x2="274.414" y2="229.919"/>
<line fill="none" stroke="#000000" stroke-miterlimit="10" x1="79.483" y1="219.537" x2="173.264" y2="106.665"/>
<line fill="none" stroke="#000000" stroke-miterlimit="10" x1="190.165" y1="106.665" x2="281.448" y2="219.537"/>
<line fill="none" stroke="#000000" stroke-miterlimit="10" x1="273.975" y1="159.249" x2="127.634" y2="159.249"/>
<line fill="none" stroke="#000000" stroke-miterlimit="10" x1="180.925" y1="110.348" x2="180.925" y2="217.861"/>
<line fill="none" stroke="#000000" stroke-miterlimit="10" x1="84.507" y1="224.226" x2="235.806" y2="160.773"/>
<line fill="none" stroke="#000000" stroke-miterlimit="10" x1="127.634" y1="160.773" x2="276.424" y2="224.226"/>
<line fill="none" stroke="#000000" stroke-miterlimit="10" x1="127.634" y1="163.1" x2="173.264" y2="222.216"/>
<line fill="none" stroke="#000000" stroke-miterlimit="10" x1="190.165" y1="222.216" x2="235.806" y2="163.1"/>
<circle fill="#FFFFFF" stroke="#000000" stroke-miterlimit="10" cx="181.679" cy="98.25" r="12.099"/>
<circle fill="#FFFFFF" stroke="#000000" stroke-miterlimit="10" cx="238.992" cy="159.249" r="12.098"/>
<circle fill="#FFFFFF" stroke="#000000" stroke-miterlimit="10" cx="286.073" cy="159.249" r="12.098"/>
<circle fill="#FFFFFF" stroke="#000000" stroke-miterlimit="10" cx="127.634" cy="159.249" r="12.098"/>
<circle fill="#FFFFFF" stroke="#000000" stroke-miterlimit="10" cx="181.679" cy="229.919" r="12.099"/>
<circle fill="#FFFFFF" stroke="#000000" stroke-miterlimit="10" cx="286.512" cy="229.919" r="12.098"/>
<circle fill="#FFFFFF" stroke="#000000" stroke-miterlimit="10" cx="73.788" cy="229.919" r="12.098"/>
<rect x="124.195" y="155.062" fill="none" width="15.743" height="10.384"/>
<text transform="matrix(1 0 0 1 124.1953 162.9087)" font-family="'MyriadPro-Regular'" font-size="11.0528">1</text>
<rect x="235.979" y="154.728" fill="none" width="15.742" height="10.383"/>
<text transform="matrix(1 0 0 1 235.9785 162.5752)" font-family="'MyriadPro-Regular'" font-size="11.0528">2</text>
<rect x="283.309" y="154.728" fill="none" width="15.742" height="10.383"/>
<text transform="matrix(1 0 0 1 283.3081 162.5752)" font-family="'MyriadPro-Regular'" font-size="11.0528">3</text>
<rect x="178.204" y="93.561" fill="none" width="15.743" height="10.383"/>
<text transform="matrix(1 0 0 1 178.2041 101.4087)" font-family="'MyriadPro-Regular'" font-size="11.0528">4</text>
<rect x="178.706" y="225.732" fill="none" width="15.743" height="10.383"/>
<text transform="matrix(1 0 0 1 178.7061 233.5801)" font-family="'MyriadPro-Regular'" font-size="11.0528">6</text>
<rect x="283.872" y="225.23" fill="none" width="15.743" height="10.383"/>
<text transform="matrix(1 0 0 1 283.8726 233.0776)" font-family="'MyriadPro-Regular'" font-size="11.0528">7</text>
<rect x="70.606" y="225.23" fill="none" width="15.743" height="10.383"/>
<text transform="matrix(1 0 0 1 70.6064 233.0776)" font-family="'MyriadPro-Regular'" font-size="11.0528">5</text>
<path fill="#FFFFFF" stroke="#000000" stroke-miterlimit="10" d="M222.918,194.303c0,3.329-2.7,6.029-6.029,6.029h-70.423
	c-3.329,0-6.029-2.7-6.029-6.029v-3.606c0-3.33,2.7-6.029,6.029-6.029h70.423c3.329,0,6.029,2.699,6.029,6.029V194.303z"/>
<path fill="none" d="M220.14,195.972c0,0.877-1.21,1.588-2.704,1.588h-73.022c-1.493,0-2.704-0.711-2.704-1.588v-6.943
	c0-0.877,1.211-1.588,2.704-1.588h73.022c1.494,0,2.704,0.711,2.704,1.588V195.972z"/>
<text transform="matrix(1 0 0 1 158.3296 196)" font-family="'MyriadPro-Regular'" font-size="12.0576">Research</text>
<line fill="none" stroke="#000000" stroke-miterlimit="10" x1="388.202" y1="227.505" x2="574.215" y2="227.505"/>
<line fill="none" stroke="#000000" stroke-miterlimit="10" x1="383.281" y1="217.335" x2="475.139" y2="106.778"/>
<line fill="none" stroke="#000000" stroke-miterlimit="10" x1="491.693" y1="106.778" x2="581.104" y2="217.335"/>
<line fill="none" stroke="#000000" stroke-miterlimit="10" x1="573.784" y1="158.284" x2="430.444" y2="158.284"/>
<line fill="none" stroke="#000000" stroke-miterlimit="10" x1="482.642" y1="110.386" x2="482.642" y2="215.694"/>
<line fill="none" stroke="#000000" stroke-miterlimit="10" x1="388.202" y1="221.928" x2="536.398" y2="159.778"/>
<line fill="none" stroke="#000000" stroke-miterlimit="10" x1="430.444" y1="159.778" x2="576.184" y2="221.928"/>
<line fill="none" stroke="#000000" stroke-miterlimit="10" x1="430.444" y1="162.057" x2="475.139" y2="219.96"/>
<line fill="none" stroke="#000000" stroke-miterlimit="10" x1="491.693" y1="219.96" x2="536.398" y2="162.057"/>
<circle fill="#FFFFFF" stroke="#000000" stroke-miterlimit="10" cx="483.381" cy="98.536" r="11.85"/>
<circle fill="#FFFFFF" stroke="#000000" stroke-miterlimit="10" cx="539.52" cy="158.284" r="11.85"/>
<circle fill="#FFFFFF" stroke="#000000" stroke-miterlimit="10" cx="585.635" cy="158.284" r="11.85"/>
<circle fill="#FFFFFF" stroke="#000000" stroke-miterlimit="10" cx="430.444" cy="158.284" r="11.85"/>
<circle fill="#FFFFFF" stroke="#000000" stroke-miterlimit="10" cx="483.381" cy="227.505" r="11.85"/>
<circle fill="#FFFFFF" stroke="#000000" stroke-miterlimit="10" cx="586.065" cy="227.505" r="11.85"/>
<circle fill="#FFFFFF" stroke="#000000" stroke-miterlimit="10" cx="377.703" cy="227.505" r="11.85"/>
<rect x="427.077" y="154.183" fill="none" width="15.419" height="10.17"/>
<text transform="matrix(1 0 0 1 427.0762 161.8696)" font-family="'MyriadPro-Regular'" font-size="10.8261">1</text>
<rect x="536.567" y="153.856" fill="none" width="15.419" height="10.17"/>
<text transform="matrix(1 0 0 1 536.5669 161.543)" font-family="'MyriadPro-Regular'" font-size="10.8261">2</text>
<rect x="582.926" y="153.856" fill="none" width="15.42" height="10.17"/>
<text transform="matrix(1 0 0 1 582.9263 161.543)" font-family="'MyriadPro-Regular'" font-size="10.8261">3</text>
<rect x="479.977" y="93.943" fill="none" width="15.42" height="10.17"/>
<text transform="matrix(1 0 0 1 479.9766 101.6299)" font-family="'MyriadPro-Regular'" font-size="10.8261">4</text>
<rect x="480.469" y="223.405" fill="none" width="15.42" height="10.17"/>
<text transform="matrix(1 0 0 1 480.4692 231.0918)" font-family="'MyriadPro-Regular'" font-size="10.8261">6</text>
<rect x="583.479" y="222.913" fill="none" width="15.42" height="10.17"/>
<text transform="matrix(1 0 0 1 583.479 230.5996)" font-family="'MyriadPro-Regular'" font-size="10.8261">7</text>
<rect x="374.586" y="222.913" fill="none" width="15.421" height="10.17"/>
<text transform="matrix(1 0 0 1 374.5864 230.5996)" font-family="'MyriadPro-Regular'" font-size="10.8261">5</text>
<path fill="#FFFFFF" stroke="#000000" stroke-miterlimit="10" d="M523.775,192.619c0,3.262-2.644,5.905-5.906,5.905h-68.978
	c-3.261,0-5.905-2.644-5.905-5.905v-3.533c0-3.261,2.644-5.905,5.905-5.905h68.978c3.262,0,5.906,2.644,5.906,5.905V192.619z"/>
<path fill="none" d="M521.053,194.253c0,0.859-1.186,1.556-2.648,1.556H446.88c-1.462,0-2.649-0.696-2.649-1.556v-6.801
	c0-0.859,1.187-1.555,2.649-1.555h71.524c1.463,0,2.648,0.696,2.648,1.555V194.253z"/>
<text transform="matrix(1 0 0 1 463.8169 194.2827)" font-family="'MyriadPro-Regular'" font-size="11.8103">Idiation</text>
<line fill="none" stroke="#000000" stroke-miterlimit="10" x1="703.724" y1="224.931" x2="908.746" y2="224.931"/>
<line fill="none" stroke="#000000" stroke-miterlimit="10" x1="698.3" y1="213.723" x2="799.545" y2="91.866"/>
<line fill="none" stroke="#000000" stroke-miterlimit="10" x1="817.792" y1="91.866" x2="916.339" y2="213.723"/>
<line fill="none" stroke="#000000" stroke-miterlimit="10" x1="908.272" y1="148.636" x2="750.283" y2="148.636"/>
<line fill="none" stroke="#000000" stroke-miterlimit="10" x1="807.815" y1="95.843" x2="807.815" y2="211.914"/>
<line fill="none" stroke="#000000" stroke-miterlimit="10" x1="703.724" y1="218.785" x2="867.065" y2="150.282"/>
<line fill="none" stroke="#000000" stroke-miterlimit="10" x1="750.283" y1="150.282" x2="910.916" y2="218.785"/>
<line fill="none" stroke="#000000" stroke-miterlimit="10" x1="750.283" y1="152.793" x2="799.545" y2="216.615"/>
<line fill="none" stroke="#000000" stroke-miterlimit="10" x1="817.792" y1="216.615" x2="867.065" y2="152.793"/>
<circle fill="#FFFFFF" stroke="#000000" stroke-miterlimit="10" cx="808.629" cy="82.782" r="13.061"/>
<circle fill="#FFFFFF" stroke="#000000" stroke-miterlimit="10" cx="870.506" cy="148.636" r="13.062"/>
<circle fill="#FFFFFF" stroke="#000000" stroke-miterlimit="10" cx="921.333" cy="148.636" r="13.061"/>
<circle fill="#FFFFFF" stroke="#000000" stroke-miterlimit="10" cx="750.283" cy="148.636" r="13.062"/>
<circle fill="#FFFFFF" stroke="#000000" stroke-miterlimit="10" cx="808.629" cy="224.931" r="13.061"/>
<circle fill="#FFFFFF" stroke="#000000" stroke-miterlimit="10" cx="921.808" cy="224.931" r="13.062"/>
<circle fill="#FFFFFF" stroke="#000000" stroke-miterlimit="10" cx="692.152" cy="224.931" r="13.061"/>
<rect x="746.571" y="144.116" fill="none" width="16.995" height="11.21"/>
<text transform="matrix(1 0 0 1 746.5713 152.5884)" font-family="'MyriadPro-Regular'" font-size="11.9326">1</text>
<rect x="867.251" y="143.755" fill="none" width="16.995" height="11.21"/>
<text transform="matrix(1 0 0 1 867.251 152.228)" font-family="'MyriadPro-Regular'" font-size="11.9326">2</text>
<rect x="918.349" y="143.755" fill="none" width="16.994" height="11.21"/>
<text transform="matrix(1 0 0 1 918.3486 152.228)" font-family="'MyriadPro-Regular'" font-size="11.9326">3</text>
<rect x="804.878" y="77.72" fill="none" width="16.996" height="11.21"/>
<text transform="matrix(1 0 0 1 804.8779 86.1924)" font-family="'MyriadPro-Regular'" font-size="11.9326">4</text>
<rect x="805.42" y="220.412" fill="none" width="16.996" height="11.209"/>
<text transform="matrix(1 0 0 1 805.4209 228.8853)" font-family="'MyriadPro-Regular'" font-size="11.9326">6</text>
<rect x="918.957" y="219.87" fill="none" width="16.996" height="11.209"/>
<text transform="matrix(1 0 0 1 918.958 228.3428)" font-family="'MyriadPro-Regular'" font-size="11.9326">7</text>
<rect x="688.716" y="219.87" fill="none" width="16.996" height="11.209"/>
<text transform="matrix(1 0 0 1 688.7158 228.3428)" font-family="'MyriadPro-Regular'" font-size="11.9326">5</text>
<path fill="#FFFFFF" stroke="#000000" stroke-miterlimit="10" d="M853.151,186.48c0,3.595-2.914,6.509-6.508,6.509h-76.028
	c-3.595,0-6.509-2.914-6.509-6.509v-3.894c0-3.595,2.914-6.509,6.509-6.509h76.028c3.594,0,6.508,2.914,6.508,6.509V186.48z"/>
<path fill="none" d="M850.152,188.282c0,0.947-1.308,1.715-2.92,1.715h-78.833c-1.613,0-2.92-0.768-2.92-1.715v-7.496
	c0-0.947,1.307-1.715,2.92-1.715h78.833c1.612,0,2.92,0.768,2.92,1.715V188.282z"/>
<text transform="matrix(1 0 0 1 775.2275 188.314)" font-family="'MyriadPro-Regular'" font-size="13.0173">Prototyping</text>
<line fill="none" stroke="#000000" stroke-miterlimit="10" x1="1024.899" y1="234.59" x2="1243.921" y2="234.59"/>
<line fill="none" stroke="#000000" stroke-miterlimit="10" x1="1019.105" y1="223.686" x2="1127.264" y2="105.138"/>
<line fill="none" stroke="#000000" stroke-miterlimit="10" x1="1146.756" y1="105.138" x2="1252.032" y2="223.686"/>
<line fill="none" stroke="#000000" stroke-miterlimit="10" x1="1243.413" y1="160.366" x2="1074.639" y2="160.366"/>
<line fill="none" stroke="#000000" stroke-miterlimit="10" x1="1136.099" y1="109.006" x2="1136.099" y2="221.926"/>
<line fill="none" stroke="#000000" stroke-miterlimit="10" x1="1024.899" y1="228.611" x2="1199.394" y2="161.968"/>
<line fill="none" stroke="#000000" stroke-miterlimit="10" x1="1074.639" y1="161.968" x2="1246.238" y2="228.611"/>
<line fill="none" stroke="#000000" stroke-miterlimit="10" x1="1074.639" y1="164.411" x2="1127.264" y2="226.5"/>
<line fill="none" stroke="#000000" stroke-miterlimit="10" x1="1146.756" y1="226.5" x2="1199.394" y2="164.411"/>
<ellipse fill="#FFFFFF" stroke="#000000" stroke-miterlimit="10" cx="1136.968" cy="96.3" rx="13.954" ry="12.706"/>
<ellipse fill="#FFFFFF" stroke="#000000" stroke-miterlimit="10" cx="1203.068" cy="160.366" rx="13.953" ry="12.707"/>
<ellipse fill="#FFFFFF" stroke="#000000" stroke-miterlimit="10" cx="1257.366" cy="160.366" rx="13.953" ry="12.707"/>
<ellipse fill="#FFFFFF" stroke="#000000" stroke-miterlimit="10" cx="1074.638" cy="160.366" rx="13.953" ry="12.707"/>
<ellipse fill="#FFFFFF" stroke="#000000" stroke-miterlimit="10" cx="1136.968" cy="234.59" rx="13.954" ry="12.707"/>
<ellipse fill="#FFFFFF" stroke="#000000" stroke-miterlimit="10" cx="1257.874" cy="234.59" rx="13.953" ry="12.707"/>
<ellipse fill="#FFFFFF" stroke="#000000" stroke-miterlimit="10" cx="1012.538" cy="234.59" rx="13.953" ry="12.707"/>
<rect x="1070.673" y="155.968" fill="none" width="18.155" height="10.906"/>
<text transform="matrix(1.0981 0 0 1 1070.6729 164.2109)" font-family="'MyriadPro-Regular'" font-size="11.6086">1</text>
<rect x="1199.592" y="155.618" fill="none" width="18.155" height="10.906"/>
<text transform="matrix(1.0981 0 0 1 1199.5928 163.8608)" font-family="'MyriadPro-Regular'" font-size="11.6086">2</text>
<rect x="1254.177" y="155.618" fill="none" width="18.156" height="10.906"/>
<text transform="matrix(1.0981 0 0 1 1254.1777 163.8608)" font-family="'MyriadPro-Regular'" font-size="11.6086">3</text>
<rect x="1132.96" y="91.375" fill="none" width="18.157" height="10.905"/>
<text transform="matrix(1.0981 0 0 1 1132.96 99.6177)" font-family="'MyriadPro-Regular'" font-size="11.6086">4</text>
<rect x="1133.539" y="230.193" fill="none" width="18.157" height="10.905"/>
<text transform="matrix(1.0981 0 0 1 1133.5391 238.436)" font-family="'MyriadPro-Regular'" font-size="11.6086">6</text>
<rect x="1253.574" y="229.341" fill="none" width="18.913" height="12.474"/>
<text transform="matrix(1 0 0 1 1253.5742 238.7681)" font-family="'MyriadPro-Regular'" font-size="13.2783">7</text>
<rect x="1008.868" y="229.666" fill="none" width="18.156" height="10.905"/>
<text transform="matrix(1.0981 0 0 1 1008.8691 237.9087)" font-family="'MyriadPro-Regular'" font-size="11.6086">5</text>
<path fill="#FFFFFF" stroke="#000000" stroke-miterlimit="10" d="M1184.53,197.183c0,3.497-3.113,6.332-6.953,6.332h-81.219
	c-3.839,0-6.953-2.835-6.953-6.332v-3.788c0-3.498,3.114-6.332,6.953-6.332h81.219c3.84,0,6.953,2.834,6.953,6.332V197.183z"/>
<path fill="none" d="M1181.325,198.936c0,0.921-1.396,1.667-3.117,1.667h-84.217c-1.723,0-3.119-0.747-3.119-1.667v-7.292
	c0-0.921,1.396-1.668,3.119-1.668h84.217c1.721,0,3.117,0.747,3.117,1.668V198.936z"/>
<text transform="matrix(1.0981 0 0 1 1114.7324 198.9673)" font-family="'MyriadPro-Regular'" font-size="12.6639">Testing</text>
<line fill="none" stroke="#000000" stroke-miterlimit="10" x1="691.079" y1="470.116" x2="892.28" y2="470.116"/>
<line fill="none" stroke="#000000" stroke-miterlimit="10" x1="685.757" y1="459.122" x2="785.114" y2="339.604"/>
<line fill="none" stroke="#000000" stroke-miterlimit="10" x1="803.02" y1="339.604" x2="899.732" y2="459.122"/>
<line fill="none" stroke="#000000" stroke-miterlimit="10" x1="891.815" y1="395.285" x2="736.771" y2="395.285"/>
<line fill="none" stroke="#000000" stroke-miterlimit="10" x1="793.23" y1="343.505" x2="793.23" y2="457.349"/>
<line fill="none" stroke="#000000" stroke-miterlimit="10" x1="691.079" y1="464.088" x2="851.376" y2="396.899"/>
<line fill="none" stroke="#000000" stroke-miterlimit="10" x1="736.771" y1="396.899" x2="894.409" y2="464.088"/>
<line fill="none" stroke="#000000" stroke-miterlimit="10" x1="736.771" y1="399.363" x2="785.114" y2="461.96"/>
<line fill="none" stroke="#000000" stroke-miterlimit="10" x1="803.02" y1="461.96" x2="851.376" y2="399.363"/>
<ellipse fill="#FFFFFF" stroke="#000000" stroke-miterlimit="10" cx="794.03" cy="330.695" rx="12.818" ry="12.81"/>
<ellipse fill="#FFFFFF" stroke="#000000" stroke-miterlimit="10" cx="854.752" cy="395.285" rx="12.817" ry="12.811"/>
<ellipse fill="#FFFFFF" stroke="#000000" stroke-miterlimit="10" cx="904.633" cy="395.285" rx="12.818" ry="12.811"/>
<ellipse fill="#FFFFFF" stroke="#000000" stroke-miterlimit="10" cx="736.771" cy="395.285" rx="12.817" ry="12.811"/>
<ellipse fill="#FFFFFF" stroke="#000000" stroke-miterlimit="10" cx="794.03" cy="470.116" rx="12.818" ry="12.811"/>
<ellipse fill="#FFFFFF" stroke="#000000" stroke-miterlimit="10" cx="905.098" cy="470.116" rx="12.818" ry="12.811"/>
<ellipse fill="#FFFFFF" stroke="#000000" stroke-miterlimit="10" cx="679.723" cy="470.116" rx="12.818" ry="12.811"/>
<rect x="733.128" y="390.851" fill="none" width="16.679" height="10.996"/>
<text transform="matrix(1.0006 0 0 1 733.1289 399.1606)" font-family="'MyriadPro-Regular'" font-size="11.7035">1</text>
<rect x="851.559" y="390.498" fill="none" width="16.679" height="10.995"/>
<text transform="matrix(1.0006 0 0 1 851.5586 398.8076)" font-family="'MyriadPro-Regular'" font-size="11.7035">2</text>
<rect x="901.703" y="390.498" fill="none" width="16.679" height="10.995"/>
<text transform="matrix(1.0006 0 0 1 901.7031 398.8076)" font-family="'MyriadPro-Regular'" font-size="11.7035">3</text>
<rect x="790.349" y="325.73" fill="none" width="16.679" height="10.994"/>
<text transform="matrix(1.0006 0 0 1 790.3496 334.04)" font-family="'MyriadPro-Regular'" font-size="11.7035">4</text>
<rect x="790.881" y="465.683" fill="none" width="16.679" height="10.994"/>
<text transform="matrix(1.0006 0 0 1 790.8818 473.9932)" font-family="'MyriadPro-Regular'" font-size="11.7035">6</text>
<rect x="902.302" y="465.151" fill="none" width="16.679" height="10.994"/>
<text transform="matrix(1.0006 0 0 1 902.3027 473.4609)" font-family="'MyriadPro-Regular'" font-size="11.7035">7</text>
<rect x="676.353" y="465.151" fill="none" width="16.68" height="10.994"/>
<text transform="matrix(1.0006 0 0 1 676.3535 473.4609)" font-family="'MyriadPro-Regular'" font-size="11.7035">5</text>
<path fill="#FFFFFF" stroke="#000000" stroke-miterlimit="10" d="M837.722,432.403c0,3.525-2.859,6.384-6.388,6.384h-74.61
	c-3.526,0-6.388-2.858-6.388-6.384v-3.819c0-3.526,2.861-6.384,6.388-6.384h74.61c3.528,0,6.388,2.858,6.388,6.384V432.403z"/>
<path fill="none" d="M834.779,434.169c0,0.929-1.283,1.682-2.865,1.682H754.55c-1.583,0-2.866-0.753-2.866-1.682v-7.352
	c0-0.929,1.283-1.682,2.866-1.682h77.364c1.582,0,2.865,0.753,2.865,1.682V434.169z"/>
<text transform="matrix(1.0006 0 0 1 756.6719 434.2007)" font-family="'MyriadPro-Regular'" font-size="12.7675">Development</text>
<line fill="none" stroke="#000000" stroke-miterlimit="10" x1="1016.193" y1="470.116" x2="1217.396" y2="470.116"/>
<line fill="none" stroke="#000000" stroke-miterlimit="10" x1="1010.872" y1="459.122" x2="1110.229" y2="339.604"/>
<line fill="none" stroke="#000000" stroke-miterlimit="10" x1="1128.135" y1="339.604" x2="1224.847" y2="459.122"/>
<line fill="none" stroke="#000000" stroke-miterlimit="10" x1="1216.93" y1="395.285" x2="1061.886" y2="395.285"/>
<line fill="none" stroke="#000000" stroke-miterlimit="10" x1="1118.346" y1="343.505" x2="1118.346" y2="457.349"/>
<line fill="none" stroke="#000000" stroke-miterlimit="10" x1="1016.193" y1="464.088" x2="1176.49" y2="396.899"/>
<line fill="none" stroke="#000000" stroke-miterlimit="10" x1="1061.886" y1="396.899" x2="1219.524" y2="464.088"/>
<line fill="none" stroke="#000000" stroke-miterlimit="10" x1="1061.886" y1="399.363" x2="1110.229" y2="461.96"/>
<line fill="none" stroke="#000000" stroke-miterlimit="10" x1="1128.135" y1="461.96" x2="1176.49" y2="399.363"/>
<ellipse fill="#FFFFFF" stroke="#000000" stroke-miterlimit="10" cx="1119.145" cy="330.695" rx="12.818" ry="12.81"/>
<ellipse fill="#FFFFFF" stroke="#000000" stroke-miterlimit="10" cx="1179.866" cy="395.285" rx="12.817" ry="12.811"/>
<ellipse fill="#FFFFFF" stroke="#000000" stroke-miterlimit="10" cx="1229.747" cy="395.285" rx="12.817" ry="12.811"/>
<ellipse fill="#FFFFFF" stroke="#000000" stroke-miterlimit="10" cx="1061.885" cy="395.285" rx="12.817" ry="12.811"/>
<ellipse fill="#FFFFFF" stroke="#000000" stroke-miterlimit="10" cx="1119.145" cy="470.116" rx="12.818" ry="12.811"/>
<ellipse fill="#FFFFFF" stroke="#000000" stroke-miterlimit="10" cx="1230.213" cy="470.116" rx="12.817" ry="12.811"/>
<ellipse fill="#FFFFFF" stroke="#000000" stroke-miterlimit="10" cx="1004.838" cy="470.116" rx="12.818" ry="12.811"/>
<rect x="1058.243" y="390.851" fill="none" width="16.678" height="10.996"/>
<text transform="matrix(1.0006 0 0 1 1058.2432 399.1606)" font-family="'MyriadPro-Regular'" font-size="11.7035">1</text>
<rect x="1176.673" y="390.498" fill="none" width="16.68" height="10.995"/>
<text transform="matrix(1.0006 0 0 1 1176.6729 398.8076)" font-family="'MyriadPro-Regular'" font-size="11.7035">2</text>
<rect x="1226.818" y="390.498" fill="none" width="16.678" height="10.995"/>
<text transform="matrix(1.0006 0 0 1 1226.8193 398.8076)" font-family="'MyriadPro-Regular'" font-size="11.7035">3</text>
<rect x="1115.463" y="325.73" fill="none" width="16.68" height="10.994"/>
<text transform="matrix(1.0006 0 0 1 1115.4629 334.04)" font-family="'MyriadPro-Regular'" font-size="11.7035">4</text>
<rect x="1115.995" y="465.683" fill="none" width="16.68" height="10.994"/>
<text transform="matrix(1.0006 0 0 1 1115.9951 473.9932)" font-family="'MyriadPro-Regular'" font-size="11.7035">6</text>
<rect x="1227.416" y="465.151" fill="none" width="16.679" height="10.994"/>
<text transform="matrix(1.0006 0 0 1 1227.415 473.4609)" font-family="'MyriadPro-Regular'" font-size="11.7035">7</text>
<rect x="1001.467" y="465.151" fill="none" width="16.681" height="10.994"/>
<text transform="matrix(1.0006 0 0 1 1001.4668 473.4609)" font-family="'MyriadPro-Regular'" font-size="11.7035">5</text>
<path fill="#FFFFFF" stroke="#000000" stroke-miterlimit="10" d="M1162.837,432.403c0,3.525-2.86,6.384-6.388,6.384h-74.61
	c-3.527,0-6.388-2.858-6.388-6.384v-3.819c0-3.526,2.86-6.384,6.388-6.384h74.61c3.527,0,6.388,2.858,6.388,6.384V432.403z"/>
<path fill="none" d="M1159.894,434.169c0,0.929-1.282,1.682-2.865,1.682h-77.364c-1.583,0-2.865-0.753-2.865-1.682v-7.352
	c0-0.929,1.282-1.682,2.865-1.682h77.364c1.583,0,2.865,0.753,2.865,1.682V434.169z"/>
<text transform="matrix(1.0006 0 0 1 1098.1953 434.2007)" font-family="'MyriadPro-Regular'" font-size="12.7675">Release</text>
<line fill="none" stroke="#000000" stroke-miterlimit="10" x1="1016.193" y1="702.312" x2="1217.396" y2="702.312"/>
<line fill="none" stroke="#000000" stroke-miterlimit="10" x1="1010.872" y1="691.319" x2="1110.229" y2="571.801"/>
<line fill="none" stroke="#000000" stroke-miterlimit="10" x1="1128.135" y1="571.801" x2="1224.847" y2="691.319"/>
<line fill="none" stroke="#000000" stroke-miterlimit="10" x1="1216.93" y1="627.481" x2="1061.886" y2="627.481"/>
<line fill="none" stroke="#000000" stroke-miterlimit="10" x1="1118.346" y1="575.702" x2="1118.346" y2="689.545"/>
<line fill="none" stroke="#000000" stroke-miterlimit="10" x1="1016.193" y1="696.284" x2="1176.49" y2="629.096"/>
<line fill="none" stroke="#000000" stroke-miterlimit="10" x1="1061.886" y1="629.096" x2="1219.524" y2="696.284"/>
<line fill="none" stroke="#000000" stroke-miterlimit="10" x1="1061.886" y1="631.56" x2="1110.229" y2="694.156"/>
<line fill="none" stroke="#000000" stroke-miterlimit="10" x1="1128.135" y1="694.156" x2="1176.49" y2="631.56"/>
<ellipse fill="#FFFFFF" stroke="#000000" stroke-miterlimit="10" cx="1119.145" cy="562.892" rx="12.818" ry="12.81"/>
<ellipse fill="#FFFFFF" stroke="#000000" stroke-miterlimit="10" cx="1179.866" cy="627.481" rx="12.817" ry="12.811"/>
<ellipse fill="#FFFFFF" stroke="#000000" stroke-miterlimit="10" cx="1229.747" cy="627.481" rx="12.817" ry="12.811"/>
<ellipse fill="#FFFFFF" stroke="#000000" stroke-miterlimit="10" cx="1061.885" cy="627.481" rx="12.817" ry="12.811"/>
<ellipse fill="#FFFFFF" stroke="#000000" stroke-miterlimit="10" cx="1119.145" cy="702.312" rx="12.818" ry="12.811"/>
<circle fill="#FFFFFF" stroke="#000000" stroke-miterlimit="10" cx="1208.115" cy="809.712" r="24.081"/>
<ellipse fill="#FFFFFF" stroke="#000000" stroke-miterlimit="10" cx="1004.838" cy="702.312" rx="12.818" ry="12.811"/>
<rect x="1058.243" y="623.047" fill="none" width="16.678" height="10.995"/>
<text transform="matrix(1.0006 0 0 1 1058.2432 631.3569)" font-family="'MyriadPro-Regular'" font-size="11.7035">1</text>
<rect x="1176.673" y="622.694" fill="none" width="16.68" height="10.995"/>
<text transform="matrix(1.0006 0 0 1 1176.6729 631.0039)" font-family="'MyriadPro-Regular'" font-size="11.7035">2</text>
<rect x="1226.818" y="622.694" fill="none" width="16.678" height="10.995"/>
<text transform="matrix(1.0006 0 0 1 1226.8193 631.0039)" font-family="'MyriadPro-Regular'" font-size="11.7035">3</text>
<rect x="1115.463" y="557.926" fill="none" width="16.68" height="10.994"/>
<text transform="matrix(1.0006 0 0 1 1115.4629 566.2358)" font-family="'MyriadPro-Regular'" font-size="11.7035">4</text>
<rect x="1115.995" y="697.879" fill="none" width="16.68" height="10.995"/>
<text transform="matrix(1.0006 0 0 1 1115.9951 706.1895)" font-family="'MyriadPro-Regular'" font-size="11.7035">6</text>
<rect x="1227.416" y="697.347" fill="none" width="16.679" height="10.995"/>
<text transform="matrix(1.0006 0 0 1 1227.415 705.6567)" font-family="'MyriadPro-Regular'" font-size="11.7035">7</text>
<rect x="1001.467" y="697.347" fill="none" width="16.681" height="10.995"/>
<text transform="matrix(1.0006 0 0 1 1001.4668 705.6567)" font-family="'MyriadPro-Regular'" font-size="11.7035">5</text>
<path fill="#FFFFFF" stroke="#000000" stroke-miterlimit="10" d="M1162.837,664.599c0,3.525-2.86,6.384-6.388,6.384h-74.61
	c-3.527,0-6.388-2.858-6.388-6.384v-3.819c0-3.526,2.86-6.384,6.388-6.384h74.61c3.527,0,6.388,2.857,6.388,6.384V664.599z"/>
<path fill="none" d="M1159.894,666.366c0,0.929-1.282,1.682-2.865,1.682h-77.364c-1.583,0-2.865-0.753-2.865-1.682v-7.352
	c0-0.929,1.282-1.683,2.865-1.683h77.364c1.583,0,2.865,0.754,2.865,1.683V666.366z"/>
<text transform="matrix(1.0006 0 0 1 1079.3594 666.3975)" font-family="'MyriadPro-Regular'" font-size="12.7675">User Feedback</text>
<path fill="none" stroke="#000000" stroke-miterlimit="10" d="M116.647,154.183c0,0-13.979-107.709,64.277-107.709
	s310.769,0,310.769,0s47.827-2.747,47.827,99.96"/>
<line fill="none" stroke="#000000" stroke-miterlimit="10" x1="547.312" y1="149.361" x2="795.568" y2="82.782"/>
<path fill="none" stroke="#000000" stroke-miterlimit="10" d="M821.874,83.593c0,0,91.269-12.59,116.638,0
	c26.667,13.234,21.955,7.782,40,38.882c10.236,17.642,23.334,81.039,23.334,81.039l2.993,18.37"/>
<path fill="none" stroke="#000000" stroke-miterlimit="10" d="M1004.839,245.187c0,0-26.007,43.956-88.5,44.623
	s-230.582,0-230.582,0s0.088-6.517-47.911,28.075c-48,34.592-10,120.592-8,123.925s26.119,50.667,37.059,64
	s97.201,14.667,97.201,14.667s29.923,2.236,29.923-37.549"/>
</svg>
