<?xml version="1.0" encoding="utf-8"?>
<!-- Generator: Adobe Illustrator 16.0.0, SVG Export Plug-In . SVG Version: 6.00 Build 0)  -->
<!DOCTYPE svg PUBLIC "-//W3C//DTD SVG 1.1//EN" "http://www.w3.org/Graphics/SVG/1.1/DTD/svg11.dtd">
<svg version="1.1" id="Livello_1" xmlns="http://www.w3.org/2000/svg" xmlns:xlink="http://www.w3.org/1999/xlink" x="0px" y="0px"
	 width="297.232px" height="496.232px" viewBox="1112 0 297.232 496.232" enable-background="new 1112 0 297.232 496.232"
	 xml:space="preserve">
<text transform="matrix(1 0 0 1 1129.738 21.1875)" font-family="'Helvetica'" font-size="12">name of the actIvity: Testing</text>
<text transform="matrix(1 0 0 1 1129.738 49.9883)" font-family="'Helvetica'" font-size="12">subject:</text>
<text transform="matrix(1 0 0 1 1174.738 49.9883)" font-family="'Helvetica'" font-size="12">Designer and Software Engineer </text>
<text transform="matrix(1 0 0 1 1129.738 78.7881)" enable-background="new    "><tspan x="0" y="0" font-family="'Helvetica'" font-size="12"> </tspan><tspan x="3.334" y="0" font-family="'Helvetica'" font-size="12" letter-spacing="29">	</tspan></text>
<text transform="matrix(1 0 0 1 1129.738 78.7881)" font-family="'Helvetica'" font-size="12">Object:</text>
<text transform="matrix(1 0 0 1 1170.738 78.7881)" font-family="'Helvetica'" font-size="12">Testing Method, inquiery, user reaserch</text>
<text transform="matrix(1 0 0 1 1125.738 109.3877)" font-family="'Helvetica'" font-size="12">Outome:</text>
<text transform="matrix(1 0 0 1 1174.738 109.3877)" enable-background="new    "><tspan x="0" y="0" font-family="'Helvetica'" font-size="12">Use the prototype or any iteration to </tspan><tspan x="0" y="14.4" font-family="'Helvetica'" font-size="12">figure out if the app is working. Can be test</tspan><tspan x="0" y="28.8" font-family="'Helvetica'" font-size="12">for user experience or functionality.</tspan></text>
<text transform="matrix(1 0 0 1 1129.738 179.5879)" font-family="'Helvetica'" font-size="12">Mediating Artifacts:</text>
<text transform="matrix(1 0 0 1 1129.738 233.1875)" font-family="'Helvetica'" font-size="12">Rules:</text>
<text transform="matrix(1 0 0 1 1170.738 233.1875)" font-family="'Helvetica'" font-size="12">Creative Commons.</text>
<text transform="matrix(1 0 0 1 1129.738 265.9883)" font-family="'Helvetica'" font-size="12">Community:</text>
<text transform="matrix(1 0 0 1 1129.738 294.7881)" font-family="'Helvetica'" font-size="12">Roles:</text>
<text transform="matrix(1 0 0 1 1170.738 294.7881)" font-family="'Helvetica'" font-size="12">Development Team</text>
<text transform="matrix(1 0 0 1 1199.116 265.9883)" font-family="'Helvetica'" font-size="12">Github.</text>
<text transform="matrix(1 0 0 1 1129.738 34.3887)" font-family="'Helvetica'" font-size="11">  </text>
<text transform="matrix(1 0 0 1 1237.738 179.5879)" enable-background="new    "><tspan x="0" y="0" font-family="'Helvetica'" font-size="12">HTML, Jquery, Css, JavaScript</tspan><tspan x="0" y="14.4" font-family="'Helvetica'" font-size="12">inquiery, user test.  </tspan></text>
<text transform="matrix(1 0 0 1 1129.738 21.1875)" font-family="'Helvetica'" font-size="12">name of the actIvity: Testing</text>
<text transform="matrix(1 0 0 1 1129.738 49.9883)" font-family="'Helvetica'" font-size="12">subject:</text>
<text transform="matrix(1 0 0 1 1174.738 49.9883)" font-family="'Helvetica'" font-size="12">Designer and Software Engineer </text>
<text transform="matrix(1 0 0 1 1129.738 78.7881)" enable-background="new    "><tspan x="0" y="0" font-family="'Helvetica'" font-size="12"> </tspan><tspan x="3.334" y="0" font-family="'Helvetica'" font-size="12" letter-spacing="29">	</tspan></text>
<text transform="matrix(1 0 0 1 1129.738 78.7881)" font-family="'Helvetica'" font-size="12">Object:</text>
<text transform="matrix(1 0 0 1 1170.738 78.7881)" font-family="'Helvetica'" font-size="12">Testing Method, inquiery, user reaserch</text>
<text transform="matrix(1 0 0 1 1125.738 109.3877)" font-family="'Helvetica'" font-size="12">Outome:</text>
<text transform="matrix(1 0 0 1 1174.738 109.3877)" enable-background="new    "><tspan x="0" y="0" font-family="'Helvetica'" font-size="12">Use the prototype or any iteration to </tspan><tspan x="0" y="14.4" font-family="'Helvetica'" font-size="12">figure out if the app is working. Can be test</tspan><tspan x="0" y="28.8" font-family="'Helvetica'" font-size="12">for user experience or functionality.</tspan></text>
<text transform="matrix(1 0 0 1 1129.738 179.5879)" font-family="'Helvetica'" font-size="12">Mediating Artifacts:</text>
<text transform="matrix(1 0 0 1 1129.738 233.1875)" font-family="'Helvetica'" font-size="12">Rules:</text>
<text transform="matrix(1 0 0 1 1170.738 233.1875)" font-family="'Helvetica'" font-size="12">Creative Commons.</text>
<text transform="matrix(1 0 0 1 1129.738 265.9883)" font-family="'Helvetica'" font-size="12">Community:</text>
<text transform="matrix(1 0 0 1 1129.738 294.7881)" font-family="'Helvetica'" font-size="12">Roles:</text>
<text transform="matrix(1 0 0 1 1170.738 294.7881)" font-family="'Helvetica'" font-size="12">Development Team</text>
<text transform="matrix(1 0 0 1 1199.116 265.9883)" font-family="'Helvetica'" font-size="12">Github.</text>
<text transform="matrix(1 0 0 1 1129.738 34.3887)" font-family="'Helvetica'" font-size="11">  </text>
<text transform="matrix(1 0 0 1 1237.738 179.5879)" enable-background="new    "><tspan x="0" y="0" font-family="'Helvetica'" font-size="12">HTML, Jquery, Css, JavaScript</tspan><tspan x="0" y="14.4" font-family="'Helvetica'" font-size="12">inquiery, user test.  </tspan></text>
</svg>
