<?xml version="1.0" encoding="utf-8"?>
<!-- Generator: Adobe Illustrator 16.0.0, SVG Export Plug-In . SVG Version: 6.00 Build 0)  -->
<!DOCTYPE svg PUBLIC "-//W3C//DTD SVG 1.1//EN" "http://www.w3.org/Graphics/SVG/1.1/DTD/svg11.dtd">
<svg version="1.1" id="Livello_1" xmlns="http://www.w3.org/2000/svg" xmlns:xlink="http://www.w3.org/1999/xlink" x="0px" y="0px"
	 width="297.232px" height="496.232px" viewBox="0 0 297.232 496.232" enable-background="new 0 0 297.232 496.232"
	 xml:space="preserve">
<text transform="matrix(1 0 0 1 17.6218 21.1875)" font-family="'Helvetica'" font-size="12">name of the activity: Research</text>
<text transform="matrix(1 0 0 1 17.6218 49.9883)" font-family="'Helvetica'" font-size="12">subject:</text>
<text transform="matrix(1 0 0 1 62.6218 49.9883)" font-family="'Helvetica'" font-size="12">Designer and Owner. </text>
<text transform="matrix(1 0 0 1 17.6218 78.7881)" enable-background="new    "><tspan x="0" y="0" font-family="'Helvetica'" font-size="12"> </tspan><tspan x="3.334" y="0" font-family="'Helvetica'" font-size="12" letter-spacing="29">	</tspan></text>
<text transform="matrix(1 0 0 1 17.6218 78.7881)" font-family="'Helvetica'" font-size="12">object:</text>
<text transform="matrix(1 0 0 1 58.6218 78.7881)" enable-background="new    "><tspan x="0" y="0" font-family="'Helvetica'" font-size="12">Investigation, Marketing Research, </tspan><tspan x="0" y="14.4" font-family="'Helvetica'" font-size="12">Sketches, Desgin Research, Tecnology </tspan><tspan x="0" y="28.8" font-family="'Helvetica'" font-size="12">research.  </tspan><tspan x="56.689" y="28.8" font-family="'Helvetica'" font-size="12" letter-spacing="11">	</tspan></text>
<text transform="matrix(1 0 0 1 17.6218 136.3877)" font-family="'Helvetica'" font-size="12">Outome:</text>
<text transform="matrix(1 0 0 1 66.6218 136.3877)" enable-background="new    "><tspan x="0" y="0" font-family="'Helvetica'" font-size="12">Information that would be used for the</tspan><tspan x="0" y="14.4" font-family="'Helvetica'" font-size="12">ideation of the product.  </tspan></text>
<text transform="matrix(1 0 0 1 17.6218 179.5879)" font-family="'Helvetica'" font-size="12">Mediating Artifacts:</text>
<text transform="matrix(1 0 0 1 17.6218 233.1875)" font-family="'Helvetica'" font-size="12">Rules:</text>
<text transform="matrix(1 0 0 1 58.6218 233.1875)" font-family="'Helvetica'" font-size="12">Creative Commons.</text>
<text transform="matrix(1 0 0 1 17.6218 265.9883)" font-family="'Helvetica'" font-size="12">Community:</text>
<text transform="matrix(1 0 0 1 17.6218 294.7881)" font-family="'Helvetica'" font-size="12">Roles:</text>
<text transform="matrix(1 0 0 1 58.6218 294.7881)" font-family="'Helvetica'" font-size="12">Owners and Design Development Team</text>
<text transform="matrix(1 0 0 1 86.9998 265.9883)" font-family="'Helvetica'" font-size="12">Github.</text>
<text transform="matrix(1 0 0 1 17.6218 34.3887)" font-family="'Helvetica'" font-size="11">  </text>
<text transform="matrix(1 0 0 1 121.6218 179.5879)" font-family="'Helvetica'" font-size="12">Reseach materials.  </text>
</svg>
