<?xml version="1.0" encoding="utf-8"?>
<!-- Generator: Adobe Illustrator 16.0.0, SVG Export Plug-In . SVG Version: 6.00 Build 0)  -->
<!DOCTYPE svg PUBLIC "-//W3C//DTD SVG 1.1//EN" "http://www.w3.org/Graphics/SVG/1.1/DTD/svg11.dtd">
<svg version="1.1" id="Livello_1" xmlns="http://www.w3.org/2000/svg" xmlns:xlink="http://www.w3.org/1999/xlink" x="0px" y="0px"
	 width="297.232px" height="496.232px" viewBox="362 558 297.232 496.232" enable-background="new 362 558 297.232 496.232"
	 xml:space="preserve">
<text transform="matrix(1 0 0 1 372.738 579.9883)" font-family="'Helvetica'" font-size="12">name of the actIvity: Release</text>
<text transform="matrix(1 0 0 1 372.738 608.7891)" font-family="'Helvetica'" font-size="12">subject:</text>
<text transform="matrix(1 0 0 1 417.738 608.7891)" font-family="'Helvetica'" font-size="12">Marketing,</text>
<text transform="matrix(1 0 0 1 372.738 637.5889)" enable-background="new    "><tspan x="0" y="0" font-family="'Helvetica'" font-size="12"> </tspan><tspan x="3.334" y="0" font-family="'Helvetica'" font-size="12" letter-spacing="29">	</tspan></text>
<text transform="matrix(1 0 0 1 372.738 637.5889)" font-family="'Helvetica'" font-size="12">Object:</text>
<text transform="matrix(1 0 0 1 413.738 637.5889)" font-family="'Helvetica'" font-size="12">Owner and Managment team  </text>
<text transform="matrix(1 0 0 1 368.738 668.1885)" font-family="'Helvetica'" font-size="12">Outome:</text>
<text transform="matrix(1 0 0 1 417.738 668.1885)" enable-background="new    "><tspan x="0" y="0" font-family="'Helvetica'" font-size="12">A final version  that is sent to the market and </tspan><tspan x="0" y="14.4" font-family="'Helvetica'" font-size="12">it has to be promoted.</tspan></text>
<text transform="matrix(1 0 0 1 372.738 738.3887)" font-family="'Helvetica'" font-size="12">Mediating Artifacts:</text>
<text transform="matrix(1 0 0 1 372.738 791.9883)" font-family="'Helvetica'" font-size="12">Rules:</text>
<text transform="matrix(1 0 0 1 413.738 791.9883)" font-family="'Helvetica'" font-size="12">Creative Commons.</text>
<text transform="matrix(1 0 0 1 372.738 824.7891)" font-family="'Helvetica'" font-size="12">Community:</text>
<text transform="matrix(1 0 0 1 372.738 853.5889)" font-family="'Helvetica'" font-size="12">Roles:</text>
<text transform="matrix(1 0 0 1 413.738 853.5889)" font-family="'Helvetica'" font-size="12">Owner and Managment Team. </text>
<text transform="matrix(1 0 0 1 442.116 824.7891)" font-family="'Helvetica'" font-size="12">Github.</text>
<text transform="matrix(1 0 0 1 372.738 593.1895)" font-family="'Helvetica'" font-size="11">  </text>
<text transform="matrix(1 0 0 1 480.738 738.3887)" font-family="'Helvetica'" font-size="12">Marketing tools, and Publicity</text>
</svg>
