<?xml version="1.0" encoding="utf-8"?>
<!-- Generator: Adobe Illustrator 16.0.0, SVG Export Plug-In . SVG Version: 6.00 Build 0)  -->
<!DOCTYPE svg PUBLIC "-//W3C//DTD SVG 1.1//EN" "http://www.w3.org/Graphics/SVG/1.1/DTD/svg11.dtd">
<svg version="1.1" id="Livello_1" xmlns="http://www.w3.org/2000/svg" xmlns:xlink="http://www.w3.org/1999/xlink" x="0px" y="0px"
	 width="297.232px" height="496.232px" viewBox="0 558 297.232 496.232" enable-background="new 0 558 297.232 496.232"
	 xml:space="preserve">
<text transform="matrix(1 0 0 1 10.738 579.9883)" font-family="'Helvetica'" font-size="12">name of the actIvity: Development</text>
<text transform="matrix(1 0 0 1 10.738 608.7891)" font-family="'Helvetica'" font-size="12">subject:</text>
<text transform="matrix(1 0 0 1 55.738 608.7891)" font-family="'Helvetica'" font-size="12">Designer and Software Engineer </text>
<text transform="matrix(1 0 0 1 10.738 637.5889)" enable-background="new    "><tspan x="0" y="0" font-family="'Helvetica'" font-size="12"> </tspan><tspan x="3.334" y="0" font-family="'Helvetica'" font-size="12" letter-spacing="29">	</tspan></text>
<text transform="matrix(1 0 0 1 10.738 637.5889)" font-family="'Helvetica'" font-size="12">Object:</text>
<text transform="matrix(1 0 0 1 51.738 637.5889)" font-family="'Helvetica'" font-size="12">Development of the application </text>
<text transform="matrix(1 0 0 1 6.738 668.1885)" font-family="'Helvetica'" font-size="12">Outome:</text>
<text transform="matrix(1 0 0 1 55.738 668.1885)" enable-background="new    "><tspan x="0" y="0" font-family="'Helvetica'" font-size="12">A final version of the product ready to be </tspan><tspan x="0" y="14.4" font-family="'Helvetica'" font-size="12">released</tspan></text>
<text transform="matrix(1 0 0 1 10.738 738.3887)" font-family="'Helvetica'" font-size="12">Mediating Artifacts:</text>
<text transform="matrix(1 0 0 1 10.738 791.9883)" font-family="'Helvetica'" font-size="12">Rules:</text>
<text transform="matrix(1 0 0 1 51.738 791.9883)" font-family="'Helvetica'" font-size="12">Creative Commons.</text>
<text transform="matrix(1 0 0 1 10.738 824.7891)" font-family="'Helvetica'" font-size="12">Community:</text>
<text transform="matrix(1 0 0 1 10.738 853.5889)" font-family="'Helvetica'" font-size="12">Roles:</text>
<text transform="matrix(1 0 0 1 51.738 853.5889)" font-family="'Helvetica'" font-size="12">Development Team</text>
<text transform="matrix(1 0 0 1 80.116 824.7891)" font-family="'Helvetica'" font-size="12">Github.</text>
<text transform="matrix(1 0 0 1 10.738 593.1895)" font-family="'Helvetica'" font-size="11">  </text>
<text transform="matrix(1 0 0 1 118.738 738.3887)" font-family="'Helvetica'" font-size="12">HTML, Jquery, Css, JavaScript</text>
</svg>
