<?xml version="1.0" encoding="utf-8"?>
<!-- Generator: Adobe Illustrator 16.0.0, SVG Export Plug-In . SVG Version: 6.00 Build 0)  -->
<!DOCTYPE svg PUBLIC "-//W3C//DTD SVG 1.1//EN" "http://www.w3.org/Graphics/SVG/1.1/DTD/svg11.dtd">
<svg version="1.1" id="Livello_2" xmlns="http://www.w3.org/2000/svg" xmlns:xlink="http://www.w3.org/1999/xlink" x="0px" y="0px"
	 width="440px" height="568px" viewBox="-38.535 -581.27 440 568" enable-background="new -38.535 -581.27 440 568"
	 xml:space="preserve">
<rect id="rect7741" x="-4.023" y="-493.984" fill="#FFFFFF" fill-opacity="0.7843" stroke="#000000" stroke-width="0.3543" stroke-linejoin="round" width="70.04" height="26.988"/>
<path id="path7227" inkscape:connector-curvature="0" fill="none" stroke="#000000" stroke-width="1.4173" stroke-dasharray="1.4173,2.8346" d="
	M68.738-480.49c298.547,0,296.984,0,296.984,0"/>
<text transform="matrix(1 0 0 1 5.8816 -476.2422)" font-family="'ArialMT'" font-size="12">branch 01</text>
<rect id="rect7741_1_" x="-9.315" y="-406.625" fill="#FFFFFF" fill-opacity="0.7843" stroke="#000000" stroke-width="0.3543" stroke-linejoin="round" width="70.04" height="26.988"/>
<path id="path7227_1_" inkscape:connector-curvature="0" fill="none" stroke="#000000" stroke-width="1.4173" stroke-dasharray="1.4173,2.8346" d="
	M63.446-393.13c298.547,0,296.984,0,296.984,0"/>
<text transform="matrix(1 0 0 1 0.5896 -388.8828)" font-family="'ArialMT'" font-size="12">HTML</text>
<rect id="rect7743_1_" x="-9.315" y="-366.142" fill="#FFFFFF" fill-opacity="0.7843" stroke="#000000" stroke-width="0.3543" stroke-linejoin="round" width="70.04" height="26.988"/>
<path id="path7745_1_" inkscape:connector-curvature="0" fill="none" stroke="#000000" stroke-width="1.4173" stroke-dasharray="1.4173,2.8346" d="
	M63.446-352.648c298.547,0,296.984,0,296.984,0"/>
<text transform="matrix(1 0 0 1 0.5896 -348.4004)" font-family="'ArialMT'" font-size="12">CSS</text>
<rect id="rect7751_1_" x="-9.315" y="-324.375" fill="#FFFFFF" fill-opacity="0.7843" stroke="#000000" stroke-width="0.3543" stroke-linejoin="round" width="70.04" height="26.988"/>
<path id="path7753_1_" inkscape:connector-curvature="0" fill="none" stroke="#000000" stroke-width="1.4173" stroke-dasharray="1.4173,2.8346" d="
	M63.446-310.88c298.547,0,296.984,0,296.984,0"/>
<text transform="matrix(1 0 0 1 -3.3147 -306.6328)" font-family="'ArialMT'" font-size="12">JavaScript</text>
<rect id="rect7741_4_" x="-7.869" y="-230.707" fill="#FFFFFF" fill-opacity="0.7843" stroke="#000000" stroke-width="0.3543" stroke-linejoin="round" width="70.04" height="26.988"/>
<path id="path7227_2_" inkscape:connector-curvature="0" fill="none" stroke="#000000" stroke-width="1.4173" stroke-dasharray="1.4173,2.8346" d="
	M64.891-217.213c298.546,0,296.984,0,296.984,0"/>
<text transform="matrix(1 0 0 1 2.0349 -212.9653)" font-family="'ArialMT'" font-size="12">branch 01</text>
<rect id="rect7741_6_" x="-6.932" y="-143.791" fill="#FFFFFF" fill-opacity="0.7843" stroke="#000000" stroke-width="0.3543" stroke-linejoin="round" width="70.04" height="26.988"/>
<path id="path7227_3_" inkscape:connector-curvature="0" fill="none" stroke="#000000" stroke-width="1.4173" stroke-dasharray="1.4173,2.8346" d="
	M65.828-130.297c298.547,0,296.984,0,296.984,0"/>
<text transform="matrix(1 0 0 1 2.9719 -126.0493)" font-family="'ArialMT'" font-size="12">branch 01</text>
<rect id="rect6710_7_" x="-9.315" y="-448.157" fill="#FFFFFF" stroke="#000000" stroke-width="0.3764" stroke-linejoin="round" width="114.121" height="26.619"/>
<g id="g6788_7_" transform="matrix(0.11413459,0,0,0.11413459,328.49073,428.70602)">
	<path id="path6772_7_" inkscape:connector-curvature="0" d="M-2049.243-7616.071c-27.619,0-50.002,3.217-50.002,7.179v21.887
		c0,3.961,22.383,7.179,50.002,7.179c27.602,0,49.985-3.218,49.985-7.179v-21.887
		C-1999.258-7612.854-2021.641-7616.071-2049.243-7616.071z"/>
	<g id="g6774_7_">
		<path id="path6776_7_" inkscape:connector-curvature="0" d="M-2049.243-7569.833c-27.619,0-50.002-3.217-50.002-7.179v21.887
			c0,3.962,22.383,7.179,50.002,7.179c27.602,0,49.985-3.217,49.985-7.179v-21.887
			C-1999.258-7573.05-2021.641-7569.833-2049.243-7569.833z"/>
	</g>
	<g id="g6778_7_">
		<path id="path6780_7_" inkscape:connector-curvature="0" d="M-2049.243-7537.953c-27.619,0-50.002-3.217-50.002-7.188v21.887
			c0,3.971,22.383,7.179,50.002,7.179c27.602,0,49.985-3.208,49.985-7.179v-21.878
			C-1999.258-7541.169-2021.641-7537.953-2049.243-7537.953z"/>
	</g>
</g>
<g id="g6801_7_" transform="translate(108.45477,-98.749816)">
	<text transform="matrix(1 0 0 1 -113.0605 -337.924)" font-family="'ArialMT'" font-size="11">Development</text>
	<text transform="matrix(1 0 0 1 -113.0605 -328.3928)" font-family="'ArialMT'" font-size="8">Repository Link</text>
</g>
<rect id="rect6710_6_" x="-9.315" y="-273.022" fill="#FFFFFF" stroke="#000000" stroke-width="0.3764" stroke-linejoin="round" width="114.121" height="26.619"/>
<g id="g6788_6_" transform="matrix(0.11413459,0,0,0.11413459,328.49073,428.70602)">
	<path id="path6772_6_" inkscape:connector-curvature="0" d="M-2049.239-6081.618c-27.619,0-50.002,3.217-50.002,7.179v21.887
		c0,3.961,22.383,7.179,50.002,7.179c27.602,0,49.985-3.218,49.985-7.179v-21.887
		C-1999.254-6078.401-2021.637-6081.618-2049.239-6081.618z"/>
	<g id="g6774_6_">
		<path id="path6776_6_" inkscape:connector-curvature="0" d="M-2049.239-6035.38c-27.619,0-50.002-3.217-50.002-7.179v21.887
			c0,3.962,22.383,7.179,50.002,7.179c27.602,0,49.985-3.217,49.985-7.179v-21.887
			C-1999.254-6038.597-2021.637-6035.38-2049.239-6035.38z"/>
	</g>
	<g id="g6778_6_">
		<path id="path6780_6_" inkscape:connector-curvature="0" d="M-2049.239-6003.5c-27.619,0-50.002-3.218-50.002-7.188v21.887
			c0,3.97,22.383,7.179,50.002,7.179c27.602,0,49.985-3.209,49.985-7.179v-21.878
			C-1999.254-6006.717-2021.637-6003.5-2049.239-6003.5z"/>
	</g>
</g>
<g id="g6801_6_" transform="translate(108.45477,-98.749816)">
	<text transform="matrix(1 0 0 1 -113.06 -162.7892)" font-family="'ArialMT'" font-size="11">Prototype</text>
	<text transform="matrix(1 0 0 1 -113.06 -153.258)" font-family="'ArialMT'" font-size="8">Repository Link</text>
</g>
<rect id="rect6710_5_" x="-7.869" y="-185.546" fill="#FFFFFF" stroke="#000000" stroke-width="0.3764" stroke-linejoin="round" width="114.122" height="26.619"/>
<g id="g6788_5_" transform="matrix(0.11413459,0,0,0.11413459,328.49073,428.70602)">
	<path id="path6772_5_" inkscape:connector-curvature="0" d="M-2036.567-5315.196c-27.619,0-50.002,3.217-50.002,7.179v21.887
		c0,3.961,22.383,7.179,50.002,7.179c27.602,0,49.985-3.218,49.985-7.179v-21.887
		C-1986.582-5311.979-2008.965-5315.196-2036.567-5315.196z"/>
	<g id="g6774_5_">
		<path id="path6776_5_" inkscape:connector-curvature="0" d="M-2036.567-5268.958c-27.619,0-50.002-3.217-50.002-7.179v21.887
			c0,3.962,22.383,7.179,50.002,7.179c27.602,0,49.985-3.217,49.985-7.179v-21.887
			C-1986.582-5272.175-2008.965-5268.958-2036.567-5268.958z"/>
	</g>
	<g id="g6778_5_">
		<path id="path6780_5_" inkscape:connector-curvature="0" d="M-2036.567-5237.078c-27.619,0-50.002-3.218-50.002-7.188v21.887
			c0,3.971,22.383,7.179,50.002,7.179c27.602,0,49.985-3.208,49.985-7.179v-21.878
			C-1986.582-5240.295-2008.965-5237.078-2036.567-5237.078z"/>
	</g>
</g>
<g id="g6801_5_" transform="translate(108.45477,-98.749816)">
	<text transform="matrix(1 0 0 1 -111.6147 -75.3137)" font-family="'ArialMT'" font-size="11">Testing Results</text>
	<text transform="matrix(1 0 0 1 -111.6147 -65.7824)" font-family="'ArialMT'" font-size="8">Repository Link</text>
</g>
<rect id="rect6710_4_" x="-4.023" y="-533.68" fill="#FFFFFF" stroke="#000000" stroke-width="0.3764" stroke-linejoin="round" width="114.121" height="26.619"/>
<g id="g6788_4_" transform="matrix(0.11413459,0,0,0.11413459,328.49073,428.70602)">
	<path id="path6772_4_" inkscape:connector-curvature="0" d="M-2002.873-8365.389c-27.619,0-50.002,3.217-50.002,7.178v21.887
		c0,3.963,22.383,7.18,50.002,7.18c27.602,0,49.985-3.217,49.985-7.18v-21.887
		C-1952.888-8362.172-1975.271-8365.389-2002.873-8365.389z"/>
	<g id="g6774_4_">
		<path id="path6776_4_" inkscape:connector-curvature="0" d="M-2002.873-8319.152c-27.619,0-50.002-3.217-50.002-7.178v21.887
			c0,3.961,22.383,7.178,50.002,7.178c27.602,0,49.985-3.217,49.985-7.178v-21.887
			C-1952.888-8322.369-1975.271-8319.152-2002.873-8319.152z"/>
	</g>
	<g id="g6778_4_">
		<path id="path6780_4_" inkscape:connector-curvature="0" d="M-2002.873-8287.271c-27.619,0-50.002-3.217-50.002-7.188v21.887
			c0,3.971,22.383,7.18,50.002,7.18c27.602,0,49.985-3.209,49.985-7.18v-21.877
			C-1952.888-8290.488-1975.271-8287.271-2002.873-8287.271z"/>
	</g>
</g>
<g id="g6801_4_" transform="translate(108.45477,-98.749816)">
	<text transform="matrix(1 0 0 1 -107.768 -423.4474)" font-family="'ArialMT'" font-size="11">Research </text>
	<text transform="matrix(1 0 0 1 -107.768 -413.9162)" font-family="'ArialMT'" font-size="8">Repository Link</text>
</g>
</svg>
