<?xml version="1.0" encoding="utf-8"?>
<!-- Generator: Adobe Illustrator 16.0.0, SVG Export Plug-In . SVG Version: 6.00 Build 0)  -->
<!DOCTYPE svg PUBLIC "-//W3C//DTD SVG 1.1//EN" "http://www.w3.org/Graphics/SVG/1.1/DTD/svg11.dtd">
<svg version="1.1" id="Livello_1" xmlns="http://www.w3.org/2000/svg" xmlns:xlink="http://www.w3.org/1999/xlink" x="0px" y="0px"
	 width="297.232px" height="496.232px" viewBox="362 0 297.232 496.232" enable-background="new 362 0 297.232 496.232"
	 xml:space="preserve">
<text transform="matrix(1 0 0 1 379.738 21.1875)" font-family="'Helvetica'" font-size="12">name of the actIvity: Ideation</text>
<text transform="matrix(1 0 0 1 379.738 49.9883)" font-family="'Helvetica'" font-size="12">subject:</text>
<text transform="matrix(1 0 0 1 424.738 49.9883)" font-family="'Helvetica'" font-size="12">Designer and Owner. </text>
<text transform="matrix(1 0 0 1 379.738 78.7881)" enable-background="new    "><tspan x="0" y="0" font-family="'Helvetica'" font-size="12"> </tspan><tspan x="3.334" y="0" font-family="'Helvetica'" font-size="12" letter-spacing="29">	</tspan></text>
<text transform="matrix(1 0 0 1 379.738 78.7881)" font-family="'Helvetica'" font-size="12">Object:</text>
<text transform="matrix(1 0 0 1 420.738 78.7881)" enable-background="new    "><tspan x="0" y="0" font-family="'Helvetica'" font-size="12">Sketches, moodboard.  </tspan><tspan x="126.738" y="0" font-family="'Helvetica'" font-size="12" letter-spacing="13">	</tspan></text>
<text transform="matrix(1 0 0 1 379.738 136.3877)" font-family="'Helvetica'" font-size="12">Outome:</text>
<text transform="matrix(1 0 0 1 428.738 136.3877)" font-family="'Helvetica'" font-size="12">A model, and sketch to be prototyped.  </text>
<text transform="matrix(1 0 0 1 379.738 179.5879)" font-family="'Helvetica'" font-size="12">Mediating Artifacts:</text>
<text transform="matrix(1 0 0 1 379.738 233.1875)" font-family="'Helvetica'" font-size="12">Rules:</text>
<text transform="matrix(1 0 0 1 420.738 233.1875)" font-family="'Helvetica'" font-size="12">Creative Commons.</text>
<text transform="matrix(1 0 0 1 379.738 265.9883)" font-family="'Helvetica'" font-size="12">Community:</text>
<text transform="matrix(1 0 0 1 379.738 294.7881)" font-family="'Helvetica'" font-size="12">Roles:</text>
<text transform="matrix(1 0 0 1 420.738 294.7881)" font-family="'Helvetica'" font-size="12">Owners and Design Development Team</text>
<text transform="matrix(1 0 0 1 449.116 265.9883)" font-family="'Helvetica'" font-size="12">Github.</text>
<text transform="matrix(1 0 0 1 379.738 34.3887)" font-family="'Helvetica'" font-size="11">  </text>
<text transform="matrix(1 0 0 1 487.738 179.5879)" font-family="'Helvetica'" font-size="12">paper and stationary material.  </text>
</svg>
