<?xml version="1.0" encoding="utf-8"?>
<!-- Generator: Adobe Illustrator 16.0.0, SVG Export Plug-In . SVG Version: 6.00 Build 0)  -->
<!DOCTYPE svg PUBLIC "-//W3C//DTD SVG 1.1//EN" "http://www.w3.org/Graphics/SVG/1.1/DTD/svg11.dtd">
<svg version="1.1" id="Livello_2" xmlns="http://www.w3.org/2000/svg" xmlns:xlink="http://www.w3.org/1999/xlink" x="0px" y="0px"
	 width="1409.93px" height="796.46px" viewBox="0 0 1409.93 796.46" enable-background="new 0 0 1409.93 796.46"
	 xml:space="preserve">
<path fill="none" stroke="#009FE3" stroke-miterlimit="10" d="M539.52,176.434v-73.618c0-15.226,12.343-27.568,27.568-27.568
	h215.766c15.227,0,25.568,9.343,25.568,24.568"/>
<line fill="none" stroke="#000000" stroke-miterlimit="10" x1="1016.193" y1="702.312" x2="1217.396" y2="702.312"/>
<line fill="none" stroke="#000000" stroke-miterlimit="10" x1="1128.135" y1="571.8" x2="1224.847" y2="691.32"/>
<line fill="none" stroke="#000000" stroke-miterlimit="10" x1="1061.886" y1="629.095" x2="1219.524" y2="696.285"/>
<ellipse fill="#FFFFFF" stroke="#000000" stroke-miterlimit="10" cx="1229.745" cy="701.481" rx="12.817" ry="12.812"/>
<line fill="none" stroke="#000000" stroke-miterlimit="10" x1="84.507" y1="259.919" x2="274.414" y2="259.919"/>
<line fill="none" stroke="#000000" stroke-miterlimit="10" x1="79.483" y1="249.537" x2="173.264" y2="136.665"/>
<line fill="none" stroke="#000000" stroke-miterlimit="10" x1="190.165" y1="136.665" x2="281.448" y2="249.537"/>
<line fill="none" stroke="#000000" stroke-miterlimit="10" x1="273.975" y1="189.249" x2="127.634" y2="189.249"/>
<line fill="none" stroke="#000000" stroke-miterlimit="10" x1="180.925" y1="140.348" x2="180.925" y2="247.861"/>
<line fill="none" stroke="#000000" stroke-miterlimit="10" x1="84.507" y1="254.226" x2="235.806" y2="190.773"/>
<line fill="none" stroke="#000000" stroke-miterlimit="10" x1="127.634" y1="190.773" x2="276.424" y2="254.226"/>
<line fill="none" stroke="#000000" stroke-miterlimit="10" x1="127.634" y1="193.1" x2="173.264" y2="252.216"/>
<line fill="none" stroke="#000000" stroke-miterlimit="10" x1="190.165" y1="252.216" x2="235.806" y2="193.1"/>
<circle fill="#FFFFFF" stroke="#000000" stroke-miterlimit="10" cx="181.679" cy="128.25" r="12.099"/>
<circle fill="#FFFFFF" stroke="#000000" stroke-miterlimit="10" cx="238.992" cy="189.249" r="12.098"/>
<circle fill="#FFFFFF" stroke="#000000" stroke-miterlimit="10" cx="286.073" cy="189.249" r="12.098"/>
<circle fill="#FFFFFF" stroke="#000000" stroke-miterlimit="10" cx="127.634" cy="189.249" r="12.098"/>
<circle fill="#FFFFFF" stroke="#000000" stroke-miterlimit="10" cx="181.679" cy="259.919" r="12.099"/>
<circle fill="#FFFFFF" stroke="#000000" stroke-miterlimit="10" cx="286.512" cy="259.919" r="12.098"/>
<circle fill="#FFFFFF" stroke="#000000" stroke-miterlimit="10" cx="73.788" cy="259.919" r="12.098"/>
<rect x="124.195" y="185.062" fill="none" width="15.743" height="10.384"/>
<text transform="matrix(1 0 0 1 124.1951 192.9077)" font-family="'MyriadPro-Regular'" font-size="11.0528">1</text>
<rect x="235.979" y="184.728" fill="none" width="15.742" height="10.383"/>
<text transform="matrix(1 0 0 1 235.9783 192.5737)" font-family="'MyriadPro-Regular'" font-size="11.0528">2</text>
<rect x="283.309" y="184.728" fill="none" width="15.742" height="10.383"/>
<text transform="matrix(1 0 0 1 283.3079 192.5737)" font-family="'MyriadPro-Regular'" font-size="11.0528">3</text>
<rect x="178.204" y="123.561" fill="none" width="15.741" height="10.383"/>
<text transform="matrix(1 0 0 1 178.2039 131.4077)" font-family="'MyriadPro-Regular'" font-size="11.0528">4</text>
<rect x="178.706" y="255.732" fill="none" width="15.743" height="10.383"/>
<text transform="matrix(1 0 0 1 178.7053 263.5796)" font-family="'MyriadPro-Regular'" font-size="11.0528">6</text>
<rect x="283.872" y="255.23" fill="none" width="15.743" height="10.383"/>
<text transform="matrix(1 0 0 1 283.8723 263.0776)" font-family="'MyriadPro-Regular'" font-size="11.0528">7</text>
<rect x="70.606" y="255.23" fill="none" width="15.743" height="10.383"/>
<text transform="matrix(1 0 0 1 70.6057 263.0776)" font-family="'MyriadPro-Regular'" font-size="11.0528">5</text>
<path fill="#FFFFFF" stroke="#000000" stroke-miterlimit="10" d="M222.918,224.303c0,3.329-2.7,6.029-6.029,6.029h-70.423
	c-3.329,0-6.029-2.7-6.029-6.029v-3.604c0-3.33,2.7-6.029,6.029-6.029h70.423c3.329,0,6.029,2.699,6.029,6.029V224.303
	L222.918,224.303z"/>
<path fill="none" d="M220.14,225.972c0,0.877-1.21,1.588-2.704,1.588h-73.021c-1.493,0-2.704-0.711-2.704-1.588v-6.943
	c0-0.877,1.211-1.588,2.704-1.588h73.021c1.494,0,2.704,0.711,2.704,1.588V225.972z"/>
<text transform="matrix(1 0 0 1 158.3289 225.9995)" font-family="'MyriadPro-Regular'" font-size="12.0576">Research</text>
<line fill="none" stroke="#000000" stroke-miterlimit="10" x1="388.2" y1="257.505" x2="574.215" y2="257.505"/>
<line fill="none" stroke="#000000" stroke-miterlimit="10" x1="383.281" y1="247.335" x2="475.139" y2="136.778"/>
<line fill="none" stroke="#000000" stroke-miterlimit="10" x1="491.693" y1="136.778" x2="581.104" y2="247.335"/>
<line fill="none" stroke="#000000" stroke-miterlimit="10" x1="573.782" y1="188.284" x2="430.444" y2="188.284"/>
<line fill="none" stroke="#000000" stroke-miterlimit="10" x1="482.642" y1="140.386" x2="482.642" y2="245.694"/>
<line fill="none" stroke="#000000" stroke-miterlimit="10" x1="388.2" y1="251.928" x2="536.398" y2="189.778"/>
<line fill="none" stroke="#000000" stroke-miterlimit="10" x1="430.444" y1="189.778" x2="576.184" y2="251.928"/>
<line fill="none" stroke="#000000" stroke-miterlimit="10" x1="430.444" y1="192.057" x2="475.139" y2="249.96"/>
<line fill="none" stroke="#000000" stroke-miterlimit="10" x1="491.693" y1="249.96" x2="536.398" y2="192.057"/>
<circle fill="#FFFFFF" stroke="#000000" stroke-miterlimit="10" cx="483.381" cy="128.536" r="11.85"/>
<circle fill="#FFFFFF" stroke="#000000" stroke-miterlimit="10" cx="539.52" cy="188.284" r="11.85"/>
<circle fill="#FFFFFF" stroke="#000000" stroke-miterlimit="10" cx="585.635" cy="188.284" r="11.85"/>
<circle fill="#FFFFFF" stroke="#000000" stroke-miterlimit="10" cx="430.444" cy="188.284" r="11.85"/>
<circle fill="#FFFFFF" stroke="#000000" stroke-miterlimit="10" cx="483.381" cy="257.505" r="11.85"/>
<circle fill="#FFFFFF" stroke="#000000" stroke-miterlimit="10" cx="586.065" cy="257.505" r="11.85"/>
<circle fill="#FFFFFF" stroke="#000000" stroke-miterlimit="10" cx="377.701" cy="257.505" r="11.85"/>
<rect x="427.075" y="184.183" fill="none" width="15.419" height="10.17"/>
<text transform="matrix(1 0 0 1 427.0754 191.8687)" font-family="'MyriadPro-Regular'" font-size="10.8261">1</text>
<rect x="536.567" y="183.856" fill="none" width="15.419" height="10.17"/>
<text transform="matrix(1 0 0 1 536.5667 191.5425)" font-family="'MyriadPro-Regular'" font-size="10.8261">2</text>
<rect x="582.926" y="183.856" fill="none" width="15.42" height="10.17"/>
<text transform="matrix(1 0 0 1 582.926 191.5425)" font-family="'MyriadPro-Regular'" font-size="10.8261">3</text>
<rect x="479.977" y="123.943" fill="none" width="15.42" height="10.17"/>
<text transform="matrix(1 0 0 1 479.9758 131.6284)" font-family="'MyriadPro-Regular'" font-size="10.8261">4</text>
<rect x="480.469" y="253.405" fill="none" width="15.42" height="10.17"/>
<text transform="matrix(1 0 0 1 480.469 261.0913)" font-family="'MyriadPro-Regular'" font-size="10.8261">6</text>
<rect x="583.479" y="252.913" fill="none" width="15.42" height="10.17"/>
<text transform="matrix(1 0 0 1 583.4788 260.5991)" font-family="'MyriadPro-Regular'" font-size="10.8261">7</text>
<rect x="374.586" y="252.913" fill="none" width="15.421" height="10.17"/>
<text transform="matrix(1 0 0 1 374.5862 260.5991)" font-family="'MyriadPro-Regular'" font-size="10.8261">5</text>
<path fill="#FFFFFF" stroke="#000000" stroke-miterlimit="10" d="M523.775,222.619c0,3.262-2.644,5.905-5.906,5.905h-68.978
	c-3.261,0-5.905-2.644-5.905-5.905v-3.533c0-3.261,2.646-5.905,5.905-5.905h68.978c3.264,0,5.906,2.644,5.906,5.905V222.619z"/>
<path fill="none" d="M521.053,224.253c0,0.859-1.188,1.556-2.648,1.556H446.88c-1.462,0-2.649-0.696-2.649-1.556v-6.801
	c0-0.859,1.188-1.555,2.649-1.555h71.522c1.463,0,2.648,0.696,2.648,1.555L521.053,224.253L521.053,224.253z"/>
<text transform="matrix(1 0 0 1 463.8167 224.2827)" font-family="'MyriadPro-Regular'" font-size="11.8103">Idiation</text>
<line fill="none" stroke="#000000" stroke-miterlimit="10" x1="703.724" y1="254.931" x2="908.744" y2="254.931"/>
<line fill="none" stroke="#000000" stroke-miterlimit="10" x1="698.3" y1="243.723" x2="799.545" y2="121.866"/>
<line fill="none" stroke="#000000" stroke-miterlimit="10" x1="817.791" y1="121.866" x2="916.339" y2="243.723"/>
<line fill="none" stroke="#000000" stroke-miterlimit="10" x1="908.272" y1="178.636" x2="750.281" y2="178.636"/>
<line fill="none" stroke="#000000" stroke-miterlimit="10" x1="807.815" y1="125.843" x2="807.815" y2="241.914"/>
<line fill="none" stroke="#000000" stroke-miterlimit="10" x1="703.724" y1="248.785" x2="867.065" y2="180.282"/>
<line fill="none" stroke="#000000" stroke-miterlimit="10" x1="750.281" y1="180.282" x2="910.916" y2="248.785"/>
<line fill="none" stroke="#000000" stroke-miterlimit="10" x1="750.281" y1="182.793" x2="799.545" y2="246.615"/>
<line fill="none" stroke="#000000" stroke-miterlimit="10" x1="817.791" y1="246.615" x2="867.065" y2="182.793"/>
<circle fill="#FFFFFF" stroke="#000000" stroke-miterlimit="10" cx="808.629" cy="112.782" r="13.061"/>
<circle fill="#FFFFFF" stroke="#000000" stroke-miterlimit="10" cx="870.506" cy="178.636" r="13.062"/>
<circle fill="#FFFFFF" stroke="#000000" stroke-miterlimit="10" cx="921.331" cy="178.636" r="13.061"/>
<circle fill="#FFFFFF" stroke="#000000" stroke-miterlimit="10" cx="750.281" cy="178.636" r="13.062"/>
<circle fill="#FFFFFF" stroke="#000000" stroke-miterlimit="10" cx="808.629" cy="254.931" r="13.061"/>
<circle fill="#FFFFFF" stroke="#000000" stroke-miterlimit="10" cx="921.808" cy="254.931" r="13.062"/>
<circle fill="#FFFFFF" stroke="#000000" stroke-miterlimit="10" cx="692.152" cy="254.931" r="13.061"/>
<rect x="746.571" y="174.116" fill="none" width="16.995" height="11.21"/>
<text transform="matrix(1 0 0 1 746.5706 182.5874)" font-family="'MyriadPro-Regular'" font-size="11.9326">1</text>
<rect x="867.25" y="173.755" fill="none" width="16.994" height="11.21"/>
<text transform="matrix(1 0 0 1 867.2502 182.228)" font-family="'MyriadPro-Regular'" font-size="11.9326">2</text>
<rect x="918.349" y="173.755" fill="none" width="16.994" height="11.21"/>
<text transform="matrix(1 0 0 1 918.3479 182.228)" font-family="'MyriadPro-Regular'" font-size="11.9326">3</text>
<rect x="804.878" y="107.72" fill="none" width="16.994" height="11.21"/>
<text transform="matrix(1 0 0 1 804.8772 116.1909)" font-family="'MyriadPro-Regular'" font-size="11.9326">4</text>
<rect x="805.42" y="250.412" fill="none" width="16.994" height="11.209"/>
<text transform="matrix(1 0 0 1 805.4202 258.8853)" font-family="'MyriadPro-Regular'" font-size="11.9326">6</text>
<rect x="918.955" y="249.87" fill="none" width="16.996" height="11.209"/>
<text transform="matrix(1 0 0 1 918.9573 258.3413)" font-family="'MyriadPro-Regular'" font-size="11.9326">7</text>
<rect x="688.716" y="249.87" fill="none" width="16.996" height="11.209"/>
<text transform="matrix(1 0 0 1 688.7151 258.3413)" font-family="'MyriadPro-Regular'" font-size="11.9326">5</text>
<path fill="#FFFFFF" stroke="#000000" stroke-miterlimit="10" d="M853.151,216.48c0,3.595-2.914,6.509-6.508,6.509h-76.028
	c-3.595,0-6.509-2.914-6.509-6.509v-3.894c0-3.595,2.914-6.509,6.509-6.509h76.028c3.594,0,6.508,2.914,6.508,6.509V216.48z"/>
<path fill="none" d="M850.152,218.282c0,0.947-1.308,1.715-2.92,1.715h-78.833c-1.613,0-2.92-0.768-2.92-1.715v-7.496
	c0-0.947,1.307-1.715,2.92-1.715h78.833c1.612,0,2.92,0.768,2.92,1.715V218.282z"/>
<text transform="matrix(1 0 0 1 775.2268 218.314)" font-family="'MyriadPro-Regular'" font-size="13.0173">Prototyping</text>
<line fill="none" stroke="#000000" stroke-miterlimit="10" x1="1024.899" y1="264.59" x2="1243.921" y2="264.59"/>
<line fill="none" stroke="#000000" stroke-miterlimit="10" x1="1019.105" y1="253.686" x2="1127.264" y2="135.138"/>
<line fill="none" stroke="#000000" stroke-miterlimit="10" x1="1146.756" y1="135.138" x2="1252.031" y2="253.686"/>
<line fill="none" stroke="#000000" stroke-miterlimit="10" x1="1243.411" y1="190.366" x2="1074.639" y2="190.366"/>
<line fill="none" stroke="#000000" stroke-miterlimit="10" x1="1136.099" y1="139.006" x2="1136.099" y2="251.926"/>
<line fill="none" stroke="#000000" stroke-miterlimit="10" x1="1024.899" y1="258.611" x2="1199.394" y2="191.968"/>
<line fill="none" stroke="#000000" stroke-miterlimit="10" x1="1074.639" y1="191.968" x2="1246.238" y2="258.611"/>
<line fill="none" stroke="#000000" stroke-miterlimit="10" x1="1074.639" y1="194.411" x2="1127.264" y2="256.5"/>
<line fill="none" stroke="#000000" stroke-miterlimit="10" x1="1146.756" y1="256.5" x2="1199.394" y2="194.411"/>
<ellipse fill="#FFFFFF" stroke="#000000" stroke-miterlimit="10" cx="1136.968" cy="126.3" rx="13.954" ry="12.706"/>
<ellipse fill="#FFFFFF" stroke="#000000" stroke-miterlimit="10" cx="1203.068" cy="190.366" rx="13.953" ry="12.707"/>
<ellipse fill="#FFFFFF" stroke="#000000" stroke-miterlimit="10" cx="1257.365" cy="190.366" rx="13.953" ry="12.707"/>
<ellipse fill="#FFFFFF" stroke="#000000" stroke-miterlimit="10" cx="1074.638" cy="190.366" rx="13.953" ry="12.707"/>
<ellipse fill="#FFFFFF" stroke="#000000" stroke-miterlimit="10" cx="1136.968" cy="264.59" rx="13.954" ry="12.707"/>
<ellipse fill="#FFFFFF" stroke="#000000" stroke-miterlimit="10" cx="1257.873" cy="264.59" rx="13.952" ry="12.707"/>
<ellipse fill="#FFFFFF" stroke="#000000" stroke-miterlimit="10" cx="1012.536" cy="264.59" rx="13.953" ry="12.707"/>
<rect x="1070.673" y="185.968" fill="none" width="18.153" height="10.906"/>
<text transform="matrix(1.0981 0 0 1 1070.6721 194.2095)" font-family="'MyriadPro-Regular'" font-size="11.6086">1</text>
<rect x="1199.592" y="185.618" fill="none" width="18.154" height="10.906"/>
<text transform="matrix(1.0981 0 0 1 1199.592 193.8589)" font-family="'MyriadPro-Regular'" font-size="11.6086">2</text>
<rect x="1254.177" y="185.618" fill="none" width="18.155" height="10.906"/>
<text transform="matrix(1.0981 0 0 1 1254.178 193.8589)" font-family="'MyriadPro-Regular'" font-size="11.6086">3</text>
<rect x="1132.959" y="121.375" fill="none" width="18.156" height="10.905"/>
<text transform="matrix(1.0981 0 0 1 1132.9592 129.6167)" font-family="'MyriadPro-Regular'" font-size="11.6086">4</text>
<rect x="1133.537" y="260.193" fill="none" width="18.157" height="10.905"/>
<text transform="matrix(1.0981 0 0 1 1133.5393 268.4351)" font-family="'MyriadPro-Regular'" font-size="11.6086">6</text>
<rect x="1253.573" y="259.341" fill="none" width="18.913" height="12.474"/>
<text transform="matrix(1 0 0 1 1253.5745 268.7671)" font-family="'MyriadPro-Regular'" font-size="13.2783">7</text>
<rect x="1008.866" y="259.666" fill="none" width="18.156" height="10.905"/>
<text transform="matrix(1.0981 0 0 1 1008.8694 267.9077)" font-family="'MyriadPro-Regular'" font-size="11.6086">5</text>
<path fill="#FFFFFF" stroke="#000000" stroke-miterlimit="10" d="M1184.53,227.183c0,3.497-3.113,6.332-6.953,6.332h-81.219
	c-3.839,0-6.953-2.835-6.953-6.332v-3.788c0-3.498,3.114-6.332,6.953-6.332h81.219c3.84,0,6.953,2.834,6.953,6.332V227.183z"/>
<path fill="none" d="M1181.323,228.936c0,0.921-1.396,1.667-3.116,1.667h-84.218c-1.723,0-3.119-0.747-3.119-1.667v-7.292
	c0-0.921,1.396-1.668,3.119-1.668h84.218c1.722,0,3.116,0.747,3.116,1.668V228.936z"/>
<text transform="matrix(1.0981 0 0 1 1114.7327 228.9663)" font-family="'MyriadPro-Regular'" font-size="12.6639">Testing</text>
<line fill="none" stroke="#000000" stroke-miterlimit="10" x1="691.077" y1="470.117" x2="892.28" y2="470.117"/>
<line fill="none" stroke="#000000" stroke-miterlimit="10" x1="685.757" y1="459.123" x2="785.114" y2="339.604"/>
<line fill="none" stroke="#000000" stroke-miterlimit="10" x1="803.02" y1="339.604" x2="899.732" y2="459.123"/>
<line fill="none" stroke="#000000" stroke-miterlimit="10" x1="891.815" y1="395.285" x2="736.771" y2="395.285"/>
<line fill="none" stroke="#000000" stroke-miterlimit="10" x1="793.23" y1="343.505" x2="793.23" y2="457.349"/>
<line fill="none" stroke="#000000" stroke-miterlimit="10" x1="691.077" y1="464.087" x2="851.375" y2="396.899"/>
<line fill="none" stroke="#000000" stroke-miterlimit="10" x1="736.771" y1="396.899" x2="894.407" y2="464.087"/>
<line fill="none" stroke="#000000" stroke-miterlimit="10" x1="736.771" y1="399.363" x2="785.114" y2="461.96"/>
<line fill="none" stroke="#000000" stroke-miterlimit="10" x1="803.02" y1="461.96" x2="851.375" y2="399.363"/>
<ellipse fill="#FFFFFF" stroke="#000000" stroke-miterlimit="10" cx="794.03" cy="330.695" rx="12.818" ry="12.81"/>
<ellipse fill="#FFFFFF" stroke="#000000" stroke-miterlimit="10" cx="854.752" cy="395.285" rx="12.811" ry="12.811"/>
<ellipse fill="#FFFFFF" stroke="#000000" stroke-miterlimit="10" cx="904.633" cy="395.285" rx="12.816" ry="12.811"/>
<ellipse fill="#FFFFFF" stroke="#000000" stroke-miterlimit="10" cx="736.771" cy="395.285" rx="12.817" ry="12.811"/>
<ellipse fill="#FFFFFF" stroke="#000000" stroke-miterlimit="10" cx="794.03" cy="470.116" rx="12.818" ry="12.812"/>
<ellipse fill="#FFFFFF" stroke="#000000" stroke-miterlimit="10" cx="905.098" cy="470.116" rx="12.818" ry="12.812"/>
<ellipse fill="#FFFFFF" stroke="#000000" stroke-miterlimit="10" cx="679.723" cy="470.116" rx="12.818" ry="12.812"/>
<rect x="733.128" y="390.851" fill="none" width="16.679" height="10.996"/>
<text transform="matrix(1.0006 0 0 1 733.1292 399.1597)" font-family="'MyriadPro-Regular'" font-size="11.7035">1</text>
<rect x="851.559" y="390.498" fill="none" width="16.679" height="10.996"/>
<text transform="matrix(1.0006 0 0 1 851.5588 398.8062)" font-family="'MyriadPro-Regular'" font-size="11.7035">2</text>
<rect x="901.701" y="390.498" fill="none" width="16.681" height="10.996"/>
<text transform="matrix(1.0006 0 0 1 901.7034 398.8062)" font-family="'MyriadPro-Regular'" font-size="11.7035">3</text>
<rect x="790.349" y="325.73" fill="none" width="16.679" height="10.994"/>
<text transform="matrix(1.0006 0 0 1 790.3499 334.0396)" font-family="'MyriadPro-Regular'" font-size="11.7035">4</text>
<rect x="790.881" y="465.683" fill="none" width="16.679" height="10.994"/>
<text transform="matrix(1.0006 0 0 1 790.8811 473.9927)" font-family="'MyriadPro-Regular'" font-size="11.7035">6</text>
<rect x="902.302" y="465.152" fill="none" width="16.679" height="10.992"/>
<text transform="matrix(1.0006 0 0 1 902.303 473.4595)" font-family="'MyriadPro-Regular'" font-size="11.7035">7</text>
<rect x="676.353" y="465.152" fill="none" width="16.68" height="10.992"/>
<text transform="matrix(1.0006 0 0 1 676.3538 473.4595)" font-family="'MyriadPro-Regular'" font-size="11.7035">5</text>
<path fill="#FFFFFF" stroke="#000000" stroke-miterlimit="10" d="M837.722,432.404c0,3.523-2.859,6.383-6.388,6.383h-74.61
	c-3.526,0-6.388-2.857-6.388-6.383v-3.82c0-3.525,2.859-6.383,6.388-6.383h74.61c3.526,0,6.388,2.857,6.388,6.383V432.404z"/>
<path fill="none" d="M834.779,434.169c0,0.928-1.283,1.682-2.865,1.682H754.55c-1.583,0-2.866-0.754-2.866-1.682v-7.352
	c0-0.932,1.283-1.686,2.866-1.686h77.362c1.582,0,2.865,0.754,2.865,1.686L834.779,434.169L834.779,434.169z"/>
<text transform="matrix(1.0006 0 0 1 756.6721 434.2007)" font-family="'MyriadPro-Regular'" font-size="12.7675">Development</text>
<line fill="none" stroke="#000000" stroke-miterlimit="10" x1="1086.193" y1="470.117" x2="1287.396" y2="470.117"/>
<line fill="none" stroke="#000000" stroke-miterlimit="10" x1="1080.87" y1="459.123" x2="1180.229" y2="339.604"/>
<line fill="none" stroke="#000000" stroke-miterlimit="10" x1="1198.135" y1="339.604" x2="1294.847" y2="459.123"/>
<line fill="none" stroke="#000000" stroke-miterlimit="10" x1="1286.93" y1="395.285" x2="1131.886" y2="395.285"/>
<line fill="none" stroke="#000000" stroke-miterlimit="10" x1="1188.346" y1="343.505" x2="1188.346" y2="457.349"/>
<line fill="none" stroke="#000000" stroke-miterlimit="10" x1="1086.193" y1="464.087" x2="1246.49" y2="396.899"/>
<line fill="none" stroke="#000000" stroke-miterlimit="10" x1="1131.886" y1="396.899" x2="1289.524" y2="464.087"/>
<line fill="none" stroke="#000000" stroke-miterlimit="10" x1="1131.886" y1="399.363" x2="1180.229" y2="461.96"/>
<line fill="none" stroke="#000000" stroke-miterlimit="10" x1="1198.135" y1="461.96" x2="1246.49" y2="399.363"/>
<ellipse fill="#FFFFFF" stroke="#000000" stroke-miterlimit="10" cx="1189.145" cy="330.695" rx="12.818" ry="12.81"/>
<ellipse fill="#FFFFFF" stroke="#000000" stroke-miterlimit="10" cx="1249.865" cy="395.285" rx="12.817" ry="12.811"/>
<ellipse fill="#FFFFFF" stroke="#000000" stroke-miterlimit="10" cx="1299.745" cy="395.285" rx="12.817" ry="12.811"/>
<ellipse fill="#FFFFFF" stroke="#000000" stroke-miterlimit="10" cx="1131.885" cy="395.285" rx="12.811" ry="12.811"/>
<ellipse fill="#FFFFFF" stroke="#000000" stroke-miterlimit="10" cx="1189.145" cy="470.116" rx="12.818" ry="12.812"/>
<ellipse fill="#FFFFFF" stroke="#000000" stroke-miterlimit="10" cx="1300.213" cy="470.116" rx="12.812" ry="12.812"/>
<ellipse fill="#FFFFFF" stroke="#000000" stroke-miterlimit="10" cx="1074.838" cy="470.116" rx="12.812" ry="12.812"/>
<rect x="1128.241" y="390.851" fill="none" width="16.679" height="10.996"/>
<text transform="matrix(1.0006 0 0 1 1128.2424 399.1597)" font-family="'MyriadPro-Regular'" font-size="11.7035">1</text>
<rect x="1246.673" y="390.498" fill="none" width="16.68" height="10.996"/>
<text transform="matrix(1.0006 0 0 1 1246.6721 398.8062)" font-family="'MyriadPro-Regular'" font-size="11.7035">2</text>
<rect x="1296.818" y="390.498" fill="none" width="16.678" height="10.996"/>
<text transform="matrix(1.0006 0 0 1 1296.8186 398.8062)" font-family="'MyriadPro-Regular'" font-size="11.7035">3</text>
<rect x="1185.463" y="325.73" fill="none" width="16.68" height="10.994"/>
<text transform="matrix(1.0006 0 0 1 1185.4631 334.0396)" font-family="'MyriadPro-Regular'" font-size="11.7035">4</text>
<rect x="1185.993" y="465.683" fill="none" width="16.682" height="10.994"/>
<text transform="matrix(1.0006 0 0 1 1185.9944 473.9927)" font-family="'MyriadPro-Regular'" font-size="11.7035">6</text>
<rect x="1297.416" y="465.152" fill="none" width="16.679" height="10.992"/>
<text transform="matrix(1.0006 0 0 1 1297.4143 473.4595)" font-family="'MyriadPro-Regular'" font-size="11.7035">7</text>
<rect x="1071.467" y="465.152" fill="none" width="16.681" height="10.992"/>
<text transform="matrix(1.0006 0 0 1 1071.467 473.4595)" font-family="'MyriadPro-Regular'" font-size="11.7035">5</text>
<path fill="#FFFFFF" stroke="#000000" stroke-miterlimit="10" d="M1232.837,432.404c0,3.523-2.86,6.383-6.39,6.383h-74.608
	c-3.527,0-6.389-2.857-6.389-6.383v-3.82c0-3.525,2.859-6.383,6.389-6.383h74.608c3.527,0,6.39,2.857,6.39,6.383V432.404z"/>
<path fill="none" d="M1229.894,434.169c0,0.928-1.282,1.682-2.865,1.682h-77.364c-1.582,0-2.863-0.754-2.863-1.682v-7.352
	c0-0.932,1.281-1.686,2.863-1.686h77.364c1.583,0,2.865,0.754,2.865,1.686V434.169z"/>
<text transform="matrix(1.0006 0 0 1 1168.1956 434.2007)" font-family="'MyriadPro-Regular'" font-size="12.7675">Release</text>
<line fill="none" stroke="#000000" stroke-miterlimit="10" x1="1010.87" y1="691.32" x2="1110.229" y2="571.8"/>
<line fill="none" stroke="#000000" stroke-miterlimit="10" x1="1216.93" y1="627.482" x2="1061.886" y2="627.482"/>
<line fill="none" stroke="#000000" stroke-miterlimit="10" x1="1118.346" y1="575.703" x2="1118.346" y2="689.544"/>
<line fill="none" stroke="#000000" stroke-miterlimit="10" x1="1016.193" y1="696.285" x2="1176.49" y2="629.095"/>
<line fill="none" stroke="#000000" stroke-miterlimit="10" x1="1061.886" y1="631.56" x2="1110.229" y2="694.156"/>
<line fill="none" stroke="#000000" stroke-miterlimit="10" x1="1128.135" y1="694.156" x2="1176.49" y2="631.56"/>
<ellipse fill="#FFFFFF" stroke="#000000" stroke-miterlimit="10" cx="1119.145" cy="562.892" rx="12.818" ry="12.811"/>
<ellipse fill="#FFFFFF" stroke="#000000" stroke-miterlimit="10" cx="1179.865" cy="627.481" rx="12.817" ry="12.812"/>
<ellipse fill="#FFFFFF" stroke="#000000" stroke-miterlimit="10" cx="1229.745" cy="627.481" rx="12.817" ry="12.812"/>
<ellipse fill="#FFFFFF" stroke="#000000" stroke-miterlimit="10" cx="1061.885" cy="627.481" rx="12.812" ry="12.812"/>
<ellipse fill="#FFFFFF" stroke="#000000" stroke-miterlimit="10" cx="1119.145" cy="702.312" rx="12.818" ry="12.811"/>
<ellipse fill="#FFFFFF" stroke="#000000" stroke-miterlimit="10" cx="1004.838" cy="702.312" rx="12.816" ry="12.811"/>
<rect x="1058.241" y="623.046" fill="none" width="16.679" height="10.996"/>
<text transform="matrix(1.0006 0 0 1 1058.2424 631.356)" font-family="'MyriadPro-Regular'" font-size="11.7035">1</text>
<rect x="1176.673" y="622.695" fill="none" width="16.68" height="10.994"/>
<text transform="matrix(1.0006 0 0 1 1176.6721 631.0034)" font-family="'MyriadPro-Regular'" font-size="11.7035">2</text>
<rect x="1226.818" y="622.695" fill="none" width="16.678" height="10.994"/>
<text transform="matrix(1.0006 0 0 1 1226.8186 631.0034)" font-family="'MyriadPro-Regular'" font-size="11.7035">3</text>
<rect x="1115.463" y="557.925" fill="none" width="16.68" height="10.994"/>
<text transform="matrix(1.0006 0 0 1 1115.4631 566.2349)" font-family="'MyriadPro-Regular'" font-size="11.7035">4</text>
<rect x="1115.993" y="697.878" fill="none" width="16.682" height="10.996"/>
<text transform="matrix(1.0006 0 0 1 1115.9944 706.189)" font-family="'MyriadPro-Regular'" font-size="11.7035">6</text>
<rect x="1227.416" y="697.347" fill="none" width="16.679" height="10.994"/>
<text transform="matrix(1.0006 0 0 1 1227.4143 705.6558)" font-family="'MyriadPro-Regular'" font-size="11.7035">7</text>
<rect x="1001.467" y="697.347" fill="none" width="16.681" height="10.994"/>
<text transform="matrix(1.0006 0 0 1 1001.467 705.6558)" font-family="'MyriadPro-Regular'" font-size="11.7035">5</text>
<path fill="#FFFFFF" stroke="#000000" stroke-miterlimit="10" d="M1162.837,664.599c0,3.525-2.86,6.385-6.39,6.385h-74.608
	c-3.527,0-6.389-2.859-6.389-6.385v-3.818c0-3.527,2.859-6.385,6.389-6.385h74.608c3.527,0,6.39,2.857,6.39,6.385V664.599z"/>
<path fill="none" d="M1159.894,666.367c0,0.928-1.282,1.682-2.865,1.682h-77.364c-1.582,0-2.863-0.754-2.863-1.682v-7.354
	c0-0.928,1.281-1.682,2.863-1.682h77.364c1.583,0,2.865,0.754,2.865,1.682V666.367z"/>
<text transform="matrix(1.0006 0 0 1 1079.3596 666.396)" font-family="'MyriadPro-Regular'" font-size="12.7675">User Feedback</text>
<path fill="none" stroke="#009FE3" stroke-miterlimit="10" d="M126.373,176.434v-73.618c0-15.226,12.343-27.568,27.567-27.568
	l355.767,2c15.227,0,27.568,12.343,27.568,27.568v71.3"/>
<path fill="none" stroke="#009FE3" stroke-width="3" stroke-linecap="round" stroke-linejoin="round" stroke-miterlimit="10" stroke-dasharray="0.1,6" d="
	M1013.686,252.352V139.897c0-15.226-12.342-27.568-27.568-27.568H821.872"/>
<path fill="none" stroke="#009FE3" stroke-width="3" stroke-linecap="round" stroke-linejoin="round" stroke-miterlimit="10" stroke-dasharray="0.1,6" d="
	M1011.489,278.063v213.815c0,15.225-12.342,27.568-27.567,27.568H821.156c-15.227,0-27.567-12.344-27.567-27.568l-0.001-9.301"/>
<path fill="none" stroke="#009FE3" stroke-width="3" stroke-linecap="round" stroke-linejoin="round" stroke-miterlimit="10" stroke-dasharray="0.1,6" d="
	M1013.586,278.063v213.815c0,15.225,12.342,27.568,27.567,27.568h231.766c15.227,0,27.567-12.344,27.567-27.568l0.001-8.301"/>
<path fill="none" stroke="#009FE3" stroke-width="3" stroke-linecap="round" stroke-linejoin="round" stroke-miterlimit="10" stroke-dasharray="0.1,6" d="
	M1075.062,483.001v51.816c0,15.225,12.342,27.566,27.568,27.566h3.695"/>
<line fill="none" stroke="#009FE3" stroke-miterlimit="10" x1="188.667" y1="692.607" x2="250.568" y2="692.607"/>
<g>
	<g>
		
			<line fill="none" stroke="#009FE3" stroke-width="3" stroke-linecap="round" stroke-linejoin="round" x1="188.667" y1="710.488" x2="188.717" y2="710.488"/>
		
			<line fill="none" stroke="#009FE3" stroke-width="3" stroke-linecap="round" stroke-linejoin="round" stroke-dasharray="0.1015,6.0888" x1="194.805" y1="710.488" x2="247.474" y2="710.488"/>
		
			<line fill="none" stroke="#009FE3" stroke-width="3" stroke-linecap="round" stroke-linejoin="round" x1="250.518" y1="710.488" x2="250.568" y2="710.488"/>
	</g>
</g>
<rect x="49.7" y="684.955" fill="none" width="128.226" height="20.836"/>
<text transform="matrix(1 0 0 1 49.7 695.9331)" font-family="'MyriadPro-Regular'" font-size="15.4645">informations flows</text>
<rect x="49.7" y="702.998" fill="none" width="102.236" height="20.834"/>
<text transform="matrix(1 0 0 1 49.7 713.9761)" font-family="'MyriadPro-Regular'" font-size="15.4645">iterations</text>
<path fill="none" stroke="#009FE3" stroke-width="3" stroke-linecap="round" stroke-linejoin="round" stroke-miterlimit="10" stroke-dasharray="0.1,6" d="
	M1244.253,700.685h73.618c15.225,0,27.567-12.342,27.567-27.566V287.352c0-15.227-9.344-25.568-24.567-25.568h-48.386"/>
<g>
	<g>
		
			<line fill="none" stroke="#009FE3" stroke-width="3" stroke-linecap="square" stroke-linejoin="bevel" stroke-dasharray="2,9" x1="188.983" y1="730.471" x2="189.032" y2="730.471"/>
		
			<line fill="none" stroke="#009FE3" stroke-width="3" stroke-linecap="square" stroke-linejoin="bevel" stroke-dasharray="2,9" x1="195.12" y1="730.471" x2="247.789" y2="730.471"/>
		
			<line fill="none" stroke="#009FE3" stroke-width="3" stroke-linecap="square" stroke-linejoin="bevel" stroke-dasharray="2,9" x1="250.833" y1="730.471" x2="250.883" y2="730.471"/>
	</g>
</g>
<text transform="matrix(1 0 0 1 50.0154 733.9595)" font-family="'MyriadPro-Regular'" font-size="15.4645">money flow</text>
<line fill="none" stroke="#000000" stroke-miterlimit="10" x1="166.113" y1="571.636" x2="371.134" y2="571.636"/>
<line fill="none" stroke="#000000" stroke-miterlimit="10" x1="160.689" y1="560.428" x2="261.934" y2="438.572"/>
<line fill="none" stroke="#000000" stroke-miterlimit="10" x1="280.18" y1="438.572" x2="378.728" y2="560.428"/>
<line fill="none" stroke="#000000" stroke-miterlimit="10" x1="370.661" y1="495.341" x2="212.671" y2="495.341"/>
<line fill="none" stroke="#000000" stroke-miterlimit="10" x1="270.204" y1="442.548" x2="270.204" y2="558.619"/>
<line fill="none" stroke="#000000" stroke-miterlimit="10" x1="166.113" y1="565.49" x2="329.454" y2="496.988"/>
<line fill="none" stroke="#000000" stroke-miterlimit="10" x1="212.671" y1="496.988" x2="373.305" y2="565.49"/>
<line fill="none" stroke="#000000" stroke-miterlimit="10" x1="212.671" y1="499.498" x2="261.934" y2="563.32"/>
<line fill="none" stroke="#000000" stroke-miterlimit="10" x1="280.18" y1="563.32" x2="329.454" y2="499.498"/>
<circle fill="#FFFFFF" stroke="#000000" stroke-miterlimit="10" cx="271.018" cy="429.487" r="13.061"/>
<circle fill="#FFFFFF" stroke="#000000" stroke-miterlimit="10" cx="332.895" cy="495.341" r="13.062"/>
<circle fill="#FFFFFF" stroke="#000000" stroke-miterlimit="10" cx="383.72" cy="495.341" r="13.061"/>
<circle fill="#FFFFFF" stroke="#000000" stroke-miterlimit="10" cx="212.671" cy="495.341" r="13.062"/>
<circle fill="#FFFFFF" stroke="#000000" stroke-miterlimit="10" cx="271.018" cy="571.636" r="13.061"/>
<circle fill="#FFFFFF" stroke="#000000" stroke-miterlimit="10" cx="384.197" cy="571.636" r="13.062"/>
<circle fill="#FFFFFF" stroke="#000000" stroke-miterlimit="10" cx="154.541" cy="571.636" r="13.061"/>
<rect x="208.96" y="490.822" fill="none" width="16.995" height="11.209"/>
<text transform="matrix(1 0 0 1 208.9597 499.2925)" font-family="'MyriadPro-Regular'" font-size="11.9326">1</text>
<rect x="329.639" y="490.46" fill="none" width="16.994" height="11.209"/>
<text transform="matrix(1 0 0 1 329.6389 498.9331)" font-family="'MyriadPro-Regular'" font-size="11.9326">2</text>
<rect x="380.738" y="490.46" fill="none" width="16.994" height="11.209"/>
<text transform="matrix(1 0 0 1 380.7371 498.9331)" font-family="'MyriadPro-Regular'" font-size="11.9326">3</text>
<rect x="267.267" y="424.425" fill="none" width="16.994" height="11.21"/>
<text transform="matrix(1 0 0 1 267.2664 432.896)" font-family="'MyriadPro-Regular'" font-size="11.9326">4</text>
<rect x="267.809" y="567.117" fill="none" width="16.994" height="11.209"/>
<text transform="matrix(1 0 0 1 267.8093 575.5903)" font-family="'MyriadPro-Regular'" font-size="11.9326">6</text>
<rect x="381.344" y="566.576" fill="none" width="16.996" height="11.209"/>
<text transform="matrix(1 0 0 1 381.3464 575.0464)" font-family="'MyriadPro-Regular'" font-size="11.9326">7</text>
<rect x="151.105" y="566.576" fill="none" width="16.996" height="11.209"/>
<text transform="matrix(1 0 0 1 151.1042 575.0464)" font-family="'MyriadPro-Regular'" font-size="11.9326">5</text>
<path fill="#FFFFFF" stroke="#000000" stroke-miterlimit="10" d="M315.54,533.185c0,3.596-2.914,6.51-6.508,6.51h-76.028
	c-3.595,0-6.509-2.914-6.509-6.51v-3.895c0-3.594,2.914-6.508,6.509-6.508h76.028c3.594,0,6.508,2.914,6.508,6.508V533.185z"/>
<path fill="none" d="M312.541,534.988c0,0.946-1.308,1.715-2.92,1.715h-78.833c-1.613,0-2.92-0.769-2.92-1.715v-7.496
	c0-0.947,1.307-1.716,2.92-1.716h78.833c1.612,0,2.92,0.769,2.92,1.716V534.988z"/>
<text transform="matrix(1 0 0 1 250.9568 535.019)" font-family="'MyriadPro-Regular'" font-size="13.0173">Funding</text>
<path fill="none" stroke="#009FE3" stroke-width="3" stroke-linecap="round" stroke-linejoin="round" stroke-miterlimit="10" stroke-dasharray="0.1,6" d="
	M597.599,500.502"/>
<path fill="none" stroke="#009FE3" stroke-width="3" stroke-linecap="square" stroke-linejoin="bevel" stroke-dasharray="2,9" d="
	M679.091,252.94h-24.664c-15.226,0-27.568,12.342-27.568,27.568v0.187V544.51c0,15.225-12.342,27.568-27.567,27.568H396.526"/>
<path fill="none" stroke="#009FE3" stroke-width="3" stroke-linecap="square" stroke-linejoin="bevel" stroke-dasharray="2,9" d="
	M626.859,465.683"/>
<polyline fill="none" stroke="#009FE3" stroke-width="3" stroke-linecap="square" stroke-linejoin="bevel" stroke-dasharray="2,9" points="
	666.905,470.117 626.859,470.117 626.859,308.23 "/>
<line fill="none" stroke="#009FE3" stroke-width="3" stroke-linecap="square" stroke-linejoin="bevel" stroke-dasharray="2,9" x1="985.204" y1="308.437" x2="627.263" y2="308.437"/>
<path fill="none" stroke="#009FE3" stroke-width="3" stroke-linecap="square" stroke-linejoin="bevel" stroke-dasharray="2,9" d="
	M1012.368,277.297v3.572c0,15.225-12.342,27.568-27.568,27.568"/>
</svg>
