<?xml version="1.0" encoding="utf-8"?>
<!-- Generator: Adobe Illustrator 16.0.0, SVG Export Plug-In . SVG Version: 6.00 Build 0)  -->
<!DOCTYPE svg PUBLIC "-//W3C//DTD SVG 1.1//EN" "http://www.w3.org/Graphics/SVG/1.1/DTD/svg11.dtd">
<svg version="1.1" id="Livello_2" xmlns="http://www.w3.org/2000/svg" xmlns:xlink="http://www.w3.org/1999/xlink" x="0px" y="0px"
	 width="553.453px" height="388.573px" viewBox="0 0 553.453 388.573" enable-background="new 0 0 553.453 388.573"
	 xml:space="preserve">
<line fill="none" stroke="#000000" stroke-miterlimit="10" x1="-535.079" y1="-956.962" x2="-157.079" y2="-956.962"/>
<line fill="none" stroke="#000000" stroke-miterlimit="10" x1="-545.079" y1="-977.628" x2="-358.413" y2="-1202.294"/>
<line fill="none" stroke="#000000" stroke-miterlimit="10" x1="-324.772" y1="-1202.294" x2="-143.079" y2="-977.628"/>
<line fill="none" stroke="#000000" stroke-miterlimit="10" x1="-157.954" y1="-1097.628" x2="-449.237" y2="-1097.628"/>
<line fill="none" stroke="#000000" stroke-miterlimit="10" x1="-343.164" y1="-1194.962" x2="-343.164" y2="-980.962"/>
<line fill="none" stroke="#000000" stroke-miterlimit="10" x1="-535.079" y1="-968.294" x2="-233.925" y2="-1094.593"/>
<line fill="none" stroke="#000000" stroke-miterlimit="10" x1="-449.237" y1="-1094.593" x2="-153.079" y2="-968.294"/>
<line fill="none" stroke="#000000" stroke-miterlimit="10" x1="-449.237" y1="-1089.962" x2="-358.413" y2="-972.294"/>
<line fill="none" stroke="#000000" stroke-miterlimit="10" x1="-324.772" y1="-972.294" x2="-233.925" y2="-1089.962"/>
<circle fill="#FFFFFF" stroke="#000000" stroke-miterlimit="10" cx="-341.664" cy="-1219.042" r="24.081"/>
<circle fill="#FFFFFF" stroke="#000000" stroke-miterlimit="10" cx="-227.583" cy="-1097.628" r="24.081"/>
<circle fill="#FFFFFF" stroke="#000000" stroke-miterlimit="10" cx="-133.873" cy="-1097.628" r="24.081"/>
<circle fill="#FFFFFF" stroke="#000000" stroke-miterlimit="10" cx="-449.237" cy="-1097.628" r="24.081"/>
<circle fill="#FFFFFF" stroke="#000000" stroke-miterlimit="10" cx="-341.664" cy="-956.962" r="24.081"/>
<circle fill="#FFFFFF" stroke="#000000" stroke-miterlimit="10" cx="-132.998" cy="-956.962" r="24.081"/>
<circle fill="#FFFFFF" stroke="#000000" stroke-miterlimit="10" cx="-556.414" cy="-956.962" r="24.081"/>
<rect x="-456.081" y="-1105.962" fill="none" width="31.335" height="20.668"/>
<text transform="matrix(1 0 0 1 -456.0806 -1090.3418)" font-family="'MyriadPro-Regular'" font-size="22">1</text>
<rect x="-233.583" y="-1106.626" fill="none" width="31.334" height="20.668"/>
<text transform="matrix(1 0 0 1 -233.583 -1091.0059)" font-family="'MyriadPro-Regular'" font-size="22">2</text>
<rect x="-139.375" y="-1106.626" fill="none" width="31.334" height="20.668"/>
<text transform="matrix(1 0 0 1 -139.3755 -1091.0059)" font-family="'MyriadPro-Regular'" font-size="22">3</text>
<rect x="-348.58" y="-1228.376" fill="none" width="31.335" height="20.667"/>
<text transform="matrix(1 0 0 1 -348.5796 -1212.7568)" font-family="'MyriadPro-Regular'" font-size="22">4</text>
<rect x="-347.58" y="-965.295" fill="none" width="31.335" height="20.667"/>
<text transform="matrix(1 0 0 1 -347.5796 -949.6748)" font-family="'MyriadPro-Regular'" font-size="22">6</text>
<rect x="-138.251" y="-966.295" fill="none" width="31.335" height="20.667"/>
<text transform="matrix(1 0 0 1 -138.2515 -950.6748)" font-family="'MyriadPro-Regular'" font-size="22">7</text>
<rect x="-562.747" y="-966.295" fill="none" width="31.336" height="20.667"/>
<text transform="matrix(1 0 0 1 -562.7461 -950.6748)" font-family="'MyriadPro-Regular'" font-size="22">5</text>
<path fill="#FFFFFF" stroke="#000000" stroke-miterlimit="10" d="M-259.579-1027.854c0,6.627-5.372,12-12,12H-411.75
	c-6.627,0-12-5.373-12-12v-7.179c0-6.628,5.373-12,12-12h140.172c6.628,0,12,5.372,12,12V-1027.854z"/>
<path fill="none" d="M-265.108-1024.533c0,1.746-2.41,3.161-5.383,3.161h-145.346c-2.973,0-5.383-1.415-5.383-3.161v-13.82
	c0-1.746,2.41-3.161,5.383-3.161h145.346c2.973,0,5.383,1.415,5.383,3.161V-1024.533z"/>
<text transform="matrix(1 0 0 1 -388.1387 -1024.4746)" font-family="'MyriadPro-Regular'" font-size="24">Research</text>
<line fill="none" stroke="#000000" stroke-miterlimit="10" x1="78.391" y1="-956.962" x2="456.391" y2="-956.962"/>
<line fill="none" stroke="#000000" stroke-miterlimit="10" x1="68.391" y1="-977.628" x2="255.057" y2="-1202.294"/>
<line fill="none" stroke="#000000" stroke-miterlimit="10" x1="288.697" y1="-1202.294" x2="470.391" y2="-977.628"/>
<line fill="none" stroke="#000000" stroke-miterlimit="10" x1="455.516" y1="-1097.628" x2="164.232" y2="-1097.628"/>
<line fill="none" stroke="#000000" stroke-miterlimit="10" x1="270.305" y1="-1194.962" x2="270.305" y2="-980.962"/>
<line fill="none" stroke="#000000" stroke-miterlimit="10" x1="78.391" y1="-968.294" x2="379.543" y2="-1094.593"/>
<line fill="none" stroke="#000000" stroke-miterlimit="10" x1="164.232" y1="-1094.593" x2="460.391" y2="-968.294"/>
<line fill="none" stroke="#000000" stroke-miterlimit="10" x1="164.232" y1="-1089.962" x2="255.057" y2="-972.294"/>
<line fill="none" stroke="#000000" stroke-miterlimit="10" x1="288.697" y1="-972.294" x2="379.543" y2="-1089.962"/>
<circle fill="#FFFFFF" stroke="#000000" stroke-miterlimit="10" cx="271.806" cy="-1219.042" r="24.081"/>
<circle fill="#FFFFFF" stroke="#000000" stroke-miterlimit="10" cx="385.886" cy="-1097.628" r="24.081"/>
<circle fill="#FFFFFF" stroke="#000000" stroke-miterlimit="10" cx="479.597" cy="-1097.628" r="24.081"/>
<circle fill="#FFFFFF" stroke="#000000" stroke-miterlimit="10" cx="164.231" cy="-1097.628" r="24.081"/>
<circle fill="#FFFFFF" stroke="#000000" stroke-miterlimit="10" cx="271.806" cy="-956.962" r="24.081"/>
<circle fill="#FFFFFF" stroke="#000000" stroke-miterlimit="10" cx="480.472" cy="-956.962" r="24.081"/>
<circle fill="#FFFFFF" stroke="#000000" stroke-miterlimit="10" cx="57.056" cy="-956.962" r="24.081"/>
<rect x="157.389" y="-1105.962" fill="none" width="31.334" height="20.668"/>
<text transform="matrix(1 0 0 1 157.3887 -1090.3418)" font-family="'MyriadPro-Regular'" font-size="22">1</text>
<rect x="379.887" y="-1106.626" fill="none" width="31.334" height="20.668"/>
<text transform="matrix(1 0 0 1 379.8867 -1091.0059)" font-family="'MyriadPro-Regular'" font-size="22">2</text>
<rect x="474.094" y="-1106.626" fill="none" width="31.334" height="20.668"/>
<text transform="matrix(1 0 0 1 474.0938 -1091.0059)" font-family="'MyriadPro-Regular'" font-size="22">3</text>
<rect x="264.889" y="-1228.376" fill="none" width="31.336" height="20.667"/>
<text transform="matrix(1 0 0 1 264.8896 -1212.7568)" font-family="'MyriadPro-Regular'" font-size="22">4</text>
<rect x="265.889" y="-965.295" fill="none" width="31.336" height="20.667"/>
<text transform="matrix(1 0 0 1 265.8896 -949.6748)" font-family="'MyriadPro-Regular'" font-size="22">6</text>
<rect x="475.217" y="-966.295" fill="none" width="31.336" height="20.667"/>
<text transform="matrix(1 0 0 1 475.2178 -950.6748)" font-family="'MyriadPro-Regular'" font-size="22">7</text>
<rect x="50.723" y="-966.295" fill="none" width="31.336" height="20.667"/>
<text transform="matrix(1 0 0 1 50.7227 -950.6748)" font-family="'MyriadPro-Regular'" font-size="22">5</text>
<path fill="#FFFFFF" stroke="#000000" stroke-miterlimit="10" d="M353.891-1027.854c0,6.627-5.373,12-12,12H201.719
	c-6.627,0-12-5.373-12-12v-7.179c0-6.628,5.373-12,12-12h140.172c6.627,0,12,5.372,12,12V-1027.854z"/>
<path fill="none" d="M348.361-1024.533c0,1.746-2.41,3.161-5.383,3.161H197.633c-2.973,0-5.383-1.415-5.383-3.161v-13.82
	c0-1.746,2.41-3.161,5.383-3.161h145.346c2.973,0,5.383,1.415,5.383,3.161V-1024.533z"/>
<text transform="matrix(1 0 0 1 232.0508 -1024.4746)" font-family="'MyriadPro-Regular'" font-size="24">Idiation</text>
<line fill="none" stroke="#000000" stroke-miterlimit="10" x1="-535.078" y1="-544.482" x2="-157.078" y2="-544.482"/>
<line fill="none" stroke="#000000" stroke-miterlimit="10" x1="-545.078" y1="-565.148" x2="-358.412" y2="-789.814"/>
<line fill="none" stroke="#000000" stroke-miterlimit="10" x1="-324.771" y1="-789.814" x2="-143.078" y2="-565.148"/>
<line fill="none" stroke="#000000" stroke-miterlimit="10" x1="-157.953" y1="-685.148" x2="-449.236" y2="-685.148"/>
<line fill="none" stroke="#000000" stroke-miterlimit="10" x1="-343.164" y1="-782.482" x2="-343.164" y2="-568.482"/>
<line fill="none" stroke="#000000" stroke-miterlimit="10" x1="-535.078" y1="-555.814" x2="-233.926" y2="-682.113"/>
<line fill="none" stroke="#000000" stroke-miterlimit="10" x1="-449.236" y1="-682.113" x2="-153.078" y2="-555.814"/>
<line fill="none" stroke="#000000" stroke-miterlimit="10" x1="-449.236" y1="-677.482" x2="-358.412" y2="-559.814"/>
<line fill="none" stroke="#000000" stroke-miterlimit="10" x1="-324.771" y1="-559.814" x2="-233.926" y2="-677.482"/>
<circle fill="#FFFFFF" stroke="#000000" stroke-miterlimit="10" cx="-341.663" cy="-806.562" r="24.081"/>
<circle fill="#FFFFFF" stroke="#000000" stroke-miterlimit="10" cx="-227.583" cy="-685.148" r="24.081"/>
<circle fill="#FFFFFF" stroke="#000000" stroke-miterlimit="10" cx="-133.872" cy="-685.148" r="24.081"/>
<circle fill="#FFFFFF" stroke="#000000" stroke-miterlimit="10" cx="-449.237" cy="-685.148" r="24.081"/>
<circle fill="#FFFFFF" stroke="#000000" stroke-miterlimit="10" cx="-341.663" cy="-544.482" r="24.081"/>
<circle fill="#FFFFFF" stroke="#000000" stroke-miterlimit="10" cx="-132.997" cy="-544.482" r="24.081"/>
<circle fill="#FFFFFF" stroke="#000000" stroke-miterlimit="10" cx="-556.413" cy="-544.482" r="24.081"/>
<rect x="-456.08" y="-693.482" fill="none" width="31.334" height="20.668"/>
<text transform="matrix(1 0 0 1 -456.0801 -677.8623)" font-family="'MyriadPro-Regular'" font-size="22">1</text>
<rect x="-233.582" y="-694.146" fill="none" width="31.334" height="20.668"/>
<text transform="matrix(1 0 0 1 -233.5825 -678.5264)" font-family="'MyriadPro-Regular'" font-size="22">2</text>
<rect x="-139.375" y="-694.146" fill="none" width="31.334" height="20.668"/>
<text transform="matrix(1 0 0 1 -139.375 -678.5264)" font-family="'MyriadPro-Regular'" font-size="22">3</text>
<rect x="-348.58" y="-815.896" fill="none" width="31.336" height="20.667"/>
<text transform="matrix(1 0 0 1 -348.5791 -800.2764)" font-family="'MyriadPro-Regular'" font-size="22">4</text>
<rect x="-347.58" y="-552.815" fill="none" width="31.336" height="20.667"/>
<text transform="matrix(1 0 0 1 -347.5791 -537.1963)" font-family="'MyriadPro-Regular'" font-size="22">6</text>
<rect x="-138.252" y="-553.815" fill="none" width="31.336" height="20.667"/>
<text transform="matrix(1 0 0 1 -138.251 -538.1963)" font-family="'MyriadPro-Regular'" font-size="22">7</text>
<rect x="-562.746" y="-553.815" fill="none" width="31.336" height="20.667"/>
<text transform="matrix(1 0 0 1 -562.7456 -538.1963)" font-family="'MyriadPro-Regular'" font-size="22">5</text>
<path fill="#FFFFFF" stroke="#000000" stroke-miterlimit="10" d="M-259.578-615.375c0,6.627-5.373,12-12,12H-411.75
	c-6.627,0-12-5.373-12-12v-7.179c0-6.628,5.373-12,12-12h140.172c6.627,0,12,5.372,12,12V-615.375z"/>
<path fill="none" d="M-265.107-612.054c0,1.746-2.41,3.161-5.383,3.161h-145.346c-2.973,0-5.383-1.415-5.383-3.161v-13.82
	c0-1.746,2.41-3.161,5.383-3.161h145.346c2.973,0,5.383,1.415,5.383,3.161V-612.054z"/>
<text transform="matrix(1 0 0 1 -403.2461 -611.9951)" font-family="'MyriadPro-Regular'" font-size="24">Prototyping</text>
<line fill="none" stroke="#000000" stroke-miterlimit="10" x1="-535.078" y1="-100.784" x2="-157.078" y2="-100.784"/>
<line fill="none" stroke="#000000" stroke-miterlimit="10" x1="-545.078" y1="-121.45" x2="-358.412" y2="-346.116"/>
<line fill="none" stroke="#000000" stroke-miterlimit="10" x1="-324.771" y1="-346.116" x2="-143.078" y2="-121.45"/>
<line fill="none" stroke="#000000" stroke-miterlimit="10" x1="-157.953" y1="-241.45" x2="-449.236" y2="-241.45"/>
<line fill="none" stroke="#000000" stroke-miterlimit="10" x1="-343.164" y1="-338.784" x2="-343.164" y2="-124.784"/>
<line fill="none" stroke="#000000" stroke-miterlimit="10" x1="-535.078" y1="-112.116" x2="-233.926" y2="-238.415"/>
<line fill="none" stroke="#000000" stroke-miterlimit="10" x1="-449.236" y1="-238.415" x2="-153.078" y2="-112.116"/>
<line fill="none" stroke="#000000" stroke-miterlimit="10" x1="-449.236" y1="-233.784" x2="-358.412" y2="-116.116"/>
<line fill="none" stroke="#000000" stroke-miterlimit="10" x1="-324.771" y1="-116.116" x2="-233.926" y2="-233.784"/>
<circle fill="#FFFFFF" stroke="#000000" stroke-miterlimit="10" cx="-341.663" cy="-362.864" r="24.081"/>
<circle fill="#FFFFFF" stroke="#000000" stroke-miterlimit="10" cx="-227.583" cy="-241.45" r="24.081"/>
<circle fill="#FFFFFF" stroke="#000000" stroke-miterlimit="10" cx="-133.872" cy="-241.45" r="24.081"/>
<circle fill="#FFFFFF" stroke="#000000" stroke-miterlimit="10" cx="-449.237" cy="-241.45" r="24.081"/>
<circle fill="#FFFFFF" stroke="#000000" stroke-miterlimit="10" cx="-341.663" cy="-100.784" r="24.081"/>
<circle fill="#FFFFFF" stroke="#000000" stroke-miterlimit="10" cx="-132.997" cy="-100.784" r="24.081"/>
<circle fill="#FFFFFF" stroke="#000000" stroke-miterlimit="10" cx="-556.413" cy="-100.784" r="24.081"/>
<rect x="-456.08" y="-249.784" fill="none" width="31.334" height="20.668"/>
<text transform="matrix(1 0 0 1 -456.0801 -234.1641)" font-family="'MyriadPro-Regular'" font-size="22">1</text>
<rect x="-233.582" y="-250.448" fill="none" width="31.334" height="20.668"/>
<text transform="matrix(1 0 0 1 -233.5825 -234.8281)" font-family="'MyriadPro-Regular'" font-size="22">2</text>
<rect x="-139.375" y="-250.448" fill="none" width="31.334" height="20.668"/>
<text transform="matrix(1 0 0 1 -139.375 -234.8281)" font-family="'MyriadPro-Regular'" font-size="22">3</text>
<rect x="-348.58" y="-372.198" fill="none" width="31.336" height="20.667"/>
<text transform="matrix(1 0 0 1 -348.5791 -356.5791)" font-family="'MyriadPro-Regular'" font-size="22">4</text>
<rect x="-347.58" y="-109.117" fill="none" width="31.336" height="20.667"/>
<text transform="matrix(1 0 0 1 -347.5791 -93.4971)" font-family="'MyriadPro-Regular'" font-size="22">6</text>
<rect x="-138.252" y="-110.117" fill="none" width="31.336" height="20.667"/>
<text transform="matrix(1 0 0 1 -138.251 -94.4971)" font-family="'MyriadPro-Regular'" font-size="22">7</text>
<rect x="-562.746" y="-110.117" fill="none" width="31.336" height="20.667"/>
<text transform="matrix(1 0 0 1 -562.7456 -94.4971)" font-family="'MyriadPro-Regular'" font-size="22">5</text>
<path fill="#FFFFFF" stroke="#000000" stroke-miterlimit="10" d="M-259.578-171.677c0,6.627-5.373,12-12,12H-411.75
	c-6.627,0-12-5.373-12-12v-7.179c0-6.628,5.373-12,12-12h140.172c6.627,0,12,5.372,12,12V-171.677z"/>
<path fill="none" d="M-265.107-168.355c0,1.746-2.41,3.161-5.383,3.161h-145.346c-2.973,0-5.383-1.415-5.383-3.161v-13.82
	c0-1.746,2.41-3.161,5.383-3.161h145.346c2.973,0,5.383,1.415,5.383,3.161V-168.355z"/>
<text transform="matrix(1 0 0 1 -411.8496 -168.2969)" font-family="'MyriadPro-Regular'" font-size="24">Development</text>
<line fill="none" stroke="#000000" stroke-miterlimit="10" x1="84.391" y1="-544.482" x2="462.391" y2="-544.482"/>
<line fill="none" stroke="#000000" stroke-miterlimit="10" x1="74.391" y1="-565.148" x2="261.057" y2="-789.814"/>
<line fill="none" stroke="#000000" stroke-miterlimit="10" x1="294.697" y1="-789.814" x2="476.391" y2="-565.148"/>
<line fill="none" stroke="#000000" stroke-miterlimit="10" x1="461.516" y1="-685.148" x2="170.232" y2="-685.148"/>
<line fill="none" stroke="#000000" stroke-miterlimit="10" x1="276.305" y1="-782.482" x2="276.305" y2="-568.482"/>
<line fill="none" stroke="#000000" stroke-miterlimit="10" x1="84.391" y1="-555.814" x2="385.543" y2="-682.113"/>
<line fill="none" stroke="#000000" stroke-miterlimit="10" x1="170.232" y1="-682.113" x2="466.391" y2="-555.814"/>
<line fill="none" stroke="#000000" stroke-miterlimit="10" x1="170.232" y1="-677.482" x2="261.057" y2="-559.814"/>
<line fill="none" stroke="#000000" stroke-miterlimit="10" x1="294.697" y1="-559.814" x2="385.543" y2="-677.482"/>
<circle fill="#FFFFFF" stroke="#000000" stroke-miterlimit="10" cx="277.806" cy="-806.562" r="24.081"/>
<circle fill="#FFFFFF" stroke="#000000" stroke-miterlimit="10" cx="391.886" cy="-685.148" r="24.081"/>
<circle fill="#FFFFFF" stroke="#000000" stroke-miterlimit="10" cx="485.597" cy="-685.148" r="24.081"/>
<circle fill="#FFFFFF" stroke="#000000" stroke-miterlimit="10" cx="170.231" cy="-685.148" r="24.081"/>
<circle fill="#FFFFFF" stroke="#000000" stroke-miterlimit="10" cx="277.806" cy="-544.482" r="24.081"/>
<circle fill="#FFFFFF" stroke="#000000" stroke-miterlimit="10" cx="486.472" cy="-544.482" r="24.081"/>
<circle fill="#FFFFFF" stroke="#000000" stroke-miterlimit="10" cx="63.056" cy="-544.482" r="24.081"/>
<rect x="163.389" y="-693.482" fill="none" width="31.334" height="20.668"/>
<text transform="matrix(1 0 0 1 163.3887 -677.8623)" font-family="'MyriadPro-Regular'" font-size="22">1</text>
<rect x="385.887" y="-694.146" fill="none" width="31.334" height="20.668"/>
<text transform="matrix(1 0 0 1 385.8867 -678.5264)" font-family="'MyriadPro-Regular'" font-size="22">2</text>
<rect x="480.094" y="-694.146" fill="none" width="31.334" height="20.668"/>
<text transform="matrix(1 0 0 1 480.0938 -678.5264)" font-family="'MyriadPro-Regular'" font-size="22">3</text>
<rect x="270.889" y="-815.896" fill="none" width="31.336" height="20.667"/>
<text transform="matrix(1 0 0 1 270.8896 -800.2764)" font-family="'MyriadPro-Regular'" font-size="22">4</text>
<rect x="271.889" y="-552.815" fill="none" width="31.336" height="20.667"/>
<text transform="matrix(1 0 0 1 271.8896 -537.1963)" font-family="'MyriadPro-Regular'" font-size="22">6</text>
<rect x="481.217" y="-553.815" fill="none" width="31.336" height="20.667"/>
<text transform="matrix(1 0 0 1 481.2178 -538.1963)" font-family="'MyriadPro-Regular'" font-size="22">7</text>
<rect x="56.723" y="-553.815" fill="none" width="31.336" height="20.667"/>
<text transform="matrix(1 0 0 1 56.7227 -538.1963)" font-family="'MyriadPro-Regular'" font-size="22">5</text>
<path fill="#FFFFFF" stroke="#000000" stroke-miterlimit="10" d="M359.891-615.375c0,6.627-5.373,12-12,12H207.719
	c-6.627,0-12-5.373-12-12v-7.179c0-6.628,5.373-12,12-12h140.172c6.627,0,12,5.372,12,12V-615.375z"/>
<path fill="none" d="M354.361-612.054c0,1.746-2.41,3.161-5.383,3.161H203.633c-2.973,0-5.383-1.415-5.383-3.161v-13.82
	c0-1.746,2.41-3.161,5.383-3.161h145.346c2.973,0,5.383,1.415,5.383,3.161V-612.054z"/>
<text transform="matrix(1 0 0 1 239.4307 -611.9951)" font-family="'MyriadPro-Regular'" font-size="24">Testing</text>
<line fill="none" stroke="#000000" stroke-miterlimit="10" x1="75.721" y1="-100.784" x2="453.721" y2="-100.784"/>
<line fill="none" stroke="#000000" stroke-miterlimit="10" x1="65.721" y1="-121.45" x2="252.387" y2="-346.116"/>
<line fill="none" stroke="#000000" stroke-miterlimit="10" x1="286.027" y1="-346.116" x2="467.721" y2="-121.45"/>
<line fill="none" stroke="#000000" stroke-miterlimit="10" x1="452.846" y1="-241.45" x2="161.562" y2="-241.45"/>
<line fill="none" stroke="#000000" stroke-miterlimit="10" x1="267.635" y1="-338.784" x2="267.635" y2="-124.784"/>
<line fill="none" stroke="#000000" stroke-miterlimit="10" x1="75.721" y1="-112.116" x2="376.873" y2="-238.415"/>
<line fill="none" stroke="#000000" stroke-miterlimit="10" x1="161.562" y1="-238.415" x2="457.721" y2="-112.116"/>
<line fill="none" stroke="#000000" stroke-miterlimit="10" x1="161.562" y1="-233.784" x2="252.387" y2="-116.116"/>
<line fill="none" stroke="#000000" stroke-miterlimit="10" x1="286.027" y1="-116.116" x2="376.873" y2="-233.784"/>
<circle fill="#FFFFFF" stroke="#000000" stroke-miterlimit="10" cx="269.136" cy="-362.864" r="24.081"/>
<circle fill="#FFFFFF" stroke="#000000" stroke-miterlimit="10" cx="383.216" cy="-241.45" r="24.081"/>
<circle fill="#FFFFFF" stroke="#000000" stroke-miterlimit="10" cx="476.927" cy="-241.45" r="24.081"/>
<circle fill="#FFFFFF" stroke="#000000" stroke-miterlimit="10" cx="161.562" cy="-241.45" r="24.081"/>
<circle fill="#FFFFFF" stroke="#000000" stroke-miterlimit="10" cx="269.136" cy="-100.784" r="24.081"/>
<circle fill="#FFFFFF" stroke="#000000" stroke-miterlimit="10" cx="477.802" cy="-100.784" r="24.081"/>
<circle fill="#FFFFFF" stroke="#000000" stroke-miterlimit="10" cx="54.386" cy="-100.784" r="24.081"/>
<rect x="154.719" y="-249.784" fill="none" width="31.334" height="20.668"/>
<text transform="matrix(1 0 0 1 154.7188 -234.1641)" font-family="'MyriadPro-Regular'" font-size="22">1</text>
<rect x="377.217" y="-250.448" fill="none" width="31.334" height="20.668"/>
<text transform="matrix(1 0 0 1 377.2158 -234.8281)" font-family="'MyriadPro-Regular'" font-size="22">2</text>
<rect x="471.424" y="-250.448" fill="none" width="31.334" height="20.668"/>
<text transform="matrix(1 0 0 1 471.4238 -234.8281)" font-family="'MyriadPro-Regular'" font-size="22">3</text>
<rect x="262.219" y="-372.198" fill="none" width="31.336" height="20.667"/>
<text transform="matrix(1 0 0 1 262.2188 -356.5791)" font-family="'MyriadPro-Regular'" font-size="22">4</text>
<rect x="263.219" y="-109.117" fill="none" width="31.336" height="20.667"/>
<text transform="matrix(1 0 0 1 263.2188 -93.4971)" font-family="'MyriadPro-Regular'" font-size="22">6</text>
<rect x="472.547" y="-110.117" fill="none" width="31.336" height="20.667"/>
<text transform="matrix(1 0 0 1 472.5469 -94.4971)" font-family="'MyriadPro-Regular'" font-size="22">7</text>
<rect x="48.053" y="-110.117" fill="none" width="31.336" height="20.667"/>
<text transform="matrix(1 0 0 1 48.0527 -94.4971)" font-family="'MyriadPro-Regular'" font-size="22">5</text>
<path fill="#FFFFFF" stroke="#000000" stroke-miterlimit="10" d="M351.221-171.677c0,6.627-5.373,12-12,12H199.049
	c-6.627,0-12-5.373-12-12v-7.179c0-6.628,5.373-12,12-12h140.172c6.627,0,12,5.372,12,12V-171.677z"/>
<path fill="none" d="M345.691-168.355c0,1.746-2.41,3.161-5.383,3.161H194.963c-2.973,0-5.383-1.415-5.383-3.161v-13.82
	c0-1.746,2.41-3.161,5.383-3.161h145.346c2.973,0,5.383,1.415,5.383,3.161V-168.355z"/>
<text transform="matrix(1 0 0 1 229.7754 -168.2969)" font-family="'MyriadPro-Regular'" font-size="24">Release</text>
<line fill="none" stroke="#000000" stroke-miterlimit="10" x1="75.721" y1="335.693" x2="453.721" y2="335.693"/>
<line fill="none" stroke="#000000" stroke-miterlimit="10" x1="65.721" y1="315.027" x2="252.387" y2="90.361"/>
<line fill="none" stroke="#000000" stroke-miterlimit="10" x1="286.027" y1="90.361" x2="467.721" y2="315.027"/>
<line fill="none" stroke="#000000" stroke-miterlimit="10" x1="452.846" y1="195.027" x2="161.562" y2="195.027"/>
<line fill="none" stroke="#000000" stroke-miterlimit="10" x1="267.635" y1="97.693" x2="267.635" y2="311.693"/>
<line fill="none" stroke="#000000" stroke-miterlimit="10" x1="75.721" y1="324.361" x2="376.873" y2="198.062"/>
<line fill="none" stroke="#000000" stroke-miterlimit="10" x1="161.562" y1="198.062" x2="457.721" y2="324.361"/>
<line fill="none" stroke="#000000" stroke-miterlimit="10" x1="161.562" y1="202.693" x2="252.387" y2="320.361"/>
<line fill="none" stroke="#000000" stroke-miterlimit="10" x1="286.027" y1="320.361" x2="376.873" y2="202.693"/>
<circle fill="#FFFFFF" stroke="#000000" stroke-miterlimit="10" cx="269.136" cy="73.613" r="24.081"/>
<circle fill="#FFFFFF" stroke="#000000" stroke-miterlimit="10" cx="383.216" cy="195.027" r="24.081"/>
<circle fill="#FFFFFF" stroke="#000000" stroke-miterlimit="10" cx="476.927" cy="195.027" r="24.081"/>
<circle fill="#FFFFFF" stroke="#000000" stroke-miterlimit="10" cx="161.562" cy="195.027" r="24.081"/>
<circle fill="#FFFFFF" stroke="#000000" stroke-miterlimit="10" cx="269.136" cy="335.693" r="24.081"/>
<circle fill="#FFFFFF" stroke="#000000" stroke-miterlimit="10" cx="477.802" cy="335.693" r="24.081"/>
<circle fill="#FFFFFF" stroke="#000000" stroke-miterlimit="10" cx="54.386" cy="335.693" r="24.081"/>
<rect x="154.719" y="186.693" fill="none" width="31.334" height="20.668"/>
<text transform="matrix(1 0 0 1 154.7188 202.3135)" font-family="'MyriadPro-Regular'" font-size="22">1</text>
<rect x="377.217" y="186.029" fill="none" width="31.334" height="20.668"/>
<text transform="matrix(1 0 0 1 377.2158 201.6494)" font-family="'MyriadPro-Regular'" font-size="22">2</text>
<rect x="471.424" y="186.029" fill="none" width="31.334" height="20.668"/>
<text transform="matrix(1 0 0 1 471.4238 201.6494)" font-family="'MyriadPro-Regular'" font-size="22">3</text>
<rect x="262.219" y="64.279" fill="none" width="31.336" height="20.667"/>
<text transform="matrix(1 0 0 1 262.2188 79.8994)" font-family="'MyriadPro-Regular'" font-size="22">4</text>
<rect x="263.219" y="327.36" fill="none" width="31.336" height="20.667"/>
<text transform="matrix(1 0 0 1 263.2188 342.9795)" font-family="'MyriadPro-Regular'" font-size="22">6</text>
<rect x="472.547" y="326.36" fill="none" width="31.336" height="20.667"/>
<text transform="matrix(1 0 0 1 472.5469 341.9795)" font-family="'MyriadPro-Regular'" font-size="22">7</text>
<rect x="48.053" y="326.36" fill="none" width="31.336" height="20.667"/>
<text transform="matrix(1 0 0 1 48.0527 341.9795)" font-family="'MyriadPro-Regular'" font-size="22">5</text>
<path fill="#FFFFFF" stroke="#000000" stroke-miterlimit="10" d="M351.221,264.801c0,6.627-5.373,12-12,12H199.049
	c-6.627,0-12-5.373-12-12v-7.179c0-6.628,5.373-12,12-12h140.172c6.627,0,12,5.372,12,12V264.801z"/>
<path fill="none" d="M345.691,268.122c0,1.746-2.41,3.161-5.383,3.161H194.963c-2.973,0-5.383-1.415-5.383-3.161v-13.82
	c0-1.746,2.41-3.161,5.383-3.161h145.346c2.973,0,5.383,1.415,5.383,3.161V268.122z"/>
<text transform="matrix(1 0 0 1 194.3887 268.1807)" font-family="'MyriadPro-Regular'" font-size="24">User Feedback</text>
</svg>
