<?xml version="1.0" encoding="utf-8"?>
<!-- Generator: Adobe Illustrator 16.0.0, SVG Export Plug-In . SVG Version: 6.00 Build 0)  -->
<!DOCTYPE svg PUBLIC "-//W3C//DTD SVG 1.1//EN" "http://www.w3.org/Graphics/SVG/1.1/DTD/svg11.dtd">
<svg version="1.1" id="Livello_2" xmlns="http://www.w3.org/2000/svg" xmlns:xlink="http://www.w3.org/1999/xlink" x="0px" y="0px"
	 width="553.453px" height="388.573px" viewBox="0 0 553.453 388.573" enable-background="new 0 0 553.453 388.573"
	 xml:space="preserve">
<line fill="none" stroke="#000000" stroke-miterlimit="10" x1="75.721" y1="335.693" x2="453.721" y2="335.693"/>
<line fill="none" stroke="#000000" stroke-miterlimit="10" x1="65.721" y1="315.027" x2="252.387" y2="90.361"/>
<line fill="none" stroke="#000000" stroke-miterlimit="10" x1="286.027" y1="90.361" x2="467.721" y2="315.027"/>
<line fill="none" stroke="#000000" stroke-miterlimit="10" x1="452.846" y1="195.027" x2="161.562" y2="195.027"/>
<line fill="none" stroke="#000000" stroke-miterlimit="10" x1="267.635" y1="97.693" x2="267.635" y2="311.693"/>
<line fill="none" stroke="#000000" stroke-miterlimit="10" x1="75.721" y1="324.361" x2="376.873" y2="198.062"/>
<line fill="none" stroke="#000000" stroke-miterlimit="10" x1="161.562" y1="198.062" x2="457.721" y2="324.361"/>
<line fill="none" stroke="#000000" stroke-miterlimit="10" x1="161.562" y1="202.693" x2="252.387" y2="320.361"/>
<line fill="none" stroke="#000000" stroke-miterlimit="10" x1="286.027" y1="320.361" x2="376.873" y2="202.693"/>
<circle fill="#FFFFFF" stroke="#000000" stroke-miterlimit="10" cx="269.136" cy="73.613" r="24.081"/>
<circle fill="#FFFFFF" stroke="#000000" stroke-miterlimit="10" cx="383.216" cy="195.027" r="24.081"/>
<circle fill="#FFFFFF" stroke="#000000" stroke-miterlimit="10" cx="476.927" cy="195.027" r="24.081"/>
<circle fill="#FFFFFF" stroke="#000000" stroke-miterlimit="10" cx="161.562" cy="195.027" r="24.081"/>
<circle fill="#FFFFFF" stroke="#000000" stroke-miterlimit="10" cx="269.136" cy="335.693" r="24.081"/>
<circle fill="#FFFFFF" stroke="#000000" stroke-miterlimit="10" cx="477.802" cy="335.693" r="24.081"/>
<circle fill="#FFFFFF" stroke="#000000" stroke-miterlimit="10" cx="54.386" cy="335.693" r="24.081"/>
<rect x="154.719" y="186.693" fill="none" width="31.334" height="20.668"/>
<text transform="matrix(1 0 0 1 154.7188 202.3135)" font-family="'MyriadPro-Regular'" font-size="22">1</text>
<rect x="377.217" y="186.029" fill="none" width="31.334" height="20.668"/>
<text transform="matrix(1 0 0 1 377.2163 201.6494)" font-family="'MyriadPro-Regular'" font-size="22">2</text>
<rect x="471.424" y="186.029" fill="none" width="31.334" height="20.668"/>
<text transform="matrix(1 0 0 1 471.4238 201.6494)" font-family="'MyriadPro-Regular'" font-size="22">3</text>
<rect x="262.219" y="64.279" fill="none" width="31.336" height="20.667"/>
<text transform="matrix(1 0 0 1 262.2197 79.8994)" font-family="'MyriadPro-Regular'" font-size="22">4</text>
<rect x="263.219" y="327.36" fill="none" width="31.336" height="20.667"/>
<text transform="matrix(1 0 0 1 263.2197 342.9795)" font-family="'MyriadPro-Regular'" font-size="22">6</text>
<rect x="472.547" y="326.36" fill="none" width="31.336" height="20.667"/>
<text transform="matrix(1 0 0 1 472.5479 341.9795)" font-family="'MyriadPro-Regular'" font-size="22">7</text>
<rect x="48.053" y="326.36" fill="none" width="31.336" height="20.667"/>
<text transform="matrix(1 0 0 1 48.0532 341.9795)" font-family="'MyriadPro-Regular'" font-size="22">5</text>
<path fill="#FFFFFF" stroke="#000000" stroke-miterlimit="10" d="M351.221,264.801c0,6.627-5.373,12-12,12H199.049
	c-6.627,0-12-5.373-12-12v-7.179c0-6.628,5.373-12,12-12h140.172c6.627,0,12,5.372,12,12V264.801z"/>
<path fill="none" d="M345.691,268.122c0,1.746-2.41,3.161-5.383,3.161H194.963c-2.973,0-5.383-1.415-5.383-3.161v-13.82
	c0-1.746,2.41-3.161,5.383-3.161h145.346c2.973,0,5.383,1.415,5.383,3.161V268.122z"/>
<text transform="matrix(1 0 0 1 207.5527 268.1807)" font-family="'MyriadPro-Regular'" font-size="24">Prototyping</text>
</svg>
