<?xml version="1.0" encoding="utf-8"?>
<!-- Generator: Adobe Illustrator 16.0.0, SVG Export Plug-In . SVG Version: 6.00 Build 0)  -->
<!DOCTYPE svg PUBLIC "-//W3C//DTD SVG 1.1//EN" "http://www.w3.org/Graphics/SVG/1.1/DTD/svg11.dtd">
<svg version="1.1" xmlns="http://www.w3.org/2000/svg" xmlns:xlink="http://www.w3.org/1999/xlink" x="0px" y="0px"
	 width="595.28px" height="395.98px" viewBox="0 0 595.28 395.98" enable-background="new 0 0 595.28 395.98" xml:space="preserve">
<g id="Livello_1" display="none">
</g>
<g id="Livello_2">
	<g>
		<g>
			<line fill="none" stroke="#000000" stroke-miterlimit="10" x1="320.402" y1="319.668" x2="455.764" y2="319.668"/>
			<g>
				<polygon points="321.807,321.52 321.02,319.668 321.807,317.816 317.417,319.668 				"/>
			</g>
			<g>
				<polygon points="454.359,321.52 455.146,319.668 454.359,317.816 458.748,319.668 				"/>
			</g>
		</g>
	</g>
	<g>
		<g>
			<line fill="none" stroke="#000000" stroke-miterlimit="10" x1="83.733" y1="319.668" x2="228.428" y2="319.668"/>
			<g>
				<polygon points="85.138,321.52 84.352,319.668 85.138,317.816 80.748,319.668 				"/>
			</g>
			<g>
				<polygon points="227.023,321.52 227.811,319.668 227.023,317.816 231.413,319.668 				"/>
			</g>
		</g>
	</g>
	<g>
		<g>
			<line fill="none" stroke="#000000" stroke-miterlimit="10" x1="172.846" y1="176.121" x2="255.508" y2="76.631"/>
			<g>
				<polygon points="175.166,176.224 173.24,175.646 172.318,173.857 170.938,178.417 				"/>
			</g>
			<g>
				<polygon points="256.034,78.894 255.113,77.106 253.186,76.528 257.415,74.335 				"/>
			</g>
		</g>
	</g>
	<g>
		<g>
			<line fill="none" stroke="#000000" stroke-miterlimit="10" x1="72.656" y1="296.706" x2="161.609" y2="189.644"/>
			<g>
				<polygon points="74.978,296.809 73.051,296.23 72.129,294.442 70.748,299.001 				"/>
			</g>
			<g>
				<polygon points="162.137,191.907 161.215,190.119 159.288,189.541 163.518,187.348 				"/>
			</g>
		</g>
	</g>
	<g>
		<g>
			<line fill="none" stroke="#000000" stroke-miterlimit="10" x1="388.334" y1="194.622" x2="470.871" y2="296.681"/>
			<g>
				<polygon points="387.777,196.878 388.723,195.102 390.656,194.549 386.457,192.301 				"/>
			</g>
			<g>
				<polygon points="468.549,296.753 470.483,296.2 471.428,294.424 472.748,299.001 				"/>
			</g>
		</g>
	</g>
	<g>
		<g>
			<line fill="none" stroke="#000000" stroke-miterlimit="10" x1="292.932" y1="76.656" x2="370.079" y2="172.049"/>
			<g>
				<polygon points="292.375,78.912 293.32,77.136 295.255,76.583 291.055,74.335 				"/>
			</g>
			<g>
				<polygon points="367.756,172.121 369.691,171.568 370.636,169.792 371.956,174.37 				"/>
			</g>
		</g>
	</g>
	<g>
		<g>
			<line fill="none" stroke="#000000" stroke-miterlimit="10" x1="364.93" y1="179.001" x2="178.9" y2="179.001"/>
			<g>
				<polygon points="363.525,177.15 364.312,179.001 363.525,180.853 367.915,179.001 				"/>
			</g>
			<g>
				<polygon points="180.305,177.15 179.518,179.001 180.305,180.853 175.915,179.001 				"/>
			</g>
		</g>
	</g>
	<g>
		<g>
			<line fill="none" stroke="#000000" stroke-miterlimit="10" x1="273.664" y1="77.32" x2="273.664" y2="301.183"/>
			<g>
				<polygon points="271.812,78.724 273.664,77.938 275.516,78.724 273.664,74.335 				"/>
			</g>
			<g>
				<polygon points="271.812,299.779 273.664,300.565 275.516,299.779 273.664,304.168 				"/>
			</g>
		</g>
	</g>
	<g>
		<g>
			<line fill="none" stroke="#000000" stroke-miterlimit="10" x1="83.501" y1="307.181" x2="366.484" y2="188.502"/>
			<g>
				<polygon points="85.512,308.345 84.07,306.942 84.08,304.93 80.748,308.335 				"/>
			</g>
			<g>
				<polygon points="365.904,190.752 365.914,188.741 364.473,187.338 369.236,187.348 				"/>
			</g>
		</g>
	</g>
	<g>
		<g>
			<line fill="none" stroke="#000000" stroke-miterlimit="10" x1="179.99" y1="187.751" x2="460.003" y2="307.164"/>
			<g>
				<polygon points="180.557,190.005 180.559,187.993 182.009,186.599 177.245,186.58 				"/>
			</g>
			<g>
				<polygon points="457.984,308.316 459.435,306.922 459.438,304.91 462.748,308.335 				"/>
			</g>
		</g>
	</g>
	<g>
		<g>
			<line fill="none" stroke="#000000" stroke-miterlimit="10" x1="172.762" y1="194.664" x2="255.307" y2="301.604"/>
			<g>
				<polygon points="172.154,196.907 173.139,195.153 175.085,194.644 170.938,192.301 				"/>
			</g>
			<g>
				<polygon points="252.982,301.623 254.93,301.115 255.914,299.36 257.131,303.966 				"/>
			</g>
		</g>
	</g>
	<g>
		<g>
			<line fill="none" stroke="#000000" stroke-miterlimit="10" x1="293.008" y1="301.805" x2="375.729" y2="194.664"/>
			<g>
				<polygon points="295.332,301.825 293.386,301.316 292.4,299.562 291.184,304.168 				"/>
			</g>
			<g>
				<polygon points="376.336,196.907 375.352,195.152 373.404,194.644 377.553,192.301 				"/>
			</g>
		</g>
	</g>
	<rect x="231.413" y="55.466" fill="none" width="107.5" height="15"/>
	<text transform="matrix(1 0 0 1 231.4131 63.9863)" font-family="'MyriadPro-Regular'" font-size="12">Mediating Artifacts</text>
	<rect x="373.913" y="174.466" fill="none" width="37.504" height="10.881"/>
	<text transform="matrix(1 0 0 1 373.9131 182.9863)" font-family="'MyriadPro-Regular'" font-size="12">Object</text>
	<rect x="126.913" y="174.466" fill="none" width="41.5" height="15"/>
	<text transform="matrix(1 0 0 1 126.9131 182.9863)" font-family="'MyriadPro-Regular'" font-size="12">Subject</text>
	<rect x="46.913" y="304.168" fill="none" width="41.5" height="15"/>
	<text transform="matrix(1 0 0 1 46.9131 312.688)" font-family="'MyriadPro-Regular'" font-size="12">Rules</text>
	<rect x="242.415" y="312.168" fill="none" width="63.19" height="15"/>
	<text transform="matrix(1 0 0 1 242.415 320.688)" font-family="'MyriadPro-Regular'" font-size="12">Community</text>
	<rect x="475.246" y="304.168" fill="none" width="93.17" height="15"/>
	<text transform="matrix(1 0 0 1 475.2471 312.688)" font-family="'MyriadPro-Regular'" font-size="12">Division of labor</text>
	<rect x="234.084" y="125.633" fill="#9D9D9C" width="83.333" height="26.668"/>
	<rect x="239.415" y="213.578" fill="#9D9D9C" width="67.667" height="26.668"/>
	<rect x="109.578" y="268.299" fill="#9D9D9C" width="67.667" height="26.668"/>
	<rect x="345.913" y="268.299" fill="#9D9D9C" width="92.789" height="26.668"/>
	<rect x="124.58" y="276.133" fill="none" width="41.5" height="15"/>
	<text transform="matrix(1 0 0 1 124.5801 284.6528)" fill="#FFFFFF" font-family="'MyriadPro-Regular'" font-size="12">Testing</text>
	<rect x="247.914" y="222.466" fill="none" width="53.165" height="15"/>
	<text transform="matrix(1 0 0 1 247.9131 230.9863)" fill="#FFFFFF" font-family="'MyriadPro-Regular'" font-size="12">Feedback</text>
	<rect x="355.236" y="276.966" fill="none" width="84.498" height="15"/>
	<text transform="matrix(1 0 0 1 355.2363 285.4858)" fill="#FFFFFF" font-family="'MyriadPro-Regular'" font-size="12">Developement</text>
	<rect x="239.415" y="134.466" fill="none" width="79.165" height="15"/>
	<text transform="matrix(1 0 0 1 239.415 142.9863)" fill="#FFFFFF" font-family="'MyriadPro-Regular'" font-size="12">Developement</text>
	<rect x="480.913" y="174.466" fill="none" width="52.837" height="10.881"/>
	<text transform="matrix(1 0 0 1 480.9131 182.9863)" font-family="'MyriadPro-Regular'" font-size="12">Outcome</text>
	<g>
		<g>
			<line fill="none" stroke="#000000" stroke-miterlimit="10" x1="412.915" y1="179.001" x2="469.764" y2="179.001"/>
			<g>
				<polygon points="468.359,180.853 469.146,179.001 468.359,177.15 472.748,179.001 				"/>
			</g>
		</g>
	</g>
</g>
</svg>
