<?xml version="1.0" encoding="utf-8"?>
<!-- Generator: Adobe Illustrator 16.0.0, SVG Export Plug-In . SVG Version: 6.00 Build 0)  -->
<!DOCTYPE svg PUBLIC "-//W3C//DTD SVG 1.1//EN" "http://www.w3.org/Graphics/SVG/1.1/DTD/svg11.dtd">
<svg version="1.1" id="Livello_1" xmlns="http://www.w3.org/2000/svg" xmlns:xlink="http://www.w3.org/1999/xlink" x="0px" y="0px"
	 width="283.464px" height="283.465px" viewBox="0 0 283.464 283.465" enable-background="new 0 0 283.464 283.465"
	 xml:space="preserve">
<g>
	<g>
		<defs>
			<rect id="SVGID_1_" x="15.589" y="16.013" width="122.314" height="140.496"/>
		</defs>
		<clipPath id="SVGID_2_">
			<use xlink:href="#SVGID_1_"  overflow="visible"/>
		</clipPath>
		<g transform="matrix(1 0 0 1 0 -4.768372e-07)" clip-path="url(#SVGID_2_)">
			
				<image overflow="visible" enable-background="new    " width="720" height="960" xlink:href="E356E17F5E66AC70.jpeg"  transform="matrix(0.1704 0 0 0.1704 14.9146 6.269)">
			</image>
		</g>
	</g>
	<g>
		
			<rect id="SVGID_5_" x="15.589" y="16.013" fill="none" stroke="#000000" stroke-miterlimit="10" width="122.314" height="140.496"/>
	</g>
</g>
<rect x="146.996" y="15.377" fill="#FFFFFF" stroke="#000000" stroke-miterlimit="10" width="122.312" height="140.496"/>
<rect x="15.588" y="164.771" fill="#FFFFFF" stroke="#000000" stroke-miterlimit="10" width="253.72" height="96.011"/>
<rect x="155.569" y="24.915" fill="none" width="110.984" height="94.439"/>
<text transform="matrix(1 0 0 1 155.5688 32.8252)" font-family="'Helvetica'" font-size="11">Name: Dani Solis </text>
<text transform="matrix(1 0 0 1 155.5688 46.0254)" font-family="'Helvetica'" font-size="11">Herrera</text>
<text transform="matrix(1 0 0 1 155.5688 59.2246)" font-family="'Helvetica'" font-size="11">Age: 24</text>
<text transform="matrix(1 0 0 1 155.5688 72.4248)" font-family="'Helvetica'" font-size="11">Occupation: Student</text>
<text transform="matrix(1 0 0 1 155.5688 85.625)" font-family="'Helvetica'" font-size="11">Tech Occupation: </text>
<text transform="matrix(1 0 0 1 155.5688 98.8252)" font-family="'Helvetica'" font-size="11">User and Developer</text>
<rect x="24.746" y="169.583" fill="none" width="234.824" height="55.604"/>
<text transform="matrix(1 0 0 1 24.7456 177.4912)" font-family="'Helvetica'" font-size="11">Master Student in Embedded Systems, he’s </text>
<text transform="matrix(1 0 0 1 24.7456 190.6924)" font-family="'Helvetica'" font-size="11">passionate of open design project, he’s not only </text>
<text transform="matrix(1 0 0 1 24.7456 203.8916)" font-family="'Helvetica'" font-size="11">an user, he’s even part of the development of </text>
<text transform="matrix(1 0 0 1 24.7456 217.0908)" font-family="'Helvetica'" font-size="11">the project.</text>
</svg>
