<?xml version="1.0" encoding="utf-8"?>
<!-- Generator: Adobe Illustrator 16.0.0, SVG Export Plug-In . SVG Version: 6.00 Build 0)  -->
<!DOCTYPE svg PUBLIC "-//W3C//DTD SVG 1.1//EN" "http://www.w3.org/Graphics/SVG/1.1/DTD/svg11.dtd">
<svg version="1.1" xmlns="http://www.w3.org/2000/svg" xmlns:xlink="http://www.w3.org/1999/xlink" x="0px" y="0px"
	 width="727.464px" height="203.095px" viewBox="0 0 727.464 203.095" enable-background="new 0 0 727.464 203.095"
	 xml:space="preserve">
<g id="Livello_1" display="none">
</g>
<g id="Livello_2">
	<rect x="139.097" y="35.062" fill="none" stroke="#010202" stroke-miterlimit="10" width="73.7" height="35"/>
	<rect x="212.797" y="35.062" fill="none" stroke="#010202" stroke-miterlimit="10" width="73.7" height="35"/>
	<rect x="139.097" y="70.062" fill="none" stroke="#010202" stroke-miterlimit="10" width="73.7" height="25"/>
	<rect x="212.797" y="70.062" fill="none" stroke="#010202" stroke-miterlimit="10" width="73.7" height="25"/>
	<rect x="139.097" y="95.062" fill="none" stroke="#010202" stroke-miterlimit="10" width="73.7" height="25"/>
	<rect x="212.797" y="95.062" fill="none" stroke="#010202" stroke-miterlimit="10" width="73.7" height="25"/>
	<rect x="139.097" y="120.062" fill="none" stroke="#010202" stroke-miterlimit="10" width="73.7" height="25"/>
	<rect x="212.797" y="120.062" fill="none" stroke="#010202" stroke-miterlimit="10" width="73.7" height="25"/>
	<rect x="139.097" y="145.062" fill="none" stroke="#010202" stroke-miterlimit="10" width="73.7" height="25"/>
	<rect x="212.797" y="145.062" fill="none" stroke="#010202" stroke-miterlimit="10" width="73.7" height="25"/>
	<text transform="matrix(1 0 0 1 152.4219 55.46)" fill="#010202" font-family="'MyriadPro-Regular'" font-size="11">Research</text>
	<text transform="matrix(1 0 0 1 229.332 55.4595)" fill="#010202" font-family="'MyriadPro-Regular'" font-size="11">Ideation</text>
	<text transform="matrix(1 0 0 1 292.96 55.46)" fill="#010202" font-family="'MyriadPro-Regular'" font-size="11">Prototyping</text>
	<text transform="matrix(1.0981 0 0 1 377.0762 55.46)" fill="#010202" font-family="'MyriadPro-Regular'" font-size="11">Testing</text>
	<text transform="matrix(1.0006 0 0 1 513.5967 56.0615)" fill="#010202" font-family="'MyriadPro-Regular'" font-size="11">Development</text>
	<text transform="matrix(1.0006 0 0 1 453.209 56.0615)" fill="#010202" font-family="'MyriadPro-Regular'" font-size="11">Release</text>
	<text transform="matrix(1.0006 0 0 1 585.6582 57.2793)" fill="#010202" font-family="'MyriadPro-Regular'" font-size="11">User Feedback</text>
	<rect x="286.497" y="35.062" fill="none" stroke="#010202" stroke-miterlimit="10" width="73.701" height="35"/>
	<rect x="360.198" y="35.062" fill="none" stroke="#010202" stroke-miterlimit="10" width="73.701" height="35"/>
	<rect x="286.497" y="70.062" fill="none" stroke="#010202" stroke-miterlimit="10" width="73.701" height="25"/>
	<rect x="360.198" y="70.062" fill="none" stroke="#010202" stroke-miterlimit="10" width="73.701" height="25"/>
	<rect x="286.497" y="95.062" fill="none" stroke="#010202" stroke-miterlimit="10" width="73.701" height="25"/>
	<rect x="360.198" y="95.062" fill="none" stroke="#010202" stroke-miterlimit="10" width="73.701" height="25"/>
	<rect x="286.497" y="120.062" fill="none" stroke="#010202" stroke-miterlimit="10" width="73.701" height="25"/>
	<rect x="360.198" y="120.062" fill="none" stroke="#010202" stroke-miterlimit="10" width="73.701" height="25"/>
	<rect x="286.497" y="145.062" fill="none" stroke="#010202" stroke-miterlimit="10" width="73.701" height="25"/>
	<rect x="360.198" y="145.062" fill="none" stroke="#010202" stroke-miterlimit="10" width="73.701" height="25"/>
	<rect x="433.899" y="35.062" fill="none" stroke="#010202" stroke-miterlimit="10" width="73.699" height="35"/>
	<rect x="507.599" y="35.062" fill="none" stroke="#010202" stroke-miterlimit="10" width="73.701" height="35"/>
	<rect x="433.899" y="70.062" fill="none" stroke="#010202" stroke-miterlimit="10" width="73.699" height="25"/>
	<rect x="507.599" y="70.062" fill="none" stroke="#010202" stroke-miterlimit="10" width="73.701" height="25"/>
	<rect x="433.899" y="95.062" fill="none" stroke="#010202" stroke-miterlimit="10" width="73.699" height="25"/>
	<rect x="507.599" y="95.062" fill="none" stroke="#010202" stroke-miterlimit="10" width="73.701" height="25"/>
	<rect x="433.899" y="120.062" fill="none" stroke="#010202" stroke-miterlimit="10" width="73.699" height="25"/>
	<rect x="507.599" y="120.062" fill="none" stroke="#010202" stroke-miterlimit="10" width="73.701" height="25"/>
	<rect x="433.899" y="145.062" fill="none" stroke="#010202" stroke-miterlimit="10" width="73.699" height="25"/>
	<rect x="507.599" y="145.062" fill="none" stroke="#010202" stroke-miterlimit="10" width="73.701" height="25"/>
	<rect x="581.3" y="35.062" fill="none" stroke="#010202" stroke-miterlimit="10" width="73.7" height="35"/>
	<rect x="581.3" y="70.062" fill="none" stroke="#010202" stroke-miterlimit="10" width="73.7" height="25"/>
	<rect x="581.3" y="95.062" fill="none" stroke="#010202" stroke-miterlimit="10" width="73.7" height="25"/>
	<rect x="581.3" y="120.062" fill="none" stroke="#010202" stroke-miterlimit="10" width="73.7" height="25"/>
	<rect x="581.3" y="145.062" fill="none" stroke="#010202" stroke-miterlimit="10" width="73.7" height="25"/>
	<rect x="27.999" y="75.229" fill="none" width="125.332" height="18"/>
	<text transform="matrix(1 0 0 1 27.999 83.0391)" font-family="'MyriadPro-Regular'" font-size="11">No participation</text>
	<rect x="27.999" y="103.229" fill="none" width="125.332" height="18"/>
	<text transform="matrix(1 0 0 1 27.999 111.0391)" font-family="'MyriadPro-Regular'" font-size="11">Indirect participation</text>
	<rect x="27.999" y="121.229" fill="none" width="125.332" height="26.666"/>
	<text transform="matrix(1 0 0 1 27.999 129.0391)"><tspan x="0" y="0" font-family="'MyriadPro-Regular'" font-size="11">Consultative</tspan><tspan x="0" y="13.2" font-family="'MyriadPro-Regular'" font-size="11">participation</tspan></text>
	<rect x="27.999" y="152.229" fill="none" width="125.332" height="18"/>
	<text transform="matrix(1 0 0 1 27.999 160.0391)" font-family="'MyriadPro-Regular'" font-size="11">Shared Control</text>
	<rect x="27.999" y="177.229" fill="none" width="125.332" height="18"/>
	<text transform="matrix(1 0 0 1 27.999 185.0391)" font-family="'MyriadPro-Regular'" font-size="11">Full Control</text>
	<rect x="139.097" y="170.062" fill="none" stroke="#010202" stroke-miterlimit="10" width="73.7" height="25"/>
	<rect x="212.797" y="170.062" fill="none" stroke="#010202" stroke-miterlimit="10" width="73.7" height="25"/>
	<rect x="286.497" y="170.062" fill="none" stroke="#010202" stroke-miterlimit="10" width="73.701" height="25"/>
	<rect x="360.198" y="170.062" fill="none" stroke="#010202" stroke-miterlimit="10" width="73.701" height="25"/>
	<rect x="433.899" y="170.062" fill="none" stroke="#010202" stroke-miterlimit="10" width="73.699" height="25"/>
	<rect x="507.599" y="170.062" fill="none" stroke="#010202" stroke-miterlimit="10" width="73.701" height="25"/>
	<rect x="581.3" y="170.062" fill="none" stroke="#010202" stroke-miterlimit="10" width="73.7" height="25"/>
	<text transform="matrix(1 0 0 1 139.0967 22.6792)" font-family="'MyriadPro-Regular'" font-size="19.5841">User</text>
	<circle cx="175.667" cy="83.312" r="5.75"/>
	<circle cx="249.647" cy="83.312" r="5.75"/>
	<circle cx="323.647" cy="83.312" r="5.75"/>
	<circle cx="397.647" cy="133.312" r="5.75"/>
	<circle cx="471.749" cy="106.312" r="5.75"/>
	<circle cx="545.749" cy="133.312" r="5.75"/>
	<circle cx="620.3" cy="183.312" r="5.75"/>
	<circle cx="397.647" cy="108.312" r="5.75"/>
</g>
</svg>
